<?xml version="1.0" encoding="UTF-8"?><svg id="a" xmlns="http://www.w3.org/2000/svg" viewBox="0 0 960 200.8"><defs><style>.b{fill:#171717;}</style></defs><path class="b" d="M73.49,100.4c0-13.2,10.71-23.9,23.91-23.9s23.9,10.71,23.9,23.9-10.7,23.91-23.9,23.91-23.91-10.71-23.91-23.91ZM97.39,0C50.52,0,11.19,32.11,.13,75.52c-.07,.32-.13,.64-.13,.97,0,2.64,2.14,4.78,4.78,4.78H45.25c1.93,0,3.58-1.15,4.34-2.79h0c8.31-18.1,26.58-30.68,47.8-30.68,29.04,0,52.59,23.55,52.59,52.59s-23.55,52.6-52.59,52.6c-21.22,0-39.49-12.58-47.8-30.69h0c-.76-1.63-2.41-2.78-4.34-2.78H4.78c-2.64,0-4.78,2.13-4.78,4.78,0,.33,.05,.64,.12,.95,11.07,43.42,50.4,75.54,97.27,75.54,55.44,0,100.4-44.96,100.4-100.4S152.84,0,97.39,0ZM359.94,123.94h-13.66c-.96,0-1.79,.46-2.33,1.16-7.93,11.72-21.34,19.44-36.56,19.44-24.38,0-44.14-19.76-44.14-44.13s19.76-44.13,44.14-44.13c15.22,0,28.64,7.72,36.57,19.44,.54,.7,1.38,1.16,2.33,1.16h13.66c1.63,0,2.95-1.32,2.95-2.94,0-.48-.13-.92-.32-1.32-10.18-20.16-31.06-33.99-55.18-33.99-34.12,0-61.79,27.66-61.79,61.79s27.67,61.79,61.79,61.79c24.12,0,45-13.83,55.18-33.99,.2-.4,.32-.84,.32-1.32,0-1.63-1.32-2.94-2.95-2.94Zm41.19-105.92c0,6.5-5.26,11.77-11.77,11.77s-11.77-5.27-11.77-11.77,5.27-11.77,11.77-11.77,11.77,5.27,11.77,11.77Zm-2.94,138.28V41.56h-17.66v114.75c0,1.62,1.32,2.94,2.94,2.94h11.77c1.62,0,2.94-1.32,2.94-2.94Zm76.54-117.62c-17.8,.84-32.02,9.35-41.23,22.34v-16.53c0-1.62-1.32-2.94-2.94-2.94h-11.77c-1.63,0-2.94,1.32-2.94,2.94h0v111.81c0,1.62,1.32,2.94,2.94,2.94h11.77c1.62,0,2.94-1.32,2.94-2.94v-55.9c0-23.38,18.19-42.52,41.19-44.03,1.63,0,2.95-1.32,2.95-2.95v-11.79c0-1.61-1.3-2.91-2.9-2.94Zm117.24,85.25h-13.66c-.95,0-1.79,.46-2.32,1.16-7.93,11.72-21.35,19.44-36.56,19.44-24.38,0-44.14-19.76-44.14-44.13s19.75-44.13,44.14-44.13c15.22,0,28.63,7.72,36.56,19.44,.54,.7,1.38,1.16,2.32,1.16h13.66c1.63,0,2.95-1.32,2.95-2.94,0-.48-.12-.92-.33-1.32-10.17-20.16-31.06-33.99-55.17-33.99-34.13,0-61.79,27.66-61.79,61.79s27.66,61.79,61.79,61.79c24.11,0,45-13.83,55.17-33.99,.2-.4,.33-.84,.33-1.32,0-1.63-1.32-2.94-2.95-2.94ZM627.28,3.31h-11.77c-1.63,0-2.94,1.32-2.94,2.94V156.3c0,1.62,1.31,2.94,2.94,2.94h11.77c1.62,0,2.95-1.32,2.95-2.94V6.25c0-1.62-1.32-2.94-2.95-2.94Zm82.39,35.31c-34.13,0-61.79,27.66-61.79,61.79s27.66,61.79,61.79,61.79c24.12,0,45-13.83,55.17-33.99,.2-.4,.32-.84,.32-1.32,0-1.63-1.32-2.94-2.94-2.94h-13.66c-.97,0-1.84,.48-2.37,1.21-7.95,11.69-21.34,19.39-36.53,19.39-22.38,0-40.86-16.66-43.74-38.25h102.5c1.58,0,2.85-1.24,2.94-2.79,.05-1.02,.08-2.05,.08-3.09,0-34.12-27.66-61.79-61.78-61.79Zm-42.54,50.02c5.16-18.65,22.25-32.36,42.54-32.36s37.37,13.71,42.53,32.36h-85.07ZM942.35,.37c-9.75,0-17.65,7.91-17.65,17.65s7.91,17.65,17.65,17.65,17.65-7.9,17.65-17.65S952.1,.37,942.35,.37Zm14.71,41.19v114.75c0,1.62-1.32,2.94-2.94,2.94h-23.54c-1.62,0-2.94-1.32-2.94-2.94V41.56h29.42Zm-106.16,120.63c28.84,0,53.04-19.76,59.86-46.48,.04-.19,.07-.39,.07-.6,0-1.62-1.32-2.94-2.94-2.94h-24.91c-1.18,0-2.2,.7-2.66,1.72h0c-5.12,11.13-16.35,18.88-29.41,18.88-17.87,0-32.37-14.49-32.37-32.36s14.5-32.36,32.37-32.36c13.06,0,24.29,7.74,29.41,18.88h0c.46,1,1.48,1.71,2.66,1.71h24.91c1.62,0,2.94-1.32,2.94-2.94,0-.2-.03-.39-.07-.59-6.81-26.72-31.02-46.49-59.86-46.49-34.11,0-61.79,27.67-61.79,61.79s27.68,61.79,61.79,61.79Z"/></svg>