<?xml version="1.0" encoding="UTF-8"?><svg id="a" xmlns="http://www.w3.org/2000/svg" viewBox="0 0 700 200"><defs><style>.b{fill:#f9f9f9;}.c{fill:#030303;}.d{fill:#fafafa;}.e{fill:#fbfbfb;}</style></defs><path d="M350,.05C465.9,.05,581.8,.05,697.7,0c1.87,0,2.3,.42,2.3,2.3-.06,65.14-.06,130.27,0,195.41,0,1.87-.42,2.3-2.3,2.3-231.8-.05-463.6-.05-695.41,0-1.87,0-2.3-.42-2.3-2.3C.06,132.57,.06,67.43,0,2.3,0,.42,.42,0,2.3,0,118.2,.05,234.1,.05,350,.05ZM192.97,81.66c-3.65-3.66-7.43-4.44-11.59-4.14-2.07,.15-4.18,.2-6.24,0-7.13-.73-16.62,9.18-16.17,16.08,.44,6.8,.09,13.65,.1,20.47,0,6.84,5.41,14.71,12.15,15.82,6.95,1.14,14.32,2.59,20.96-2.63,0,1.85,.01,3.4,0,4.96-.03,3.7-2.52,6.17-6.22,6.18-2.33,0-4.68-.18-6.99,.05-2.88,.29-5.02-.63-6.57-3.03-.47-.73-.98-1.27-2.03-.94-2.92,.93-5.88,1.77-8.81,2.67-.61,.19-1.24,.25-.83,1.31,2.19,5.71,9.96,11.26,16.16,11.37,3.5,.06,7.03-.28,10.49,.07,7.91,.81,17.04-9.07,16.98-16.65-.14-17.8-1-35.62,.68-53.4,.12-1.3-.24-1.77-1.6-1.71-2.41,.1-4.84,.17-7.24-.01-2.13-.16-3.59,.17-3.22,3.54Zm37.47-1.14v-1.62c0-6.16-.07-12.32,.04-18.48,.03-1.79-.52-2.28-2.24-2.19-2.66,.14-5.33,.1-7.99,0-1.39-.05-1.89,.34-1.85,1.8,.1,3.49,.03,6.99,.03,10.49,0,19.07,.03,38.13-.05,57.2,0,1.85,.4,2.45,2.3,2.31,2.48-.19,5-.18,7.49,0,1.91,.14,2.33-.49,2.31-2.33-.1-10.49,0-20.98-.09-31.47-.01-1.68,.67-2.68,1.74-3.85,3.19-3.48,7.22-3.56,11.47-3.43,4.84,.15,6.99,2.14,6.99,6.9,0,10.74,.03,21.48-.04,32.22,0,1.51,.32,2.05,1.91,1.97,2.66-.14,5.34-.15,7.99,0,1.75,.1,2.2-.41,2.18-2.17-.09-11.16-.04-22.31-.05-33.47,0-6.81-4.58-14.13-11.12-15.84-6.89-1.8-14.08-2.52-21.04,1.97Zm-179.44,13.74c0,11.24,.03,22.47-.04,33.71,0,1.59,.34,2.15,2.02,2.06,2.82-.15,5.67-.17,8.49,0,1.86,.12,2.12-.58,2.11-2.23-.08-8.41,.01-16.81-.08-25.22-.02-1.7,.34-2.23,2.14-2.21,8.66,.11,17.32,0,25.97,.09,1.75,.02,2.32-.46,2.21-2.21-.15-2.4-.18-4.84,0-7.24,.15-2.02-.37-2.69-2.53-2.65-8.57,.14-17.15,.01-25.72,.09-1.62,.02-2.12-.39-2.08-2.05,.12-4.66,.12-9.32,0-13.98-.04-1.72,.38-2.21,2.16-2.2,9.32,.1,18.65-.02,27.97,.1,2.04,.03,2.53-.62,2.41-2.51-.16-2.4-.17-4.83,0-7.24,.13-1.86-.4-2.38-2.31-2.36-13.49,.09-26.97,.09-40.46,0-1.88-.01-2.34,.47-2.32,2.34,.09,11.24,.05,22.47,.05,33.71Zm365.41,10c0-3.58-.22-7.18,.05-10.74,.53-7.09-9.08-16.52-15.97-16.03-4.31,.3-8.69,.39-12.98-.02-7.12-.67-16.67,8.6-16.47,15.82,.2,7.15,.23,14.32,0,21.47-.24,7.29,9.3,16.46,16.12,15.88,4.55-.39,9.17-.33,13.73-.03,6.53,.43,16.02-8.8,15.56-15.87-.22-3.48-.04-6.99-.04-10.49Zm206.91-.15c0-3.58-.2-7.17,.04-10.74,.48-6.91-8.94-16.3-15.84-15.87-4.56,.28-9.17,.27-13.73,0-6.87-.41-16.18,9.15-15.82,15.95,.38,7.06,.35,14.16,.01,21.22-.34,7.07,9.03,16.43,15.76,15.97,4.56-.31,9.18-.35,13.73,.01,6.85,.54,16.48-8.93,15.9-16.05-.28-3.47-.05-6.99-.05-10.49Zm-182.42-22.73c.06-3.45-2-3.35-4.19-3.24-2.16,.1-4.33,.08-6.5,0-1.33-.05-1.68,.31-1.51,1.71,.52,4.12,1.07,8.24,1.05,12.43-.06,11.83,.03,23.65-.07,35.48-.02,1.93,.53,2.42,2.37,2.29,2.24-.17,4.51-.2,6.74,0,2.32,.22,3.08-.37,3.04-2.89-.17-10.41-.07-20.82-.08-31.23,0-1.09,0-2.11,.89-2.98,2.5-2.45,5.08-4.54,8.95-3.99,1.39,.2,2.83,.03,4.24,.03,3.73,.01,6.18,2.45,6.18,6.18,0,10.83,.06,21.66-.05,32.48-.02,2.04,.6,2.51,2.48,2.39,2.49-.16,5.01-.17,7.49,0,1.83,.13,2.14-.54,2.13-2.22-.08-11.33-.03-22.65-.05-33.98-.01-7.08-6.09-15.03-13.1-15.84-6.71-.78-13.85-2.3-20.03,3.38Zm-124.86,21.77c0,4.28,.26,7.8-.05,11.27-.64,7.15,8.97,16.81,16,16.23,4.22-.35,8.49-.1,12.73-.05,3.03,.04,5.71-.89,8.15-2.63,3.25-2.31,5.62-5.36,7.68-8.73,.67-1.1,.29-1.41-.71-1.69-2.4-.67-4.84-1.24-7.15-2.15-1.94-.76-3.21-.54-4.31,1.31-1.09,1.84-2.73,2.64-5.02,2.49-3.23-.21-6.49-.02-9.74-.06-2.9-.03-5.54-2.65-5.56-5.56-.04-6.33-.04-12.65,0-18.98,.02-2.82,2.77-5.58,5.55-5.61,3.5-.04,6.99,.03,10.49-.03,1.19-.02,2.33,.25,2.83,1.22,2.01,3.92,4.96,3.06,8.06,1.81,.61-.25,1.27-.37,1.91-.56q4.4-1.3,1.65-5.17c-4.09-5.8-9.27-9.39-16.78-8.76-3.14,.26-6.32,.03-9.49,.05-6.92,.04-14.43,6.11-15.84,12.94-.92,4.44-.13,8.96-.4,12.66Zm174.94,.05c0,2.66,.24,5.35-.05,7.99-.77,7.24,2.73,12.25,8.14,16.34,5.01,3.79,10.87,2.15,16.43,2.45,1.1-3.2,.19-6.5,.48-9.74,0-.08,0-.17,0-.25,.14-1.06-.28-1.47-1.39-1.43-2,.08-4,.05-5.99,.02-2.9-.05-5.59-2.65-5.6-5.52-.04-7.24,.02-14.48-.04-21.72-.01-1.38,.33-1.85,1.78-1.82,3.83,.1,7.66-.01,11.49,.06,1.26,.02,1.77-.29,1.71-1.65-.1-2.66-.11-5.33,0-7.99,.06-1.48-.51-1.83-1.88-1.8-3.58,.08-7.17-.12-10.74,.08-2.08,.11-2.42-.65-2.37-2.49,.12-5.07-.08-10.16,.1-15.23,.07-2-.61-2.37-2.38-2.27-2.49,.14-5,.14-7.49,0-1.7-.1-2.29,.34-2.24,2.15,.13,4.82,.05,9.65,.05,14.48q0,3.3-3.21,3.3c-4.78,0-4.82,0-4.77,4.77,.03,2.14-.91,4.88,.37,6.25,1.18,1.26,3.94,.36,5.99,.33,1.36-.02,1.67,.43,1.65,1.7-.08,3.99-.03,7.99-.03,11.98Zm-211.39-.18c0,3.75,.22,7.51-.05,11.24-.48,6.84,9.15,16.5,15.91,15.77,1.65-.18,3.33-.03,4.99-.03,4.1,0,4.11,0,4.09-4.16-.01-2.32,.78-5.34-.37-6.77-1.21-1.51-4.36-.32-6.66-.49-.17-.01-.33,0-.5,0-2.64-.1-5.39-2.81-5.4-5.48-.04-7.24,.04-14.49-.06-21.73-.02-1.68,.64-1.88,2.04-1.85,3.66,.08,7.33-.04,10.99,.06,1.46,.04,2.07-.23,1.97-1.87-.16-2.49-.14-5,0-7.49,.08-1.6-.33-2.17-2.03-2.11-3.66,.14-7.33-.03-10.99,.07-1.53,.04-1.99-.41-1.96-1.96,.09-5.33,0-10.66,.07-15.98,.02-1.44-.22-2.11-1.88-2.03-2.74,.14-5.5,.12-8.24,0-1.54-.06-1.98,.42-1.95,1.97,.1,4.99-.14,10,.11,14.98,.13,2.62-.71,3.13-3.13,3.04-4.98-.2-5.03-.06-4.96,5.03,.03,2.05-.93,4.77,.42,5.96,1.14,1.01,3.81,.44,5.78,.3,1.68-.11,1.88,.61,1.85,2.02-.08,3.83-.03,7.66-.03,11.49Zm249.35,5.54c0,6.41,.09,12.82-.06,19.23-.05,1.97,.57,2.36,2.36,2.25,2.49-.15,5.01-.19,7.49,0,1.99,.16,2.27-.6,2.25-2.37-.08-10.65-.05-21.31-.03-31.97,0-.79-.26-1.63,.42-2.36,2.32-2.45,4.64-4.8,8.47-4.4,1.56,.16,3.17,.09,4.74,0,1.29-.07,2.46,.3,3.02,1.35,1.84,3.44,4.41,3.26,7.4,1.81,.74-.36,1.6-.45,2.39-.69,4.33-1.33,4.36-1.35,1.69-5.13-3.06-4.33-6.75-8.17-12.27-8.57-5.44-.39-11.24-1.45-15.95,2.84-.6,.55-1.17,.47-1.18-.35-.03-2.28-1.53-2.1-3.09-2.07-2.25,.05-4.5,.09-6.74-.01-1.55-.07-2.27,.17-1.97,2.02,1.55,9.42,.94,18.92,1.04,28.4ZM107.61,90.16c0,9.08,.05,18.16-.03,27.23-.03,3.78,.81,7.42,1.25,11.13,.17,1.39,.83,1.51,1.94,1.49,2.66-.05,5.34-.15,7.99,.03,2.01,.13,2.54-.45,2.14-2.42-1.04-5.07-1.43-10.19-1.32-15.38,.13-5.91,.03-11.82,.03-17.74,0-11.33-.05-22.65,.05-33.98,.02-1.94-.55-2.42-2.38-2.3-2.49,.16-5,.14-7.49,0-1.74-.1-2.25,.43-2.23,2.2,.09,9.91,.04,19.82,.04,29.73Zm541.9,39.83c-1.44-6.66-1.71-13.18-1.67-19.74,.1-16.55,0-33.1,.08-49.65,0-1.83-.38-2.51-2.31-2.37-2.4,.17-4.83,.19-7.23,0-2.13-.17-2.56,.6-2.56,2.62,.08,18.71,.1,37.43,0,56.14-.02,3.95,.72,7.76,1.21,11.63,.1,.79,.25,1.42,1.31,1.4,3.65-.05,7.3-.02,11.16-.02Zm-503.4-25.74c0-7.99-.03-15.99,.03-23.98,.01-1.53-.23-2.26-2.01-2.16-2.74,.16-5.5,.08-8.24,.03-1.17-.02-1.81,.13-1.81,1.59,.05,16.24,.05,32.48,0,48.71,0,1.46,.62,1.59,1.78,1.57,2.75-.06,5.5-.12,8.24,.02,1.63,.08,2.07-.41,2.05-2.04-.09-7.91-.04-15.82-.04-23.73Zm.24-39.76c0-2.07,.81-4.84-.21-6.01-1.21-1.39-4.06-.43-6.19-.43-2.05,0-4.74-.94-5.99,.39-1.22,1.3-.35,3.96-.33,6.02,.02,2.05-.93,4.7,.4,6,1.32,1.3,3.96,.37,6.02,.38,2.06,0,4.71,.91,6.02-.36,1.33-1.28,.2-3.94,.27-5.99Z"/><path class="e" d="M192.97,81.66c-.38-3.37,1.08-3.7,3.22-3.54,2.4,.18,4.83,.11,7.24,.01,1.36-.06,1.72,.42,1.6,1.71-1.69,17.78-.82,35.6-.68,53.4,.06,7.58-9.07,17.46-16.98,16.65-3.46-.36-6.99-.01-10.49-.07-6.21-.11-13.98-5.66-16.16-11.37-.41-1.06,.22-1.12,.83-1.31,2.93-.9,5.89-1.74,8.81-2.67,1.05-.33,1.56,.21,2.03,.94,1.55,2.4,3.69,3.32,6.57,3.03,2.31-.23,4.66-.04,6.99-.05,3.7-.01,6.19-2.48,6.22-6.18,.01-1.56,0-3.11,0-4.96-6.64,5.23-14.02,3.78-20.96,2.63-6.74-1.11-12.14-8.98-12.15-15.82,0-6.83,.35-13.68-.1-20.47-.45-6.91,9.04-16.81,16.17-16.08,2.06,.21,4.17,.16,6.24,0,4.16-.3,7.94,.48,11.59,4.14Zm-21.9,22.35c0,3.25-.02,6.49,0,9.74,.02,1.86,2.21,5.05,3.99,5.2,5.88,.49,11.87,1.14,16.29-4.24,.65-.8,.82-1.55,.82-2.49-.02-4.33-.44-8.71,.11-12.97,.62-4.78-1.91-7.16-5.36-9.31-1.09-.68-2.21-1.03-3.52-.98-2.16,.07-4.33,0-6.49,.02-3.13,.03-5.82,2.7-5.85,5.8-.02,3.08,0,6.16,0,9.24Z"/><path class="e" d="M230.44,80.52c6.96-4.49,14.15-3.76,21.04-1.97,6.54,1.71,11.12,9.02,11.12,15.84,0,11.16-.04,22.31,.05,33.47,.01,1.76-.44,2.27-2.18,2.17-2.66-.16-5.33-.14-7.99,0-1.59,.08-1.92-.46-1.91-1.97,.07-10.74,.04-21.48,.04-32.22,0-4.76-2.15-6.75-6.99-6.9-4.25-.13-8.28-.05-11.47,3.43-1.07,1.17-1.76,2.17-1.74,3.85,.08,10.49,0,20.98,.09,31.47,.02,1.85-.4,2.47-2.31,2.33-2.49-.18-5-.19-7.49,0-1.9,.14-2.31-.46-2.3-2.31,.08-19.07,.05-38.13,.05-57.2,0-3.5,.07-7-.03-10.49-.04-1.46,.46-1.85,1.85-1.8,2.66,.1,5.33,.13,7.99,0,1.72-.09,2.27,.4,2.24,2.19-.11,6.16-.04,12.32-.04,18.48v1.62Z"/><path class="d" d="M51,94.26c0-11.24,.05-22.47-.05-33.71-.02-1.87,.44-2.35,2.32-2.34,13.49,.09,26.97,.09,40.46,0,1.9-.01,2.44,.5,2.31,2.36-.17,2.4-.16,4.83,0,7.24,.12,1.9-.37,2.54-2.41,2.51-9.32-.12-18.65,0-27.97-.1-1.78-.02-2.2,.48-2.16,2.2,.12,4.66,.12,9.32,0,13.98-.04,1.66,.46,2.07,2.08,2.05,8.57-.08,17.15,.04,25.72-.09,2.16-.03,2.69,.63,2.53,2.65-.18,2.4-.15,4.83,0,7.24,.11,1.75-.46,2.23-2.21,2.21-8.66-.09-17.32,.02-25.97-.09-1.81-.02-2.16,.51-2.14,2.21,.09,8.41,0,16.81,.08,25.22,.02,1.65-.25,2.35-2.11,2.23-2.82-.18-5.66-.15-8.49,0-1.68,.09-2.03-.47-2.02-2.06,.07-11.24,.04-22.47,.04-33.71Z"/><path class="e" d="M416.41,104.25c0,3.5-.19,7,.04,10.49,.46,7.07-9.04,16.3-15.56,15.87-4.56-.3-9.18-.36-13.73,.03-6.82,.58-16.36-8.59-16.12-15.88,.23-7.15,.2-14.32,0-21.47-.2-7.22,9.35-16.49,16.47-15.82,4.29,.41,8.67,.32,12.98,.02,6.89-.48,16.5,8.94,15.97,16.03-.27,3.56-.05,7.16-.05,10.74Zm-12-.16c0-2.99,0-5.99,0-8.98-.01-3.5-2.57-6.13-6-6.15-3.08-.02-6.15-.02-9.23,0-3.48,.02-6.07,2.6-6.09,6.1-.02,5.99-.02,11.97,0,17.96,.01,3.51,2.56,6.09,6.03,6.11,3.08,.02,6.15,.01,9.23,0,3.56-.01,6.05-2.5,6.06-6.06,.01-2.99,0-5.99,0-8.98Z"/><path class="e" d="M623.32,104.1c0,3.5-.23,7.01,.05,10.49,.58,7.12-9.05,16.59-15.9,16.05-4.55-.36-9.17-.32-13.73-.01-6.73,.46-16.1-8.9-15.76-15.97,.34-7.06,.37-14.16-.01-21.22-.36-6.79,8.95-16.35,15.82-15.95,4.56,.27,9.17,.28,13.73,0,6.9-.43,16.32,8.97,15.84,15.87-.25,3.56-.04,7.16-.04,10.74Zm-12-.01c0-3.08,.02-6.15,0-9.23-.02-3.22-2.59-5.86-5.75-5.88-3.24-.03-6.49-.03-9.73,0-3.12,.03-5.76,2.7-5.77,5.85-.02,6.15-.02,12.3,0,18.46,.01,3.36,2.57,5.84,5.99,5.86,3.08,.01,6.15,.01,9.23,0,3.53-.02,6.02-2.52,6.03-6.07,.01-2.99,0-5.99,0-8.98Z"/><path class="b" d="M440.9,81.37c6.18-5.68,13.32-4.15,20.03-3.38,7.01,.81,13.08,8.76,13.1,15.84,.02,11.33-.03,22.65,.05,33.98,.01,1.68-.29,2.35-2.13,2.22-2.49-.17-5-.16-7.49,0-1.89,.12-2.51-.36-2.48-2.39,.12-10.83,.06-21.65,.05-32.48,0-3.72-2.45-6.17-6.18-6.18-1.42,0-2.86,.17-4.24-.03-3.87-.56-6.45,1.53-8.95,3.99-.89,.88-.89,1.89-.89,2.98,0,10.41-.09,20.82,.08,31.23,.04,2.52-.71,3.11-3.04,2.89-2.23-.21-4.5-.17-6.74,0-1.83,.14-2.38-.36-2.37-2.29,.1-11.83,0-23.65,.07-35.48,.02-4.18-.53-8.3-1.05-12.43-.17-1.39,.17-1.76,1.51-1.71,2.16,.08,4.34,.1,6.5,0,2.19-.11,4.26-.21,4.19,3.24Z"/><path class="e" d="M316.04,103.14c.26-3.69-.52-8.21,.4-12.66,1.41-6.83,8.92-12.9,15.84-12.94,3.16-.02,6.35,.22,9.49-.05,7.51-.63,12.69,2.96,16.78,8.76q2.74,3.87-1.65,5.17c-.64,.19-1.3,.32-1.91,.56-3.11,1.25-6.06,2.1-8.06-1.81-.5-.97-1.64-1.25-2.83-1.22-3.5,.07-6.99,0-10.49,.03-2.78,.03-5.53,2.79-5.55,5.61-.04,6.33-.04,12.65,0,18.98,.02,2.92,2.66,5.53,5.56,5.56,3.25,.04,6.5-.15,9.74,.06,2.29,.15,3.93-.65,5.02-2.49,1.1-1.86,2.37-2.07,4.31-1.31,2.31,.91,4.75,1.48,7.15,2.15,1.01,.28,1.38,.59,.71,1.69-2.05,3.37-4.43,6.42-7.68,8.73-2.45,1.74-5.12,2.67-8.15,2.63-4.25-.05-8.52-.3-12.73,.05-7.03,.58-16.64-9.07-16-16.23,.31-3.47,.05-6.99,.05-11.27Z"/><path class="e" d="M490.98,103.19c0-3.99-.05-7.99,.03-11.98,.02-1.28-.29-1.72-1.65-1.7-2.05,.03-4.81,.93-5.99-.33-1.28-1.37-.35-4.11-.37-6.25-.06-4.77-.02-4.77,4.77-4.77q3.21,0,3.21-3.3c0-4.83,.09-9.66-.05-14.48-.05-1.81,.53-2.25,2.24-2.15,2.49,.14,5,.14,7.49,0,1.77-.1,2.45,.26,2.38,2.27-.18,5.07,.02,10.15-.1,15.23-.04,1.84,.3,2.61,2.37,2.49,3.57-.2,7.16,0,10.74-.08,1.37-.03,1.94,.32,1.88,1.8-.11,2.66-.1,5.33,0,7.99,.05,1.36-.45,1.67-1.71,1.65-3.83-.07-7.66,.04-11.49-.06-1.45-.04-1.79,.43-1.78,1.82,.06,7.24,0,14.48,.04,21.72,.01,2.87,2.7,5.47,5.6,5.52,2,.03,4,.06,5.99-.02,1.11-.04,1.53,.36,1.39,1.43-.01,.08,0,.17,0,.25-.29,3.24,.62,6.54-.48,9.74-5.55-.31-11.42,1.33-16.43-2.45-5.4-4.08-8.91-9.1-8.14-16.34,.28-2.63,.05-5.32,.05-7.99Z"/><path class="d" d="M279.59,103.01c0-3.83-.05-7.66,.03-11.49,.03-1.41-.17-2.13-1.85-2.02-1.97,.13-4.63,.7-5.78-.3-1.35-1.19-.39-3.91-.42-5.96-.07-5.08-.02-5.22,4.96-5.03,2.42,.1,3.27-.42,3.13-3.04-.25-4.98-.01-9.99-.11-14.98-.03-1.54,.41-2.03,1.95-1.97,2.74,.11,5.5,.14,8.24,0,1.66-.09,1.9,.59,1.88,2.03-.08,5.33,.03,10.66-.07,15.98-.03,1.55,.43,2,1.96,1.96,3.66-.1,7.33,.06,10.99-.07,1.7-.06,2.12,.51,2.03,2.11-.13,2.49-.15,5,0,7.49,.1,1.64-.51,1.91-1.97,1.87-3.66-.1-7.33,.02-10.99-.06-1.4-.03-2.06,.16-2.04,1.85,.1,7.24,.02,14.49,.06,21.73,.01,2.66,2.76,5.37,5.4,5.48,.17,0,.33,0,.5,0,2.3,.17,5.45-1.02,6.66,.49,1.15,1.43,.36,4.45,.37,6.77,.02,4.16,0,4.16-4.09,4.16-1.67,0-3.35-.15-4.99,.03-6.76,.73-16.4-8.93-15.91-15.77,.26-3.73,.05-7.49,.05-11.24Z"/><path class="e" d="M528.94,108.55c-.1-9.48,.51-18.98-1.04-28.4-.3-1.85,.42-2.09,1.97-2.02,2.24,.1,4.5,.07,6.74,.01,1.55-.04,3.05-.22,3.09,2.07,.01,.81,.58,.89,1.18,.35,4.71-4.28,10.52-3.23,15.95-2.84,5.52,.4,9.21,4.25,12.27,8.57,2.67,3.78,2.65,3.8-1.69,5.13-.79,.24-1.66,.33-2.39,.69-2.99,1.44-5.56,1.63-7.4-1.81-.56-1.05-1.74-1.42-3.02-1.35-1.58,.09-3.18,.16-4.74,0-3.84-.4-6.15,1.95-8.47,4.4-.69,.73-.42,1.57-.42,2.36-.02,10.66-.06,21.31,.03,31.97,.01,1.77-.27,2.53-2.25,2.37-2.48-.2-5-.16-7.49,0-1.78,.11-2.4-.28-2.36-2.25,.15-6.41,.06-12.82,.06-19.23Z"/><path class="d" d="M107.61,90.16c0-9.91,.05-19.82-.04-29.73-.02-1.77,.49-2.3,2.23-2.2,2.49,.14,5,.15,7.49,0,1.83-.12,2.39,.36,2.38,2.3-.1,11.32-.05,22.65-.05,33.98,0,5.91,.1,11.83-.03,17.74-.11,5.19,.28,10.31,1.32,15.38,.41,1.97-.13,2.56-2.14,2.42-2.65-.18-5.33-.08-7.99-.03-1.12,.02-1.78-.1-1.94-1.49-.44-3.71-1.28-7.35-1.25-11.13,.08-9.08,.03-18.15,.03-27.23Z"/><path class="d" d="M649.51,129.99c-3.86,0-7.51-.03-11.16,.02-1.06,.01-1.21-.61-1.31-1.4-.5-3.87-1.23-7.68-1.21-11.63,.09-18.71,.07-37.43,0-56.14,0-2.02,.42-2.79,2.56-2.62,2.4,.2,4.83,.18,7.23,0,1.93-.14,2.32,.54,2.31,2.37-.07,16.55,.02,33.1-.08,49.65-.04,6.57,.22,13.08,1.67,19.74Z"/><path class="d" d="M146.12,104.25c0,7.91-.05,15.82,.04,23.73,.02,1.64-.42,2.12-2.05,2.04-2.74-.14-5.5-.08-8.24-.02-1.17,.02-1.79-.11-1.78-1.57,.05-16.24,.05-32.48,0-48.71,0-1.45,.64-1.61,1.81-1.59,2.75,.05,5.5,.14,8.24-.03,1.78-.1,2.03,.63,2.01,2.16-.06,7.99-.03,15.99-.03,23.98Z"/><path class="b" d="M146.35,64.49c-.07,2.05,1.06,4.72-.27,5.99-1.32,1.26-3.97,.36-6.02,.36-2.06,0-4.7,.92-6.02-.38-1.32-1.3-.37-3.95-.4-6-.02-2.06-.89-4.72,.33-6.02,1.25-1.33,3.94-.39,5.99-.39,2.13,0,4.97-.97,6.19,.43,1.02,1.18,.21,3.95,.21,6.01Z"/><path d="M171.06,104.01c0-3.08-.02-6.16,0-9.24,.02-3.1,2.72-5.77,5.85-5.8,2.16-.02,4.33,.05,6.49-.02,1.3-.04,2.43,.3,3.52,.98,3.45,2.15,5.97,4.53,5.36,9.31-.55,4.26-.12,8.64-.11,12.97,0,.93-.16,1.69-.82,2.49-4.42,5.39-10.41,4.74-16.29,4.24-1.78-.15-3.98-3.34-3.99-5.2-.03-3.25,0-6.49,0-9.74Z"/><path class="c" d="M404.41,104.1c0,2.99,0,5.99,0,8.98-.01,3.56-2.5,6.05-6.06,6.06-3.08,.01-6.15,.02-9.23,0-3.46-.02-6.02-2.59-6.03-6.11-.02-5.99-.02-11.97,0-17.96,.01-3.5,2.6-6.08,6.09-6.1,3.08-.01,6.15-.02,9.23,0,3.44,.02,5.99,2.64,6,6.15,0,2.99,0,5.99,0,8.98Z"/><path class="c" d="M611.31,104.09c0,2.99,0,5.99,0,8.98-.01,3.55-2.5,6.06-6.03,6.07-3.08,.01-6.15,.01-9.23,0-3.42-.02-5.98-2.5-5.99-5.86-.02-6.15-.02-12.3,0-18.46,0-3.15,2.65-5.82,5.77-5.85,3.24-.03,6.49-.03,9.73,0,3.16,.03,5.72,2.66,5.75,5.88,.02,3.08,0,6.15,0,9.23Z"/></svg>