<?xml version="1.0" encoding="UTF-8"?><svg id="a" xmlns="http://www.w3.org/2000/svg" viewBox="0 0 1450 200.7"><defs><style>.b{fill:#ee4137;}.c{fill:#4590cd;}.d{fill:#27489d;}</style></defs><g><g><path class="d" d="M0,42.56c0-1.79,1.61-3.4,3.4-3.4H24.69c1.97,0,3.39,1.61,3.39,3.4v45.08h51.17V42.56c0-1.79,1.43-3.4,3.4-3.4h21.29c1.78,0,3.4,1.61,3.4,3.4v118.43c0,1.79-1.62,3.4-3.4,3.4h-21.29c-1.97,0-3.4-1.61-3.4-3.4v-47.05H28.08v47.05c0,1.79-1.43,3.4-3.39,3.4H3.4c-1.79,0-3.4-1.61-3.4-3.4V42.56Z"/><path class="d" d="M211.08,37.37c35.77,0,64.4,28.8,64.4,64.58s-28.63,64.23-64.4,64.23-64.23-28.44-64.23-64.23,28.44-64.58,64.23-64.58Zm0,100.18c19.67,0,35.77-16.1,35.77-35.6s-16.1-35.96-35.77-35.96-35.6,16.28-35.6,35.96,16.1,35.6,35.6,35.6Z"/><path class="d" d="M313.21,42.56c0-1.79,1.61-3.4,3.4-3.4h22c1.97,0,3.4,1.61,3.4,3.4V115.01c0,12.52,9.3,22.54,22,22.54s22.36-10.02,22.36-22.54V42.56c0-1.79,1.43-3.4,3.4-3.4h22c1.79,0,3.4,1.61,3.4,3.4V116.45c0,27.19-22.9,49.73-51.16,49.73s-50.8-22.54-50.8-49.73V42.56Z"/><path class="d" d="M461.86,42.56c0-1.79,1.43-3.4,3.4-3.4h53.49c21.46,0,39,17.35,39,38.64,0,16.46-10.92,29.7-26.48,35.96l24.51,45.44c1.25,2.33,0,5.19-3.04,5.19h-23.79c-1.43,0-2.51-.9-2.87-1.61l-23.79-47.41h-12.34v45.62c0,1.79-1.61,3.4-3.39,3.4h-21.29c-1.97,0-3.4-1.61-3.4-3.4V42.56Zm54.56,50.09c7.34,0,13.6-6.8,13.6-14.31s-6.26-13.6-13.6-13.6h-26.48v27.91h26.48Z"/></g><g><path class="d" d="M861.95,43.46c-.71-2.5,.71-4.29,3.22-4.29h20.93c1.43,0,2.86,1.25,3.22,2.5l15.39,60.65h.71l27.73-62.97c.54-1.07,1.61-1.97,3.04-1.97h3.22c1.61,0,2.69,.9,3.04,1.97l27.73,62.97h.71l15.39-60.65c.36-1.25,1.78-2.5,3.22-2.5h20.93c2.5,0,3.93,1.79,3.22,4.29l-33.81,120.22c-.36,1.43-1.79,2.51-3.22,2.51h-2.86c-1.25,0-2.5-.9-3.04-1.97l-32.73-73.17h-.54l-32.56,73.17c-.54,1.07-1.79,1.97-3.04,1.97h-2.86c-1.43,0-2.87-1.07-3.22-2.51l-33.81-120.22Z"/><path class="d" d="M1105.41,37.37c35.77,0,64.4,28.8,64.4,64.58s-28.63,64.23-64.4,64.23-64.23-28.44-64.23-64.23,28.44-64.58,64.23-64.58Zm0,100.18c19.67,0,35.77-16.1,35.77-35.6s-16.1-35.96-35.77-35.96-35.6,16.28-35.6,35.96,16.1,35.6,35.6,35.6Z"/><path class="d" d="M1209.33,42.56c0-1.79,1.43-3.4,3.4-3.4h53.49c21.46,0,39,17.35,39,38.64,0,16.46-10.92,29.7-26.48,35.96l24.51,45.44c1.25,2.33,0,5.19-3.04,5.19h-23.79c-1.43,0-2.51-.9-2.87-1.61l-23.79-47.41h-12.34v45.62c0,1.79-1.61,3.4-3.4,3.4h-21.28c-1.97,0-3.4-1.61-3.4-3.4V42.56Zm54.56,50.09c7.34,0,13.6-6.8,13.6-14.31s-6.26-13.6-13.6-13.6h-26.48v27.91h26.48Z"/><path class="d" d="M1347.07,43.46c0-2.33,1.78-4.29,4.29-4.29h20.93c2.33,0,4.29,1.97,4.29,4.29v47.05l39.71-49.55c.72-.9,2.33-1.79,3.4-1.79h22.54c3.4,0,5.19,3.93,3.22,6.62l-41.87,52.42,45.62,59.39c1.97,2.68,0,6.62-3.4,6.62h-24.69c-1.25,0-2.86-.72-3.22-1.25l-41.33-56.17v53.31c0,2.33-1.97,4.29-4.29,4.29h-20.93c-2.51,0-4.29-1.97-4.29-4.29V43.46Z"/></g></g><g><path class="b" d="M664.54,123.13c.98,.98,2.6,1,3.6,.03l70.18-67.58c1-.96,1.01-2.55,.03-3.53l-17.59-17.59c-.98-.98-2.6-1-3.6-.03l-70.18,67.59c-1,.96-1.01,2.55-.03,3.53l17.59,17.59Z"/><rect class="c" x="731.89" y="-9.37" width="25.11" height="169.75" rx="2.52" ry="2.52" transform="translate(164.65 548.52) rotate(-45)"/><rect class="c" x="674.55" y="47.98" width="25.11" height="169.75" rx="2.52" ry="2.52" transform="translate(107.31 524.77) rotate(-45)"/><path class="b" d="M732.78,7.05h32.78c1.39,0,2.52,1.13,2.52,2.52v24.9c0,1.39-1.13,2.52-2.52,2.52h-32.78V7.05h0Z" transform="translate(204.22 537.08) rotate(-45)"/><path class="b" d="M808.66,54.42l-11.44-11.44c-2.69-2.69-7.04-2.69-9.73,0l-56.73,56.73-31-31-17.75,17.75,31,31-56.42,56.42c-2.69,2.69-2.69,7.04,0,9.73l11.44,11.44c2.69,2.69,7.04,2.69,9.73,0l130.91-130.91c2.69-2.69,2.69-7.04,0-9.73Z"/><path class="b" d="M616.6,123.23h32.78c1.39,0,2.52,1.13,2.52,2.52v24.9c0,1.39-1.13,2.52-2.52,2.52h-32.78v-29.94h0Z" transform="translate(1180.45 -212.56) rotate(135)"/><path class="c" d="M628.78,29.23h50.24v25.27h-50.24c-1.39,0-2.52-1.13-2.52-2.52V31.75c0-1.39,1.13-2.52,2.52-2.52Z" transform="translate(220.76 -449.23) rotate(45)"/><path class="c" d="M746.32,146.78h50.24v25.27h-50.24c-1.39,0-2.52-1.13-2.52-2.52v-20.23c0-1.39,1.13-2.52,2.52-2.52Z" transform="translate(1202.07 816.74) rotate(-135)"/></g></svg>