<svg id="Layer_5" data-name="Layer 5" xmlns="http://www.w3.org/2000/svg" viewBox="0 0 440 54.42"><defs><style>.cls-1{fill:#626d8e;}.cls-2{fill:#f46663;}.cls-3{fill:#9faccc;}</style></defs><path class="cls-1" d="M18.12,15.54h-14V6.37H43v9.17H29V59H18.12Z" transform="translate(-4.07 -5.47)"/><path class="cls-1" d="M67,6.37H77.86V29.82H96.65V6.37h10.82V59H96.65V39H77.86V59H67Z" transform="translate(-4.07 -5.47)"/><path class="cls-1" d="M146.45,6.37V59H135.63V6.37Z" transform="translate(-4.07 -5.47)"/><path class="cls-1" d="M172,45h11c.37,3.76,3,5.56,6.69,5.56s6.09-2.18,6.09-5.56-2.11-5.34-9.25-8.27c-10.48-4.32-14.2-9.28-14.2-17,0-8.65,6.31-14.28,16.46-14.28,9.39,0,16.46,5.56,16.46,14.73h-11c0-3.23-2.1-5.41-5.63-5.41s-5.34,2.18-5.34,4.81c0,3.15,2.18,5,9.54,8.15,10.53,4.51,13.91,9.24,13.91,16.61,0,9.28-6.61,15.52-17.21,15.52S172.6,53.42,172,45Z" transform="translate(-4.07 -5.47)"/><path class="cls-1" d="M259.66,59H242.08V6.37h17.58c17.07,0,28.56,9.62,28.56,26.3S276.73,59,259.66,59Zm.08-43.44H252.9V49.81h6.84c9.85,0,17.51-5.71,17.51-17.06S269.59,15.54,259.74,15.54Z" transform="translate(-4.07 -5.47)"/><path class="cls-1" d="M419.19,15.54H405.13V6.37h38.94v9.17H430V59H419.19Z" transform="translate(-4.07 -5.47)"/><circle class="cls-2" cx="342.7" cy="26.75" r="16.36"/><polygon class="cls-3" points="367.96 0.45 354.49 0.45 374.69 26.75 354.49 53.06 367.96 53.06 388.16 26.75 367.96 0.45"/><polygon class="cls-3" points="317.44 0.45 330.91 0.45 310.71 26.75 330.91 53.06 317.44 53.06 297.24 26.75 317.44 0.45"/></svg>