<?xml version="1.0" encoding="UTF-8"?><svg id="a" xmlns="http://www.w3.org/2000/svg" viewBox="0 0 895 749.31"><defs><style>.b{fill:#fcfcfd;}.c{fill:#fefefe;}.d{fill:#fbfbfc;}.e{fill:#fdfdfd;}.f{fill:#a6a7a9;}.g{fill:#a7a8aa;}.h{fill:#09235e;}.i{fill:#08225d;}.j{fill:#08215d;}.k{fill:#07215d;}.l{fill:#07215c;}.m{fill:#06205c;}.n{fill:#0a245f;}.o{fill:#0f2861;}.p{fill:#0e2761;}.q{fill:#0c2560;}</style></defs><path class="c" d="M0,566.45V0H895V749.31h-362.23c.49-.2,.96-.45,1.47-.59,7.63-2.04,12.54-6.9,14.39-14.53,.77-3.18,1.04-6.54,1.08-9.82,.13-11.09,.05-22.18,.05-33.28,0-.98,0-1.96,0-3.03h-6.07c0,11.85,.02,23.52-.02,35.19,0,2.31-.14,4.64-.46,6.92-1.16,8.22-6.71,13.23-14.87,13.56-7.78,.32-13.69-4.24-15.46-12.19-.57-2.56-.76-5.24-.78-7.87-.08-11.01-.04-22.02-.04-33.03,0-.88,0-1.76,0-2.62h-6.11c0,11.89-.03,23.64,.02,35.38,.01,2.56,.14,5.13,.49,7.66,1.11,8.07,5.13,14.02,12.94,17.03,1.28,.49,2.62,.81,3.94,1.21h-67.59c.17-.14,.33-.39,.52-.42,21.15-3.3,30.85-24.9,23.53-43.53-5.58-14.2-20.43-21.52-36.18-18.19-14.55,3.08-24.4,16.16-23.84,31.65,.51,14.29,8.81,25.36,21.88,29.22,1.39,.41,2.77,.84,4.15,1.26h-130.71c.42-.17,.83-.38,1.26-.51,4.77-1.54,9.55-3.06,14.32-4.62,1.33-.43,1.77-1.35,1.75-2.83-.09-7.45-.04-14.9-.04-22.35v-4.94h-20.28v5.47h14.05c0,6.42,.03,12.61-.05,18.8,0,.58-.52,1.44-1.03,1.68-8.75,4.13-17.71,5.51-26.72,1.02-9.35-4.65-14.09-14.55-13.08-26.53,1.25-14.8,14.7-24.92,29.26-22.11,4.76,.92,8.75,3.19,12.01,6.24,1.64-1.53,3.12-2.91,4.67-4.36-8.02-7.6-17.61-9.13-27.79-7.26-14.67,2.69-24.08,14-24.98,29.22-.88,14.85,8.09,27.8,22.06,31.86,1.38,.4,2.76,.81,4.14,1.21H0v-102.36H17.07v-60.92l.42-.05c6.44,20.34,12.89,40.68,19.33,61.01,3.76,0,7.23-.1,10.7,.04,1.77,.07,2.55-.46,3.12-2.22,6.1-18.85,12.31-37.66,18.49-56.48,.26-.8,.58-1.59,.87-2.38l.48,.14v60.72h16.81v-80.33h-25.59c-5.92,17.34-11.84,34.67-17.98,52.66-.52-1.46-.77-2.14-1-2.83-5.44-16.02-10.89-32.04-16.28-48.07-.42-1.24-.84-1.88-2.34-1.86-8.03,.1-16.06,.07-24.09,.08ZM603.84,60.59l.17,.21s0-.11-.02-.13c-.04-.04-.11-.05-.17-.07-3.58-8.68-10.08-14.57-18.63-17.77-7.91-2.96-16.36-2.87-24.74-2.34-5.34,.34-10.68,.63-16.02,.8-4.09,.13-8.19,.03-12.76,.03,4.97,6.34,10.34,11.3,18.01,13.34,7.94,2.1,16.02,2.31,24.12,1.97,8.01-.34,15.81,.56,23.5,2.82,2.11,.62,4.36,.78,6.54,1.14Zm71.05,193.29c5.63,6.97,10.57,14.34,13.4,22.95,.86,2.61,1.91,5.16,3.1,8.32,4.1-8.03,5.76-15.73,4.03-23.91-1.33-6.27-4.77-11.6-8.37-16.76-4.67-6.71-9.57-13.27-14.3-19.93-1.22-1.72-2.23-3.61-3.61-5.88-1.83,4.53-2.52,8.65-2.4,12.86,.19,6.45,2.64,12.22,5.67,17.79,.55,1,1.01,2.06,1.5,3.09-.41,.21-.99,.32-1.2,.65-3.29,5.31-5.26,11.09-5.1,17.34,.19,7.08,2.11,13.82,4.81,20.37,2.86,6.93,6.5,13.57,7.69,21.12,.75,4.76,1.55,9.51,2.44,14.97,7.04-8.46,10.81-17.36,9.39-27.8-1.09-8-4.48-15.32-7.89-22.6-3.11-6.64-5.86-13.45-8.72-20.21-.31-.73-.3-1.58-.44-2.38Zm-22.98,5.63c.64-15.1-.4-29.52-3-43.81-6.31-34.69-20.32-65.98-42.8-93.15-39.05-47.19-89.35-72.82-150.56-76.17-34.15-1.87-66.74,5.1-97.72,19.69-69.81,32.87-116.22,104.71-117.38,181.73-.29,19.4,1.91,38.46,6.9,57.22,.44,1.65,1.1,2.1,2.68,2.02,2.48-.12,4.97-.03,7.45-.03,6.67,0,8.64-1.25,10.94-7.45,9.3-25.08,18.54-50.18,27.82-75.27,3.49-9.45,6.98-18.9,10.56-28.31,.76-1.99,1.69-4.12,4.35-4.18,2.57-.06,3.41,1.9,4.25,3.86,9.44,22.01,18.9,44,28.35,66,.58,1.34,1.18,2.67,1.91,4.32,.43-.74,.7-1.13,.89-1.55,6.58-14.69,13.16-29.39,19.74-44.09,3.85-8.59,7.68-17.19,11.6-25.75,.64-1.39,.94-3.25,3.19-3.28,4.89-.06,9.77-.26,14.65-.34,.6-.01,1.71,.3,1.73,.53,.16,1.79,.33,3.65-.02,5.38-.09,.45-1.96,.75-3.02,.77-5.23,.1-6.6,1.91-4.96,6.82,5.28,15.73,10.58,31.46,15.88,47.19,3.24,9.62,6.47,19.25,9.81,29.15,.47-.93,.82-1.58,1.13-2.24,8.02-17.31,15.91-34.68,24.13-51.89,2.55-5.34,5.8-10.37,9.06-15.32,1.64-2.5,3.16-2.41,4.86,.05,2.15,3.12,4.26,6.34,5.82,9.77,7.92,17.35,15.65,34.79,23.46,52.19,.5,1.11,1.03,2.2,1.68,3.57,3.66-9.6,7.11-18.88,10.74-28.1,3.72-9.44,7.08-19.07,11.55-28.15,6.83-13.87,17.5-23.76,32.88-27.73,10.28-2.65,20.79-3.19,31.31-2.43,10.24,.74,20.1,3.07,28.75,9.04,1.46,1.01,2.61,.65,3.6-.71,.78-1.07,1.48-2.25,2.45-3.11,.64-.57,1.76-1.02,2.56-.88,.52,.09,1.17,1.3,1.21,2.04,.65,11.16,1.23,22.32,1.76,33.49,.03,.72-.24,1.79-.75,2.15-2.32,1.65-5.11,.66-6.13-1.98-3.48-8.95-7.86-17.37-15.18-23.83-14.99-13.22-38.98-12.54-54.54,1.41-7.62,6.83-12.97,15.27-16.63,24.69-6.01,15.46-11.65,31.07-17.41,46.64-3.01,8.13-5.88,16.31-8.93,24.42-2.08,5.53-5.97,8.79-12.11,9.02-3.14,.12-4.33-.53-5.6-3.4-9.74-22.06-19.49-44.11-29.24-66.16-.35-.8-.77-1.57-1.35-2.73-2.59,5.7-4.95,11.02-7.4,16.3-8.11,17.45-16.24,34.89-24.37,52.33-1.03,2.21-2.52,4.03-5.12,4.14-4.47,.19-8.94,.21-13.41,.17-.57,0-1.53-.71-1.65-1.24-.95-4.26-.15-5.23,4.12-5.32,.33,0,.67,.01,.99-.03,2.8-.32,4.13-1.98,3.72-4.76-.13-.89-.44-1.76-.73-2.62-8.22-24.42-16.44-48.83-24.67-73.24-.24-.71-.56-1.4-.99-2.46-.46,1.03-.72,1.62-.99,2.22-7.95,17.88-15.78,35.82-23.95,53.6-2.26,4.91-5.24,9.56-8.41,13.96-2.51,3.49-4.68,3.32-6.96-.32-2.4-3.83-4.59-7.86-6.31-12.04-7.62-18.56-15.03-37.2-22.53-55.81-.28-.7-.64-1.37-1.16-2.46-.41,.88-.62,1.23-.74,1.61-5.98,18.2-12.08,36.36-17.86,54.62-2.22,6.99-3.96,14.16-5.47,21.34-.9,4.27,1.22,6.28,5.64,6.38,.66,.02,1.33,0,1.99,0q3.42,0,3.41,3.54c0,.33-.03,.67,0,.99,.17,1.63-.54,2.18-2.16,2.1-4.3-.22-8.61-.39-12.91-.42-8.74-.06-17.49-.02-26.4-.02,25.95,86.91,117.82,160.25,230.14,141.78,104.59-17.2,167.76-107.2,171.26-188.9-.15-.05-.3-.16-.44-.16-12.42-.01-24.85-.05-37.27,0-3.48,.01-5.16,1.58-5.15,5.29,.02,9.01,.23,18.03,.51,27.04,.05,1.72-.3,2.78-1.87,3.59-20.1,10.38-41.32,13.75-63.54,9.63-11.92-2.21-22.68-7.11-31.22-16.11-1.57-1.65-1.99-3.34-1.12-5.4,.87-2.05,1.68-4.13,2.58-6.17,1.21-2.73,2.3-3,4.68-1.13,3.45,2.7,6.83,5.51,10.31,8.19,5.65,4.36,11.59,8.23,18.33,10.73,7.83,2.9,15.96,2.57,24.06,2.1,3.27-.19,6.54-.86,9.73-1.66,3.39-.85,5.45-3.3,5.56-6.8,.27-8.1,.45-16.21,.37-24.31-.03-3.37-1.88-4.81-5.31-4.97-2.15-.1-4.31-.12-6.46-.02-3.61,.16-2.1-2.54-2.39-4.19-.34-1.98,.6-2.47,2.54-2.45,15.4,.15,30.8,.2,46.2,.24,10.09,.03,20.18,0,30.51,0Zm-70.2,387.4c5.65-18.48,11.25-36.79,16.86-55.1l.51,.02c5.61,18.35,11.23,36.7,16.84,55.04h15.3c7.52-26.78,15.01-53.48,22.53-80.29h-17.29c-4.3,17.54-8.58,34.94-12.85,52.35h-.44c-5.3-17.49-10.61-34.98-15.92-52.51-4.93,0-9.65-.06-14.37,.07-.68,.02-1.71,.85-1.94,1.53-1.6,4.69-3.03,9.43-4.51,14.16-3.7,11.8-7.39,23.61-11.24,35.89-.33-1.08-.56-1.68-.71-2.3-3.8-15.82-7.57-31.65-11.42-47.46-.18-.72-1.08-1.79-1.66-1.8-5.7-.14-11.4-.08-17.34-.08,7.68,26.97,15.3,53.72,22.92,80.49h14.73Zm-150.76-80.49v80.45h16.95v-57.35c.74,1.21,1.13,1.83,1.5,2.46,10.36,17.59,20.74,35.16,31.04,52.79,.94,1.6,1.84,2.33,3.81,2.28,5.96-.16,11.92-.05,17.89-.07,.63,0,1.25-.1,1.75-.14v-80.28h-16.92v55.9c-.79-1.28-1.27-2.02-1.71-2.77-10.04-17.11-20.07-34.22-30.15-51.3-.47-.8-1.43-1.86-2.18-1.88-7.27-.14-14.55-.09-21.97-.09Zm-248.53,44.44c.04-22.58-8.8-37.15-24.33-43.26-11.81-4.64-23.77-4.5-35.54,.33-7.5,3.08-13.58,8.08-17.45,15.21-8.52,15.72-8.75,31.77,.17,47.3,12.71,22.15,45.03,23.28,61.65,10.39,11.06-8.58,15.32-20.32,15.5-29.98Zm122.37-11.56v16.39h13.71c0,4.04,.04,7.91-.05,11.78-.01,.58-.54,1.41-1.06,1.66-7.76,3.77-15.86,4.98-24.02,1.83-9.5-3.66-13.88-11.35-14.82-21.12-1.65-17.11,9.4-31.96,29.63-28.61,5.2,.86,9.37,3.48,13.07,7.13,4.03-4.59,7.96-9.06,12.38-14.09-3.78-2.23-7.14-4.67-10.85-6.31-7.82-3.44-16.2-4.13-24.59-3.41-14.99,1.3-26.52,8.18-33.28,22.03-3.96,8.12-4.92,16.82-3.94,25.66,1.82,16.31,9.74,28.57,25.59,34.04,16.16,5.58,31.98,2.84,47.13-4.43,.66-.32,1.15-1.69,1.16-2.57,.07-12.75,.05-25.51,.05-38.26,0-.55-.08-1.11-.13-1.74h-29.98Zm-68.33,13.67c8.63-1.82,13.9-6.86,15.68-14.89,.91-4.1,1-8.59,.46-12.77-1.15-8.81-6.5-14.52-14.98-16.95-3.77-1.08-7.78-1.72-11.7-1.83-10.01-.26-20.04-.11-30.06-.11-.56,0-1.12,.07-1.78,.12v80.31h17.06v-32.08c2.08,0,3.98,.14,5.84-.04,1.84-.18,2.78,.51,3.59,2.16,4.66,9.49,9.42,18.93,14.2,28.36,.35,.7,1.15,1.66,1.75,1.67,6.41,.12,12.81,.08,19.57,.08-6.63-11.48-13.05-22.61-19.64-34.02Zm442.08,33.9v-34.55h33.11v34.56h16.77v-80.31h-16.9v29.72h-33.12v-29.75h-16.88v80.33h17.02Zm178.72-16.3v-16.41h33.2v-16.42h-33.21v-14.94h35.19v-16.18h-52.29v80.25h54.29v-16.3h-37.18Zm-434.54,16.37c.06-.29,.11-.39,.09-.45-10.96-26.29-21.92-52.58-32.95-78.84-.25-.59-1.3-1.16-2-1.18-3.39-.12-6.8,.08-10.18-.11-1.9-.11-2.72,.59-3.41,2.28-9.69,23.51-19.45,46.99-29.19,70.48-1.06,2.55-2.09,5.12-3.19,7.81h18.8c1.89-5.02,3.83-10.01,5.63-15.05,.53-1.48,1.28-1.95,2.86-1.94,8.53,.09,17.06,.11,25.59-.01,1.94-.03,2.71,.69,3.33,2.38,1.81,4.93,3.79,9.8,5.68,14.64h18.95Zm407.99-80.37h-61.01v15.6h21.95v64.64h17.14v-64.73h21.92v-15.5Zm-86.5-.08v80.32h16.87v-80.32h-16.87Zm-377.08,153.51c2.92,0,5.48,.1,8.03-.04,1.54-.08,2.34,.48,3.1,1.79,4.72,8.15,9.52,16.26,14.35,24.34,.41,.69,1.17,1.58,1.84,1.65,2.08,.22,4.2,.08,6.65,.08-5.82-9.6-11.42-18.83-17.11-28.22,.74-.21,1.27-.4,1.81-.5,8.35-1.57,13.19-6.96,13.29-14.81,.11-8.63-4.08-13.91-12.79-15.62-3.14-.62-6.41-.71-9.62-.78-5.19-.12-10.38-.03-15.65-.03v59.79h6.09v-27.66Zm172.67-238.92l.22,.87c2.17-.15,4.39-.09,6.51-.5,8.9-1.74,17.04-5.02,22.32-12.9,3.12-4.65,6.16-9.44,8.55-14.49,4.02-8.52,7.7-17.19,12.87-25.1,.32-.49,.42-1.14,.7-1.96-5.38,.67-10.15,2.07-14.43,4.9-7.11,4.7-11.76,11.45-15.76,18.8-3.83,7.02-6.84,14.54-12.26,20.61-2.91,3.26-5.81,6.52-8.71,9.78Zm130.41-189.05c-6.1,6.75-10.3,14.09-9.66,23.14,.4,5.75,.87,11.58,2.26,17.14,2.59,10.36,4.14,20.7,2.75,31.37-.12,.91-.02,1.86-.02,3.3,6.76-5.19,11.23-11.21,13.28-18.79,2.37-8.75,.72-17.38-1.44-25.92-1.67-6.63-3.59-13.2-5.23-19.84-.84-3.42-1.32-6.93-1.96-10.41Zm-111.8,157.65c-9.21-.26-17.16,1.34-23.53,7.24-4.47,4.14-8.86,8.5-12.53,13.34-5.93,7.83-12.15,15.24-20.48,20.65-1.36,.88-2.51,2.07-3.9,3.23,.55,.27,.82,.49,1.11,.54,8.75,1.55,17.15,.78,24.84-4,6.08-3.78,10.67-9.15,14.83-14.83,5.17-7.05,9.36-14.82,15.61-21.09,1.37-1.37,2.44-3.05,4.03-5.08Zm-36.9,16.94c-.07-.24-.15-.49-.22-.73-1.5-.15-2.99-.29-4.49-.45-7.75-.84-15.06,.51-21.45,5.06-4.98,3.54-9.95,7.19-14.36,11.39-6.66,6.34-13.8,11.79-22.36,15.27-.76,.31-1.49,.73-2.2,1.14-.53,.3-1.02,.67-1.82,1.21,7.05,2.89,13.86,4.32,21.09,2.59,7.86-1.88,14.45-6.03,20.27-11.47,6.88-6.43,12.86-13.79,20.48-19.44,1.82-1.34,3.37-3.04,5.05-4.57ZM211.73,172.02c-6.04,4.96-10.1,14.55-10.45,23.48-.25,6.32,1.79,12.07,4.04,17.74,4.13,10.44,8.5,20.78,12.77,31.16,.27,.65,.59,1.28,1.05,2.26,3.78-5.47,5.56-11.21,5.96-17.39,.45-7.09-1.55-13.71-3.97-20.26-3.11-8.42-7.03-16.6-8.15-25.65-.45-3.67-.81-7.36-1.24-11.34Zm448.35-44.99c-.31-6.44-2.01-11.88-5.31-16.72-5.04-7.39-12.28-11.95-20.57-14.83-10.91-3.8-21.9-7.34-32.87-10.99-.73-.24-1.49-.37-2.73-.67,2.66,7.23,6.05,13.35,11.64,17.9,6.19,5.04,13.67,7.75,21.09,10.25,9.25,3.12,18.07,6.83,25.62,13.16,.78,.66,1.77,1.08,3.12,1.89ZM215.59,342.55c-.16,1.24-.33,2.01-.36,2.79-.25,6.77,2.07,12.78,5.38,18.54,4.08,7.1,10.72,11.12,17.63,14.76,8.62,4.54,17.34,8.91,26.01,13.37,1.59,.82,3.13,1.74,5.13,2.86-.06-1.32,0-2.12-.15-2.88-1.31-6.75-4.32-12.58-9.14-17.55-4.45-4.59-9.82-7.79-15.34-10.83-7.9-4.33-16-8.36-22.54-14.76-2.05-2.01-4.15-3.96-6.61-6.3Zm432.09-196.01c-.24,1.48-.57,2.36-.47,3.2,.36,3.1,.57,6.27,1.35,9.27,2.57,9.86,9.39,16.61,16.92,22.91,6.96,5.81,14.21,11.37,19.34,19.06,1.62,2.43,3.29,4.83,5.12,7.51,2.23-5.39,2.06-10.42,1.18-15.54-1.79-10.31-7.74-17.86-15.77-24.05-5.69-4.38-11.47-8.65-17.09-13.13-3.47-2.77-6.71-5.84-10.58-9.24Zm-236.24,350.41c3.78,3.67,10.86,6.16,17.18,6.38,9.5,.33,17.77-3.04,25.51-8.19,7.97-5.31,15.99-10.55,23.99-15.81,1.62-1.06,3.27-2.08,5.21-3.3-.72-.34-.99-.5-1.28-.6-9.81-3.44-19.45-3.31-28.78,1.58-3.73,1.95-7.35,4.13-11.04,6.17-6.21,3.42-12.32,7.07-18.72,10.09-3.68,1.74-7.84,2.44-12.08,3.69ZM567.51,59.42c3.16,6.47,6.96,11.94,13,15.35,6.64,3.75,13.98,5.54,21.41,6.62,10.03,1.45,19.82,3.42,28.76,8.46,1.25,.7,2.66,1.11,4.16,1.72-.51-4.25-3.95-10.69-7.19-14.49-7.74-9.08-18.45-11.35-29.42-12.99-6.27-.94-12.59-1.53-18.86-2.45-3.97-.58-7.9-1.48-11.85-2.23Zm-262.27,14.05c1.26,0,1.93,.09,2.56-.01,8.86-1.54,16.24-5.89,21.61-12.95,3.98-5.24,7.28-11.04,10.47-16.82,4.16-7.5,8.74-14.6,15.39-20.18,.97-.81,1.74-1.86,2.88-3.09-5.35-1.2-10.01-.2-14.54,1.39-9.75,3.41-16.37,10.33-21.03,19.31-3.77,7.26-7.39,14.6-11.2,21.83-1.8,3.42-3.88,6.68-6.13,10.52Zm-58.49,288.27l.7-.4c-.33-5.31-.4-10.64-2.71-15.65-3.24-7.02-8.32-12.55-14.25-17.26-8.83-6.99-17.78-13.8-24.03-23.42-.9-1.38-2.06-2.59-3.1-3.88l-.96,.25c-.05,3.91-.37,7.84-.1,11.73,.51,7.29,2.9,13.97,8.21,19.17,4.01,3.92,8.3,7.58,12.69,11.07,6.07,4.83,12.37,9.36,18.53,14.07,1.75,1.34,3.35,2.88,5.02,4.32Zm156.67,113.87l.03-.86c-5.41-4.22-10.93-8.07-18.14-8.85-7.86-.86-15.51,.13-23.06,1.98-8.48,2.08-17,3.31-25.74,2.63-2.41-.19-4.83-.31-7.25-.46l-.22,.72c5.17,6.52,11.64,11.32,19.88,13.15,7.63,1.69,15.3,.49,22.82-1.24,7.14-1.64,14.19-3.68,21.32-5.36,3.4-.8,6.91-1.15,10.36-1.71Zm-28.07-439.67c7.86,1.81,15.11,1.96,22.16-1.4,6.4-3.05,12.2-7.02,17.32-11.86,7.15-6.76,14.95-12.46,24.14-16.16,1.42-.57,2.72-1.47,4.39-2.39-7.48-3.34-14.91-4.49-22.53-2.78-7.97,1.79-14.36,6.64-20.31,11.92-7.52,6.68-14.03,14.48-22.56,20.03-.91,.59-1.57,1.57-2.6,2.63Zm-114.53,380.16c1.79,5.92,4.04,10.84,7.9,14.83,7.34,7.58,16.7,10.64,26.91,11.8,9.18,1.04,18.34,2.24,27.5,3.36,2.04,.25,4.08,.46,6.77,.76-5.46-8.67-11.67-15.35-21.1-17.81-6.93-1.81-14.03-3.11-21.12-4.14-6.76-.98-13.33-2.28-19.42-5.51-2.18-1.15-4.52-2-7.44-3.28Zm15.87-315.19c.92-.22,1.48-.28,1.99-.48,7.69-3.02,14.43-7.57,18.13-15,3.85-7.72,6.79-15.93,9.75-24.06,1.85-5.1,4.05-9.91,7.26-14.28,1.79-2.44,3.46-4.97,5.46-7.85-5.98,.6-11.15,1.82-15.75,4.83-7.79,5.1-12.81,12.33-15.7,21.05-3.66,11.04-7.15,22.13-10.7,33.2-.23,.73-.27,1.53-.45,2.58Zm-42.1,67.32l.88,.41c2.55-2.78,5.3-5.41,7.61-8.38,6.83-8.79,6.66-19.35,6.61-29.62-.05-8.85-.63-17.65,1.99-26.27,.78-2.56,1.23-5.21,1.97-8.37-5.87,2.72-10.16,6.37-13.64,10.95-7,9.2-7.1,19.96-6.62,30.78,.25,5.6,.93,11.18,1.17,16.78,.2,4.57,.04,9.15,.04,13.72Zm459.48,83.88c3.53-8.24,4.54-16.22,2.48-24.42-1.95-7.79-7.06-13.78-12.14-19.65-6.37-7.37-13.78-13.84-19.11-22.11-.56-.87-1.15-1.72-1.73-2.59l-.82,.68c-1.35,5.39-1.91,10.82-.47,16.31,2.35,8.98,7.59,16.29,13.66,23.03,6.03,6.68,11.29,13.81,14.85,22.13,.9,2.11,2.02,4.12,3.27,6.63ZM399.83,8.47c-.64-.29-.91-.46-1.2-.54-6.99-1.97-13.74-.71-20.43,1.47-7.54,2.46-12.58,8.09-17.34,13.95-6.88,8.45-13.54,17.08-20.29,25.64-.58,.73-1.08,1.53-1.68,2.4,4.72,.84,10.26,.17,14.84-1.65,8.62-3.43,14.88-9.77,20.41-16.87,6.6-8.47,13.74-16.31,22.85-22.17,.93-.6,1.75-1.36,2.85-2.24Zm168.66,27.83c-1.01-1.41-1.56-2.32-2.24-3.11-4.54-5.33-10.35-8.71-16.93-10.82-7.19-2.3-14.42-1.15-21.55,.26-8.33,1.65-16.59,3.67-24.91,5.42-2.91,.61-5.89,.89-9.4,1.41,4.27,4.43,8.68,7.23,13.86,8.75,8.15,2.4,16.34,1.84,24.54,.22,8.52-1.68,17.03-3.39,25.8-2.75,3.37,.24,6.75,.39,10.83,.62Zm57.27,76.52c1.21,9.22,4.4,16.77,10.77,22.32,4.88,4.25,10.47,7.79,16.07,11.1,8.71,5.14,17.48,10.1,23.82,18.3,.54,.7,1.4,1.14,2.22,1.78,1.36-9.94-1.51-18.17-7.51-25.51-3.75-4.58-8.44-7.88-13.58-10.62-7.08-3.77-14.22-7.41-21.28-11.21-3.39-1.83-6.65-3.89-10.51-6.16Zm-341.93-47.64c-4.22,.28-11.24,3.91-15.13,7.69-7.74,7.51-10.52,17.15-11.77,27.45-.85,7.04-1.63,14.09-2.58,21.11-.51,3.81-1.29,7.58-2.05,11.96,7.75-4.46,14.25-9.48,16.95-17.51,2.49-7.39,4.21-15.11,5.46-22.82,1.19-7.32,2.57-14.44,6.06-21.05,1.12-2.11,1.96-4.36,3.06-6.84Zm-82.35,149.05c-4.33,5.66-6.48,11.53-6.57,18.06-.12,8.6,2.55,16.4,7.17,23.61,5.84,9.11,11.63,18.25,17.45,27.38,.64,1,1.35,1.96,2.39,3.45,2.77-8.48,4.3-16.48,1.36-24.38-2.26-6.08-5.3-11.95-8.64-17.53-5.17-8.6-10.39-17.09-12.1-27.2-.16-.96-.58-1.88-1.05-3.38Zm33.59,166.98c.17,5.44,1.59,9.85,3.96,13.98,5.33,9.3,13.73,14.51,23.68,17.61,10.87,3.38,21.74,6.76,32.61,10.13,.52,.16,1.06,.23,1.67,.36,.04-.41,.15-.67,.08-.87-3.33-9.5-9.34-16.81-18.57-20.87-7.32-3.22-15.06-5.46-22.47-8.49-4.63-1.89-9.07-4.3-13.47-6.71-2.44-1.34-4.62-3.15-7.49-5.14ZM453.66,24.9c7.8,5.03,15.7,7.41,23.95,5.94,7.49-1.33,14.85-3.84,22.02-6.5,8.45-3.14,16.95-5.48,26.01-5.54,.89,0,1.77-.39,2.66-.59l.21-.79c-2.52-1.82-4.87-3.95-7.58-5.4-10.92-5.85-22.08-5.21-33.24-.65-7.34,3-14.61,6.16-21.96,9.14-3.73,1.51-7.56,2.77-12.06,4.39Zm-88.1,439.41c-5.55-6.43-11.34-11.4-19.19-13.13-8.7-1.92-17.56-1.53-26.41-1.37-4.34,.08-8.74,.07-13.03-.52-4.69-.65-9.29-2.01-14.54-3.21,.77,1.44,1.22,2.36,1.74,3.25,7.82,13.42,20.42,17.4,34.82,16.89,10.87-.39,21.69-2.14,32.62-1.65,1.12,.05,2.25-.14,3.98-.27Zm276.6-60.89c6.21-3.25,11.16-7.11,14.46-12.73,4.45-7.59,5.94-15.97,5.2-24.59-.86-10.11-2.23-20.18-1.93-30.37,.05-1.73-.37-3.47-.62-5.6-4.39,3.66-7.47,7.72-9.98,12.21-4.82,8.6-3.81,18.07-3.91,27.35-.06,5.59,.62,11.23,.11,16.78-.5,5.45-2.07,10.8-3.33,16.96Zm.35-36.93c-.93,.35-1.49,.47-1.95,.75-7.17,4.36-12.66,10.36-15.14,18.34-2.02,6.49-3.13,13.32-4.1,20.08-1.22,8.45-2.39,16.83-6.61,24.45-.83,1.51-1.32,3.2-2.16,5.28,5.67-1.83,10.33-3.92,14.19-7.69,7.85-7.65,11.02-17.18,11.92-27.8,.65-7.64,1.51-15.26,2.36-22.88,.38-3.4,.96-6.78,1.5-10.52Zm-64.26,94.79l.27,.65c3.2-.88,6.56-1.38,9.56-2.7,11.65-5.09,17.9-14.6,21.27-26.49,2.96-10.48,6.24-20.87,9.37-31.3,.22-.73,.36-1.49,.61-2.53-7.54,2.18-13.1,6.4-17.57,12.18-4.13,5.33-6.36,11.56-8.32,17.89-3.41,11.01-7.23,21.83-14.51,31.03-.29,.37-.45,.84-.67,1.27ZM229.28,132.32c-7.63,4.01-16.11,17.57-14.89,28.43,.73,6.46,1.91,12.87,3.17,19.25,1.29,6.54,2.98,13,4.39,19.52,.51,2.34,.73,4.74,1.18,7.75,3.99-4.27,6.9-8.23,8.4-13.04,2.61-8.36,2.01-16.82,.32-25.24-1.8-8.98-4.02-17.89-3.2-27.18,.27-3.04,.4-6.09,.62-9.48Zm214.23,346.74c-4.78-3.18-9.58-5.11-14.95-5.58-8.1-.71-15.78,.96-23.19,4.1-10.21,4.32-20.46,8.42-31.7,9.15-1.46,.1-2.91,.42-4.97,.73,6.8,6.54,14.43,9.25,22.86,9.89,8.03,.61,15.19-2.71,22.35-5.66,9.15-3.77,18.23-7.71,27.34-11.58,.65-.27,1.27-.59,2.25-1.04Zm-244.84-221.34c-3.61,6.23-4.67,17.01-2.2,24.19,3.08,8.98,8.99,16.06,15.64,22.63,3.64,3.59,7.17,7.31,10.6,11.1,2.74,3.04,5.26,6.27,7.88,9.42l.69-.34c1.11-6.75,1.61-13.52-1.17-20.07-3.21-7.55-8.14-14.04-13.74-19.9-6.47-6.78-11.96-14.08-15.43-22.84-.54-1.36-1.4-2.59-2.28-4.19ZM486.2,7.71c-.32-.49-.41-.75-.58-.88-7.02-4.87-14.74-6.92-23.24-5.65-8.28,1.24-15.48,4.99-22.3,9.67-4.49,3.08-9.03,6.1-13.66,8.94-3.99,2.45-8.15,4.62-12.79,7.22,7.97,2.79,15.48,4.95,22.92,2.3,7.34-2.62,14.51-6.02,21.21-9.98,7.96-4.71,15.95-8.95,25.16-10.52,1.04-.18,2.02-.67,3.28-1.1Zm91.56,679.8v60.23h6.05v-27.73c3.78,0,7.33,.13,10.86-.04,2.88-.14,5.8-.36,8.58-1.03,4.59-1.12,8.35-3.58,10.3-8.15,4.27-10.01-.68-20.29-11.4-21.95-7.94-1.23-16.12-.93-24.39-1.32Zm242.09,26.74h-161.07v4.5h161.07v-4.5Zm-737.19-.11v4.64H243.39v-4.64H82.66Z"/><path class="l" d="M0,566.45c8.03-.01,16.06,.02,24.09-.08,1.5-.02,1.92,.62,2.34,1.86,5.4,16.03,10.84,32.05,16.28,48.07,.23,.69,.49,1.38,1,2.83,6.14-17.99,12.06-35.32,17.98-52.66h25.59v80.33h-16.81v-60.72l-.48-.14c-.29,.79-.61,1.58-.87,2.38-6.18,18.82-12.39,37.63-18.49,56.48-.57,1.75-1.35,2.29-3.12,2.22-3.47-.14-6.95-.04-10.7-.04-6.44-20.33-12.88-40.67-19.33-61.01l-.42,.05v60.92H0v-80.5Z"/><path class="n" d="M445.8,749.31c-1.38-.42-2.76-.85-4.15-1.26-13.08-3.86-21.37-14.93-21.88-29.22-.56-15.5,9.29-28.57,23.84-31.65,15.75-3.33,30.6,3.98,36.18,18.19,7.32,18.64-2.38,40.23-23.53,43.53-.19,.03-.35,.27-.52,.42h-9.94Zm5.06-57.25c-14.23,.03-24.5,10.9-24.47,25.89,.03,14.9,10.5,25.86,24.64,25.8,14.11-.05,24.58-11.15,24.53-25.98-.06-14.93-10.45-25.74-24.7-25.71Z"/><path class="q" d="M304.65,749.31c-1.38-.4-2.76-.81-4.14-1.21-13.97-4.06-22.94-17.01-22.06-31.86,.9-15.21,10.31-26.52,24.98-29.22,10.17-1.87,19.77-.34,27.79,7.26-1.56,1.45-3.03,2.83-4.67,4.36-3.26-3.06-7.25-5.32-12.01-6.24-14.55-2.82-28.01,7.31-29.26,22.11-1.01,11.98,3.73,21.88,13.08,26.53,9.01,4.48,17.97,3.11,26.72-1.02,.51-.24,1.02-1.1,1.03-1.68,.07-6.19,.05-12.38,.05-18.8h-14.05v-5.47h20.28v4.94c0,7.45-.05,14.9,.04,22.35,.02,1.47-.43,2.39-1.75,2.83-4.77,1.56-9.55,3.08-14.32,4.62-.43,.14-.84,.34-1.26,.51h-10.44Z"/><path class="h" d="M523.33,749.31c-1.31-.4-2.66-.72-3.94-1.21-7.81-3.01-11.82-8.96-12.94-17.03-.35-2.53-.48-5.11-.49-7.66-.05-11.74-.02-23.49-.02-35.38h6.11c0,.86,0,1.74,0,2.62,0,11.01-.05,22.02,.04,33.03,.02,2.63,.21,5.31,.78,7.87,1.77,7.95,7.68,12.51,15.46,12.19,8.16-.33,13.71-5.34,14.87-13.56,.32-2.28,.45-4.61,.46-6.92,.05-11.67,.02-23.34,.02-35.19h6.07c0,1.07,0,2.05,0,3.03,0,11.09,.08,22.19-.05,33.28-.04,3.28-.31,6.64-1.08,9.82-1.85,7.63-6.76,12.49-14.39,14.53-.51,.14-.98,.39-1.47,.59h-9.44Z"/><path class="m" d="M651.91,259.51c-10.33,0-20.42,.02-30.51,0-15.4-.05-30.8-.1-46.2-.24-1.94-.02-2.88,.48-2.54,2.45,.29,1.65-1.22,4.35,2.39,4.19,2.15-.1,4.31-.08,6.46,.02,3.43,.16,5.28,1.6,5.31,4.97,.08,8.1-.1,16.21-.37,24.31-.12,3.5-2.18,5.95-5.56,6.8-3.18,.8-6.46,1.47-9.73,1.66-8.1,.47-16.23,.8-24.06-2.1-6.75-2.5-12.68-6.38-18.33-10.73-3.47-2.68-6.85-5.48-10.31-8.19-2.38-1.87-3.47-1.6-4.68,1.13-.91,2.04-1.72,4.12-2.58,6.17-.87,2.06-.45,3.75,1.12,5.4,8.55,9,19.3,13.9,31.22,16.11,22.22,4.11,43.44,.75,63.54-9.63,1.57-.81,1.92-1.87,1.87-3.59-.28-9.01-.49-18.02-.51-27.04,0-3.7,1.68-5.28,5.15-5.29,12.42-.05,24.85-.01,37.27,0,.15,0,.3,.1,.44,.16-3.51,81.7-66.68,171.7-171.26,188.9-112.32,18.47-204.19-54.87-230.14-141.78,8.92,0,17.66-.04,26.4,.02,4.3,.03,8.61,.21,12.91,.42,1.63,.08,2.33-.47,2.16-2.1-.03-.33,0-.66,0-.99q0-3.53-3.41-3.54c-.66,0-1.33,.01-1.99,0-4.42-.1-6.54-2.12-5.64-6.38,1.51-7.18,3.25-14.35,5.47-21.34,5.79-18.26,11.88-36.42,17.86-54.62,.12-.38,.33-.72,.74-1.61,.52,1.1,.88,1.77,1.16,2.46,7.5,18.61,14.91,37.25,22.53,55.81,1.71,4.18,3.91,8.2,6.31,12.04,2.27,3.63,4.44,3.81,6.96,.32,3.17-4.4,6.15-9.05,8.41-13.96,8.17-17.78,15.99-35.72,23.95-53.6,.26-.59,.53-1.19,.99-2.22,.43,1.06,.74,1.74,.99,2.46,8.23,24.41,16.45,48.83,24.67,73.24,.29,.86,.59,1.73,.73,2.62,.41,2.78-.92,4.44-3.72,4.76-.33,.04-.66,.02-.99,.03-4.27,.09-5.07,1.06-4.12,5.32,.12,.53,1.08,1.23,1.65,1.24,4.47,.04,8.95,.02,13.41-.17,2.6-.11,4.09-1.92,5.12-4.14,8.13-17.44,16.26-34.88,24.37-52.33,2.45-5.28,4.82-10.6,7.4-16.3,.58,1.16,1,1.93,1.35,2.73,9.75,22.05,19.49,44.11,29.24,66.16,1.27,2.87,2.46,3.52,5.6,3.4,6.13-.23,10.02-3.49,12.11-9.02,3.05-8.11,5.92-16.29,8.93-24.42,5.76-15.56,11.4-31.17,17.41-46.64,3.66-9.41,9.01-17.86,16.63-24.69,15.56-13.95,39.55-14.63,54.54-1.41,7.32,6.46,11.71,14.88,15.18,23.83,1.02,2.63,3.81,3.62,6.13,1.98,.51-.37,.79-1.43,.75-2.15-.53-11.16-1.11-22.33-1.76-33.49-.04-.74-.69-1.95-1.21-2.04-.8-.14-1.91,.31-2.56,.88-.97,.87-1.67,2.04-2.45,3.11-.99,1.37-2.14,1.72-3.6,.71-8.65-5.98-18.51-8.3-28.75-9.04-10.53-.76-21.03-.22-31.31,2.43-15.38,3.97-26.05,13.86-32.88,27.73-4.47,9.08-7.83,18.71-11.55,28.15-3.63,9.22-7.08,18.5-10.74,28.1-.65-1.37-1.18-2.46-1.68-3.57-7.8-17.4-15.54-34.84-23.46-52.19-1.57-3.43-3.67-6.66-5.82-9.77-1.7-2.46-3.22-2.55-4.86-.05-3.26,4.96-6.52,9.98-9.06,15.32-8.22,17.21-16.11,34.58-24.13,51.89-.31,.66-.66,1.31-1.13,2.24-3.33-9.9-6.57-19.53-9.81-29.15-5.29-15.73-10.59-31.45-15.88-47.19-1.65-4.91-.28-6.72,4.96-6.82,1.06-.02,2.93-.32,3.02-.77,.34-1.74,.18-3.59,.02-5.38-.02-.24-1.13-.54-1.73-.53-4.89,.08-9.77,.28-14.65,.34-2.26,.03-2.55,1.89-3.19,3.28-3.92,8.56-7.75,17.16-11.6,25.75-6.58,14.69-13.16,29.39-19.74,44.09-.19,.42-.46,.81-.89,1.55-.73-1.65-1.33-2.98-1.91-4.32-9.45-22-18.91-44-28.35-66-.84-1.96-1.68-3.92-4.25-3.86-2.66,.06-3.59,2.19-4.35,4.18-3.58,9.41-7.06,18.87-10.56,28.31-9.28,25.09-18.52,50.19-27.82,75.27-2.3,6.2-4.27,7.45-10.94,7.45-2.48,0-4.97-.09-7.45,.03-1.58,.08-2.24-.37-2.68-2.02-4.99-18.76-7.19-37.82-6.9-57.22,1.16-77.02,47.57-148.86,117.38-181.73,30.98-14.59,63.57-21.56,97.72-19.69,61.21,3.35,111.51,28.98,150.56,76.17,22.48,27.17,36.49,58.46,42.8,93.15,2.6,14.28,3.64,28.71,3,43.81Z"/><path class="j" d="M581.71,646.91h-14.73c-7.62-26.77-15.24-53.52-22.92-80.49,5.94,0,11.64-.05,17.34,.08,.58,.01,1.48,1.08,1.66,1.8,3.86,15.81,7.63,31.64,11.42,47.46,.15,.62,.37,1.22,.71,2.3,3.85-12.28,7.54-24.09,11.24-35.89,1.48-4.73,2.91-9.47,4.51-14.16,.23-.67,1.26-1.51,1.94-1.53,4.71-.13,9.43-.07,14.37-.07,5.31,17.52,10.62,35.02,15.92,52.52h.44c4.27-17.42,8.54-34.82,12.85-52.36h17.29c-7.52,26.81-15.02,53.51-22.53,80.29h-15.3c-5.61-18.34-11.23-36.69-16.84-55.04l-.51-.02c-5.6,18.31-11.2,36.62-16.86,55.1Z"/><path class="m" d="M430.95,566.42c7.42,0,14.7-.06,21.97,.09,.75,.01,1.71,1.07,2.18,1.88,10.08,17.08,20.11,34.2,30.15,51.3,.45,.76,.92,1.5,1.71,2.77v-55.9h16.92v80.28c-.5,.04-1.12,.14-1.75,.14-5.96,.01-11.93-.1-17.89,.07-1.97,.05-2.87-.68-3.81-2.28-10.3-17.62-20.68-35.2-31.04-52.79-.37-.63-.76-1.25-1.5-2.46v57.35h-16.95v-80.45Z"/><path class="j" d="M182.42,610.85c-.18,9.67-4.44,21.4-15.5,29.98-16.61,12.89-48.94,11.76-61.65-10.39-8.91-15.53-8.69-31.58-.17-47.3,3.87-7.13,9.95-12.13,17.45-15.21,11.77-4.84,23.74-4.97,35.54-.33,15.53,6.11,24.38,20.68,24.33,43.26Zm-17.65-4.92c-.19-1.54-.33-3.95-.81-6.29-2.15-10.51-10.57-18.1-20.68-18.77-11.98-.79-21.42,4.84-24.79,15.54-1.31,4.16-1.9,8.83-1.57,13.17,1.59,20.87,20.51,27,34.03,20.87,9.98-4.53,13.49-13.25,13.81-24.51Z"/><path class="k" d="M304.8,599.3h29.98c.05,.63,.13,1.18,.13,1.74,0,12.75,.03,25.51-.05,38.26,0,.88-.5,2.25-1.16,2.57-15.15,7.27-30.98,10.01-47.13,4.43-15.85-5.47-23.77-17.73-25.59-34.04-.99-8.85-.03-17.54,3.94-25.66,6.76-13.85,18.29-20.73,33.28-22.03,8.39-.73,16.78-.04,24.59,3.41,3.71,1.64,7.07,4.08,10.85,6.31-4.42,5.03-8.34,9.5-12.38,14.09-3.71-3.65-7.87-6.27-13.07-7.13-20.24-3.35-31.28,11.5-29.63,28.61,.94,9.77,5.32,17.46,14.82,21.12,8.16,3.14,16.27,1.94,24.02-1.83,.52-.25,1.04-1.09,1.06-1.66,.09-3.87,.05-7.74,.05-11.78h-13.71v-16.39Z"/><path class="i" d="M236.47,612.97c6.59,11.41,13.01,22.54,19.64,34.02-6.75,0-13.16,.05-19.57-.08-.61-.01-1.4-.97-1.75-1.67-4.78-9.43-9.55-18.87-14.2-28.36-.81-1.65-1.74-2.33-3.59-2.16-1.87,.18-3.76,.04-5.84,.04v32.08h-17.06v-80.31c.66-.04,1.22-.12,1.78-.12,10.02,0,20.04-.15,30.06,.11,3.92,.1,7.93,.75,11.7,1.83,8.48,2.42,13.83,8.14,14.98,16.95,.55,4.18,.45,8.67-.46,12.77-1.78,8.03-7.06,13.07-15.68,14.89Zm-25.24-13.62c5.61,0,10.99,.33,16.32-.09,5.21-.41,7.75-3.43,7.9-8.16,.16-4.77-2.42-8.38-7.39-9.01-5.52-.7-11.14-.63-16.83-.89v18.16Z"/><path class="m" d="M678.55,646.87h-17.02v-80.33h16.88v29.75h33.12v-29.72h16.9v80.31h-16.77v-34.56h-33.11v34.55Z"/><path class="j" d="M857.27,630.57h37.18v16.3h-54.29v-80.25h52.29v16.18h-35.19v14.94h33.21v16.42h-33.2v16.41Z"/><path class="i" d="M422.73,646.94h-18.95c-1.89-4.84-3.87-9.71-5.68-14.64-.62-1.69-1.39-2.41-3.33-2.38-8.53,.12-17.06,.1-25.59,.01-1.58-.02-2.33,.45-2.86,1.94-1.8,5.04-3.74,10.03-5.63,15.05h-18.8c1.1-2.69,2.13-5.26,3.19-7.81,9.74-23.49,19.5-46.97,29.19-70.48,.7-1.69,1.51-2.39,3.41-2.28,3.39,.19,6.79-.01,10.18,.11,.7,.03,1.75,.59,2,1.18,11.03,26.26,21.99,52.55,32.95,78.84,.03,.06-.03,.16-.09,.45Zm-40.88-57.02c-3.19,8.48-6.21,16.54-9.29,24.74h18.6c-.17-.51-.26-.82-.37-1.12-2.92-7.71-5.84-15.42-8.94-23.62Z"/><path class="i" d="M830.71,566.57v15.5h-21.92v64.73h-17.14v-64.64h-21.95v-15.6h61.01Z"/><path class="n" d="M744.21,566.49h16.87v80.32h-16.87v-80.32Z"/><path class="p" d="M367.14,720v27.66h-6.09v-59.79c5.26,0,10.46-.09,15.65,.03,3.21,.08,6.48,.17,9.62,.78,8.71,1.71,12.9,6.99,12.79,15.62-.1,7.85-4.94,13.23-13.29,14.81-.55,.1-1.07,.29-1.81,.5,5.69,9.38,11.28,18.61,17.11,28.22-2.45,0-4.57,.14-6.65-.08-.67-.07-1.43-.96-1.84-1.65-4.83-8.09-9.63-16.19-14.35-24.34-.76-1.31-1.56-1.87-3.1-1.79-2.55,.14-5.12,.04-8.03,.04Zm.14-25.99v19.92c5.4,0,10.71,.46,15.91-.12,6.04-.68,9.26-4.52,9.34-9.75,.08-5.33-3.09-9.2-9.34-9.92-5.19-.6-10.5-.12-15.9-.12Z"/><path class="f" d="M539.81,481.09c2.9-3.26,5.81-6.52,8.71-9.78,5.42-6.07,8.43-13.59,12.26-20.61,4-7.34,8.66-14.09,15.76-18.8,4.27-2.83,9.05-4.24,14.43-4.9-.28,.82-.38,1.47-.7,1.96-5.18,7.92-8.85,16.59-12.87,25.1-2.38,5.05-5.43,9.84-8.55,14.49-5.28,7.88-13.42,11.16-22.32,12.9-2.12,.41-4.34,.35-6.51,.5l-.22-.87Z"/><path class="f" d="M670.22,292.03c.64,3.47,1.11,6.99,1.96,10.41,1.64,6.64,3.55,13.21,5.23,19.84,2.16,8.54,3.8,17.17,1.44,25.92-2.05,7.58-6.53,13.61-13.28,18.79,0-1.45-.1-2.39,.02-3.3,1.39-10.66-.16-21.01-2.75-31.37-1.39-5.56-1.86-11.4-2.26-17.14-.64-9.05,3.56-16.39,9.66-23.14Z"/><path class="f" d="M558.42,449.68c-1.6,2.03-2.66,3.71-4.03,5.08-6.25,6.26-10.44,14.03-15.61,21.09-4.16,5.68-8.76,11.05-14.83,14.83-7.7,4.78-16.1,5.56-24.84,4-.3-.05-.57-.27-1.11-.54,1.39-1.16,2.55-2.35,3.9-3.23,8.33-5.41,14.55-12.81,20.48-20.65,3.67-4.84,8.06-9.2,12.53-13.34,6.37-5.9,14.32-7.5,23.53-7.24Z"/><path class="f" d="M521.52,466.62c-1.68,1.53-3.23,3.23-5.05,4.57-7.63,5.65-13.61,13.01-20.48,19.44-5.82,5.44-12.41,9.58-20.27,11.47-7.22,1.73-14.04,.3-21.09-2.59,.8-.54,1.29-.9,1.82-1.21,.72-.41,1.44-.83,2.2-1.14,8.56-3.48,15.7-8.93,22.36-15.27,4.41-4.2,9.38-7.85,14.36-11.39,6.39-4.55,13.7-5.9,21.45-5.06,1.49,.16,2.99,.3,4.49,.45,.07,.24,.15,.49,.22,.73Z"/><path class="f" d="M211.73,172.02c.43,3.99,.79,7.67,1.24,11.34,1.12,9.05,5.03,17.23,8.15,25.65,2.42,6.56,4.43,13.17,3.97,20.26-.39,6.18-2.18,11.92-5.96,17.39-.46-.98-.78-1.61-1.05-2.26-4.27-10.38-8.63-20.73-12.77-31.16-2.25-5.67-4.29-11.43-4.04-17.74,.35-8.93,4.41-18.52,10.45-23.48Z"/><path class="f" d="M674.89,253.88c.14,.8,.14,1.65,.44,2.38,2.86,6.76,5.61,13.57,8.72,20.21,3.41,7.28,6.8,14.6,7.89,22.6,1.42,10.43-2.35,19.34-9.39,27.8-.89-5.46-1.69-10.21-2.44-14.97-1.19-7.54-4.83-14.19-7.69-21.12-2.7-6.54-4.62-13.29-4.81-20.37-.17-6.26,1.8-12.04,5.1-17.34,.21-.34,.79-.44,1.2-.65l-.03-.03,.53,.53-.02-.03c.17,.34,.34,.68,.52,1.03l-.02-.03Z"/><path class="f" d="M660.08,127.03c-1.36-.81-2.34-1.23-3.12-1.89-7.55-6.33-16.37-10.04-25.62-13.16-7.42-2.5-14.9-5.22-21.09-10.25-5.59-4.55-8.98-10.67-11.64-17.9,1.24,.3,2,.43,2.73,.67,10.96,3.64,21.96,7.19,32.87,10.99,8.29,2.88,15.53,7.44,20.57,14.83,3.3,4.84,5,10.28,5.31,16.72Z"/><path class="f" d="M215.59,342.55c2.46,2.34,4.56,4.29,6.61,6.3,6.54,6.41,14.65,10.43,22.54,14.76,5.52,3.03,10.89,6.24,15.34,10.83,4.82,4.97,7.83,10.8,9.14,17.55,.15,.76,.09,1.57,.15,2.88-2-1.12-3.54-2.04-5.13-2.86-8.67-4.46-17.38-8.82-26.01-13.37-6.91-3.64-13.55-7.66-17.63-14.76-3.31-5.76-5.63-11.77-5.38-18.54,.03-.78,.19-1.55,.36-2.79Z"/><path class="f" d="M647.68,146.53c3.87,3.4,7.11,6.47,10.58,9.24,5.61,4.48,11.4,8.74,17.09,13.13,8.03,6.19,13.98,13.74,15.77,24.05,.89,5.12,1.05,10.15-1.18,15.54-1.83-2.68-3.49-5.08-5.12-7.51-5.14-7.69-12.39-13.25-19.34-19.06-7.53-6.29-14.35-13.05-16.92-22.91-.78-3.01-1-6.17-1.35-9.27-.1-.84,.24-1.72,.47-3.2Z"/><path class="f" d="M411.44,496.94c4.23-1.25,8.4-1.95,12.08-3.69,6.4-3.02,12.51-6.67,18.72-10.09,3.69-2.03,7.31-4.21,11.04-6.17,9.33-4.89,18.97-5.02,28.78-1.58,.29,.1,.55,.26,1.28,.6-1.94,1.23-3.59,2.24-5.21,3.3-8.01,5.26-16.02,10.5-23.99,15.81-7.74,5.15-16.01,8.52-25.51,8.19-6.32-.22-13.4-2.71-17.18-6.38Z"/><path class="f" d="M567.51,59.42c3.95,.75,7.88,1.65,11.85,2.23,6.27,.92,12.59,1.51,18.86,2.45,10.97,1.64,21.68,3.91,29.42,12.99,3.24,3.8,6.68,10.24,7.19,14.49-1.5-.61-2.91-1.02-4.16-1.72-8.94-5.05-18.73-7.01-28.76-8.46-7.43-1.08-14.77-2.87-21.41-6.62-6.04-3.41-9.84-8.89-13-15.35Z"/><path class="f" d="M305.24,73.47c2.25-3.84,4.34-7.1,6.13-10.52,3.81-7.24,7.43-14.58,11.2-21.83,4.66-8.97,11.28-15.89,21.03-19.31,4.53-1.59,9.19-2.59,14.54-1.39-1.13,1.23-1.91,2.27-2.88,3.09-6.65,5.58-11.23,12.67-15.39,20.18-3.2,5.77-6.49,11.58-10.47,16.82-5.37,7.06-12.75,11.41-21.61,12.95-.63,.11-1.29,.01-2.56,.01Z"/><path class="f" d="M246.75,361.74c-1.67-1.45-3.27-2.98-5.02-4.32-6.16-4.71-12.46-9.25-18.53-14.07-4.39-3.49-8.68-7.15-12.69-11.07-5.31-5.19-7.7-11.88-8.21-19.17-.27-3.89,.05-7.82,.1-11.73l.96-.25c1.04,1.29,2.2,2.5,3.1,3.88,6.25,9.63,15.2,16.43,24.03,23.42,5.94,4.7,11.02,10.24,14.25,17.26,2.31,5.01,2.39,10.34,2.71,15.65l-.7,.4Z"/><path class="f" d="M403.42,475.61c-3.46,.56-6.96,.91-10.36,1.71-7.13,1.67-14.18,3.72-21.32,5.36-7.51,1.73-15.18,2.93-22.82,1.24-8.24-1.83-14.71-6.63-19.88-13.15l.22-.72c2.42,.15,4.84,.27,7.25,.46,8.74,.68,17.25-.55,25.74-2.63,7.55-1.85,15.2-2.84,23.06-1.98,7.21,.79,12.73,4.63,18.14,8.85l-.03,.86Z"/><path class="f" d="M375.35,35.94c1.03-1.07,1.69-2.04,2.6-2.63,8.53-5.55,15.04-13.36,22.56-20.03,5.96-5.29,12.35-10.13,20.31-11.92,7.62-1.71,15.05-.56,22.53,2.78-1.67,.92-2.97,1.82-4.39,2.39-9.19,3.7-16.98,9.4-24.14,16.16-5.12,4.84-10.93,8.81-17.32,11.86-7.05,3.36-14.29,3.21-22.16,1.4Z"/><path class="f" d="M260.82,416.1c2.92,1.28,5.26,2.13,7.44,3.28,6.1,3.23,12.66,4.53,19.42,5.51,7.1,1.03,14.19,2.33,21.12,4.14,9.43,2.47,15.64,9.14,21.1,17.81-2.68-.3-4.73-.51-6.77-.76-9.17-1.12-18.33-2.32-27.5-3.36-10.21-1.16-19.56-4.22-26.91-11.8-3.87-3.99-6.12-8.91-7.9-14.83Z"/><path class="f" d="M276.69,100.91c.18-1.05,.22-1.85,.45-2.58,3.54-11.07,7.04-22.16,10.7-33.2,2.89-8.72,7.91-15.95,15.7-21.05,4.59-3.01,9.76-4.23,15.75-4.83-2,2.89-3.67,5.42-5.46,7.85-3.21,4.37-5.41,9.18-7.26,14.28-2.96,8.13-5.9,16.33-9.75,24.06-3.7,7.43-10.44,11.98-18.13,15-.51,.2-1.07,.26-1.99,.48Z"/><path class="f" d="M234.59,168.23c0-4.57,.16-9.16-.04-13.72-.24-5.6-.92-11.18-1.17-16.78-.48-10.82-.38-21.58,6.62-30.78,3.48-4.58,7.78-8.23,13.64-10.95-.73,3.16-1.19,5.81-1.97,8.37-2.62,8.63-2.03,17.42-1.99,26.27,.05,10.27,.22,20.83-6.61,29.62-2.31,2.97-5.06,5.59-7.61,8.38l-.88-.41Z"/><path class="f" d="M694.06,252.1c-1.25-2.51-2.37-4.52-3.27-6.63-3.57-8.31-8.83-15.44-14.85-22.13-6.07-6.74-11.31-14.05-13.66-23.03-1.44-5.49-.88-10.92,.47-16.31l.82-.68c.58,.86,1.17,1.71,1.73,2.59,5.33,8.27,12.74,14.74,19.11,22.11,5.08,5.88,10.18,11.86,12.14,19.65,2.06,8.2,1.05,16.18-2.48,24.42Z"/><path class="f" d="M399.83,8.47c-1.1,.87-1.92,1.64-2.85,2.24-9.11,5.86-16.25,13.7-22.85,22.17-5.53,7.1-11.79,13.44-20.41,16.87-4.58,1.82-10.12,2.49-14.84,1.65,.6-.87,1.1-1.67,1.68-2.4,6.75-8.56,13.41-17.18,20.29-25.64,4.76-5.85,9.8-11.49,17.34-13.95,6.69-2.18,13.45-3.44,20.43-1.47,.29,.08,.56,.25,1.2,.54Z"/><path class="f" d="M568.48,36.31c-4.08-.23-7.46-.38-10.83-.62-8.77-.63-17.28,1.07-25.8,2.75-8.2,1.62-16.39,2.18-24.54-.22-5.18-1.52-9.6-4.32-13.86-8.75,3.51-.51,6.49-.79,9.4-1.41,8.31-1.75,16.57-3.77,24.91-5.42,7.14-1.41,14.37-2.57,21.55-.26,6.58,2.11,12.39,5.49,16.93,10.82,.68,.79,1.23,1.7,2.24,3.11Z"/><path class="f" d="M625.76,112.82c3.86,2.27,7.12,4.34,10.51,6.16,7.06,3.8,14.2,7.44,21.28,11.21,5.14,2.74,9.83,6.04,13.58,10.62,6.01,7.34,8.88,15.57,7.51,25.51-.82-.64-1.68-1.09-2.22-1.78-6.34-8.2-15.1-13.16-23.82-18.3-5.6-3.31-11.19-6.85-16.07-11.1-6.37-5.54-9.56-13.09-10.77-22.32Z"/><path class="f" d="M283.83,65.18c-1.1,2.48-1.95,4.73-3.06,6.84-3.5,6.61-4.88,13.73-6.06,21.05-1.25,7.71-2.97,15.43-5.46,22.82-2.7,8.03-9.2,13.05-16.95,17.51,.76-4.38,1.54-8.15,2.05-11.96,.94-7.03,1.73-14.07,2.58-21.11,1.24-10.3,4.03-19.94,11.77-27.45,3.89-3.78,10.91-7.41,15.13-7.69Z"/><path class="f" d="M201.48,214.23c.48,1.5,.89,2.42,1.05,3.38,1.71,10.11,6.93,18.6,12.1,27.2,3.35,5.57,6.39,11.45,8.64,17.53,2.93,7.9,1.41,15.9-1.36,24.38-1.04-1.49-1.75-2.45-2.39-3.45-5.82-9.12-11.61-18.27-17.45-27.38-4.62-7.2-7.29-15-7.17-23.61,.09-6.53,2.25-12.4,6.57-18.06Z"/><path class="f" d="M235.07,381.21c2.87,2,5.05,3.81,7.49,5.14,4.4,2.41,8.83,4.82,13.47,6.71,7.41,3.02,15.15,5.27,22.47,8.49,9.24,4.06,15.24,11.38,18.57,20.87,.07,.2-.04,.46-.08,.87-.61-.13-1.15-.2-1.67-.36-10.87-3.37-21.74-6.75-32.61-10.13-9.95-3.1-18.35-8.3-23.68-17.61-2.37-4.13-3.78-8.54-3.96-13.98Z"/><path class="f" d="M453.66,24.9c4.5-1.63,8.33-2.89,12.06-4.39,7.35-2.98,14.62-6.14,21.96-9.14,11.16-4.56,22.32-5.2,33.24,.65,2.71,1.45,5.06,3.58,7.58,5.4l-.21,.79c-.89,.21-1.77,.59-2.66,.59-9.06,.06-17.56,2.4-26.01,5.54-7.17,2.66-14.52,5.17-22.02,6.5-8.26,1.46-16.15-.91-23.95-5.94Z"/><path class="f" d="M365.55,464.31c-1.73,.12-2.86,.32-3.98,.27-10.93-.49-21.75,1.26-32.62,1.65-14.4,.51-27-3.48-34.82-16.89-.52-.89-.97-1.82-1.74-3.25,5.25,1.19,9.85,2.56,14.54,3.21,4.29,.59,8.68,.6,13.03,.52,8.84-.16,17.71-.54,26.41,1.37,7.85,1.73,13.65,6.7,19.19,13.13Z"/><path class="f" d="M642.16,403.42c1.26-6.16,2.83-11.51,3.33-16.96,.51-5.54-.17-11.18-.11-16.78,.1-9.28-.91-18.75,3.91-27.35,2.52-4.49,5.59-8.55,9.98-12.21,.25,2.14,.67,3.88,.62,5.6-.3,10.19,1.07,20.26,1.93,30.37,.74,8.62-.75,17-5.2,24.59-3.3,5.63-8.25,9.48-14.46,12.73Z"/><path class="f" d="M642.51,366.49c-.54,3.74-1.12,7.12-1.5,10.52-.85,7.62-1.71,15.24-2.36,22.88-.9,10.62-4.07,20.15-11.92,27.8-3.86,3.76-8.52,5.86-14.19,7.69,.84-2.07,1.33-3.77,2.16-5.28,4.22-7.62,5.38-16.01,6.61-24.45,.98-6.76,2.08-13.58,4.1-20.08,2.48-7.98,7.97-13.98,15.14-18.34,.46-.28,1.02-.4,1.95-.75Z"/><path class="f" d="M578.25,461.28c.22-.43,.38-.9,.67-1.27,7.28-9.2,11.1-20.02,14.51-31.03,1.96-6.33,4.19-12.56,8.32-17.89,4.47-5.78,10.03-9.99,17.57-12.18-.25,1.05-.39,1.8-.61,2.53-3.13,10.43-6.4,20.82-9.37,31.3-3.36,11.89-9.61,21.4-21.27,26.49-3.01,1.31-6.37,1.82-9.56,2.7l-.27-.65Z"/><path class="f" d="M229.28,132.32c-.22,3.4-.36,6.44-.62,9.48-.81,9.29,1.4,18.2,3.2,27.18,1.69,8.42,2.28,16.88-.32,25.24-1.5,4.81-4.41,8.78-8.4,13.04-.45-3.01-.67-5.41-1.18-7.75-1.42-6.52-3.1-12.98-4.39-19.52-1.26-6.38-2.44-12.8-3.17-19.25-1.22-10.86,7.26-24.41,14.89-28.43Z"/><path class="f" d="M443.51,479.06c-.98,.45-1.61,.77-2.25,1.04-9.11,3.87-18.19,7.81-27.34,11.58-7.17,2.95-14.32,6.27-22.35,5.66-8.43-.64-16.06-3.34-22.86-9.89,2.05-.31,3.5-.63,4.97-.73,11.24-.73,21.5-4.84,31.7-9.15,7.41-3.13,15.09-4.8,23.19-4.1,5.37,.47,10.17,2.4,14.95,5.58Z"/><path class="f" d="M198.67,257.72c.88,1.6,1.74,2.83,2.28,4.19,3.46,8.76,8.96,16.06,15.43,22.84,5.6,5.87,10.53,12.35,13.74,19.9,2.78,6.54,2.28,13.31,1.17,20.07l-.69,.34c-2.62-3.15-5.14-6.39-7.88-9.42-3.43-3.79-6.96-7.51-10.6-11.1-6.65-6.57-12.56-13.65-15.64-22.63-2.46-7.17-1.41-17.96,2.2-24.19Z"/><path class="f" d="M486.2,7.71c-1.26,.43-2.24,.92-3.28,1.1-9.21,1.57-17.2,5.81-25.16,10.52-6.71,3.97-13.88,7.37-21.21,9.98-7.44,2.65-14.95,.5-22.92-2.3,4.64-2.6,8.8-4.77,12.79-7.22,4.64-2.85,9.18-5.86,13.66-8.94,6.82-4.68,14.02-8.43,22.3-9.67,8.5-1.27,16.22,.79,23.24,5.65,.18,.12,.26,.38,.58,.88Z"/><path class="f" d="M603.84,60.59c-2.18-.37-4.43-.52-6.54-1.14-7.69-2.26-15.49-3.16-23.5-2.82-8.1,.34-16.18,.14-24.12-1.97-7.68-2.03-13.04-7-18.01-13.34,4.57,0,8.67,.1,12.76-.03,5.34-.17,10.69-.47,16.02-.8,8.38-.53,16.83-.62,24.74,2.34,8.56,3.2,15.05,9.09,18.63,17.77h.01Z"/><path class="o" d="M577.76,687.51c8.27,.39,16.45,.09,24.39,1.32,10.72,1.66,15.68,11.94,11.4,21.95-1.95,4.57-5.71,7.03-10.3,8.15-2.78,.68-5.71,.89-8.58,1.03-3.53,.17-7.08,.04-10.86,.04v27.73h-6.05v-60.23Zm6.15,26.48c5.05,0,9.85,.38,14.57-.09,6.1-.61,9.51-4.38,9.69-9.69,.18-5.31-3.02-9.28-9.2-10.03-4.92-.6-9.98-.12-15.07-.12v19.94Z"/><path class="g" d="M819.85,714.25v4.5h-161.07v-4.5h161.07Z"/><path class="g" d="M82.66,714.13H243.39v4.64H82.66v-4.64Z"/><path class="f" d="M673.92,252.42c-.5-1.03-.96-2.08-1.5-3.09-3.03-5.57-5.48-11.35-5.67-17.79-.12-4.21,.57-8.33,2.4-12.86,1.39,2.27,2.39,4.15,3.61,5.88,4.74,6.67,9.63,13.22,14.3,19.93,3.6,5.16,7.04,10.49,8.37,16.76,1.73,8.18,.06,15.88-4.03,23.91-1.18-3.16-2.24-5.71-3.1-8.32-2.83-8.62-7.78-15.98-13.4-22.95l.02,.03c-.17-.34-.34-.68-.52-1.03l.02,.03-.53-.53,.03,.03Z"/><path class="f" d="M603.83,60.6c.06,.02,.12,.03,.17,.07,.03,.02,.02,.08,.02,.13l-.17-.21h-.01Z"/><path class="e" d="M450.85,692.06c14.25-.03,24.64,10.78,24.7,25.71,.06,14.83-10.41,25.93-24.53,25.98-14.14,.05-24.61-10.91-24.64-25.8-.03-14.98,10.24-25.85,24.47-25.89Z"/><path class="e" d="M164.77,605.94c-.32,11.26-3.83,19.98-13.81,24.51-13.52,6.14-32.44,0-34.03-20.87-.33-4.34,.26-9.01,1.57-13.17,3.37-10.7,12.81-16.33,24.79-15.54,10.1,.67,18.52,8.26,20.68,18.77,.48,2.34,.62,4.74,.81,6.29Z"/><path class="b" d="M211.23,599.34v-18.16c5.68,.27,11.3,.19,16.83,.89,4.98,.63,7.55,4.24,7.39,9.01-.16,4.74-2.69,7.75-7.9,8.16-5.32,.42-10.71,.09-16.32,.09Z"/><path class="d" d="M381.85,589.92c3.1,8.2,6.02,15.91,8.94,23.62,.11,.3,.2,.61,.37,1.12h-18.6c3.08-8.2,6.11-16.26,9.29-24.74Z"/><path class="b" d="M367.28,694.02c5.4,0,10.71-.48,15.9,.12,6.25,.73,9.43,4.59,9.34,9.92-.08,5.22-3.3,9.07-9.34,9.75-5.19,.58-10.51,.12-15.91,.12v-19.92Z"/><path class="c" d="M674.4,252.88c.17,.34,.34,.68,.52,1.03-.17-.34-.34-.68-.52-1.03Z"/><path class="c" d="M673.89,252.39c.18,.18,.35,.35,.53,.53l-.53-.53Z"/><path class="b" d="M583.91,713.99v-19.94c5.09,0,10.15-.48,15.07,.12,6.18,.75,9.38,4.72,9.2,10.03-.18,5.31-3.6,9.08-9.69,9.69-4.72,.47-9.53,.09-14.57,.09Z"/></svg>