<?xml version="1.0" encoding="UTF-8"?><svg id="Logos" xmlns="http://www.w3.org/2000/svg" viewBox="0 0 197 166"><defs><style>.cls-1{fill:#fff;}</style></defs><path class="cls-1" d="M139.1925,29.28503h0l-.00172,50.96503c0,1.12858-.79826,2.5112-1.77602,3.07321l-1.66592,.96514-12.69997,7.33004-8.57847,4.95302-1.77488,1.02536V42.53093L65.01186,15.00001,87.66203,1.9267h.00115l2.07078-1.19567c.9749-.56314,2.57601-.56314,3.55205,0l31.42018,18.13986,14.48631,8.36457v2.04957Zm-37.10322,19.36134l-9.77931-5.64864-22.87783-13.2092c-.97604-.56601-2.57199-.56601-3.54975,0l-20.29323,11.71591h-.00229l-1.77315,1.02535,34.44177,19.8855,.00402,39.7704,20.27429-11.70845,1.77947-1.03052c.97775-.56429,1.77832-1.94692,1.77832-3.07607l-.00229-35.67357v-2.05072Zm-58.27557,33.65382l23.83036,13.7649v-27.53609l-23.83036,13.7712Z"/><g><path class="cls-1" d="M13.3987,118.85948H.27599v35.53794H6.09865v-13.94729h7.34797c7.95088,0,12.33011-3.8841,12.33011-10.93957,0-3.20232-1.20785-10.65108-12.37803-10.65108Zm6.45753,10.74893c0,4.00784-2.0793,5.64196-7.17825,5.64196H6.09865v-11.14325h7.34797c4.31534,0,6.40961,1.80082,6.40961,5.50128Zm23.25274-1.10308l.44021,.21264-.98824,5.2527-.67979-.20965c-.55701-.17169-1.12301-.25851-1.68203-.25851-5.43934,0-5.88355,4.33228-5.88355,9.572v11.32292h-5.39242v-26.09669h5.05603v3.1484c1.37555-2.11727,3.04059-3.21031,5.23071-3.47881,1.43546-.16572,2.83397,.02992,3.89909,.535Zm13.25448-.7307c-4.24447,0-7.64244,1.61615-9.83155,4.67274-2.29792,3.21031-2.63832,6.98461-2.63832,8.94811,0,8.24739,4.89232,13.57491,12.46987,13.57491,9.20665,0,12.47286-7.41683,12.47286-13.76658,0-3.65349-1.08308-6.96859-3.0446-9.3364-2.22205-2.67726-5.48326-4.09277-9.42826-4.09277Zm0,22.37929c-4.21952,0-6.84086-3.35702-6.84086-8.75844,0-5.4593,2.62134-8.85227,6.84086-8.85227,4.18657,0,6.88976,3.43488,6.88976,8.75741,0,5.45937-2.64131,8.85331-6.88976,8.85331Zm57.78642-21.64859l.44023,.21264-.99125,5.2527-.68077-.20965c-.55404-.17169-1.12002-.25851-1.68104-.25851-5.43835,0-5.87955,4.33228-5.87955,9.572v11.32292h-5.39244v-26.09669h5.05703v3.1484c1.37454-2.11727,3.04059-3.21031,5.23071-3.47881,1.43447-.16572,2.83097,.02992,3.89708,.535Zm19.36465,17.5259l-.09983,.28648c-1.12502,3.20836-3.81522,3.88111-5.87656,3.88111-4.07976,0-6.70612-2.70815-6.96164-7.10738h18.45123l.0679-.51209c.08186-.60391,.06787-1.45439,.05889-2.07627-.00101-.16974-.006-.32243-.006-.47121-.26951-7.30503-5.03105-12.21227-11.84997-12.21227-3.98292,0-7.24812,1.56418-9.44323,4.52791-1.77386,2.39675-2.79305,5.71288-2.79305,9.09586,0,8.06369,5.01512,13.48309,12.47587,13.48309,5.77174,0,9.74668-2.93376,11.19613-8.25835l.17367-.63687h-5.39341Zm-12.75937-7.62045c.45321-3.61559,2.9298-5.91352,6.44757-5.91352,2.68822,0,5.87056,1.5632,6.31579,5.91352h-12.76336Zm-30.60967-7.91996c-1.73989-1.80381-4.06478-2.71619-6.93767-2.71619-7.91096,0-11.51257,6.96164-11.51257,13.42917,0,6.63721,3.55968,13.33534,11.51257,13.33534,2.65328,0,5.02407-.97623,6.73204-2.73215-.01898,1.14896-.04892,2.24601-.08085,2.71217-.29349,4.30541-2.36181,6.30985-6.50845,6.30985-2.25599,0-4.8444-.80058-5.3445-3.04861l-.10981-.49613-5.31357,.00097,.08585,.71175c.556,4.60084,4.59583,7.45978,10.53929,7.45978,5.21572,0,8.92715-1.96551,10.73095-5.67992,.87043-1.78985,1.31066-4.39917,1.31066-7.75126v-23.72486h-5.10395v2.19008Zm-6.60027,19.23289c-1.88566,0-6.26589-.8545-6.26589-8.7585,0-5.19476,2.45565-8.422,6.40763-8.422,3.05359,0,6.31577,2.21208,6.31577,8.422,0,5.48227-2.41469,8.7585-6.45752,8.7585Zm80.5141-3.1824c0,4.14968-3.44491,8.33725-11.14124,8.33725-6.80591,0-10.85674-2.94777-11.40076-8.29729l-.05791-.55005h5.30659l.08085,.39932c.65085,3.21628,3.71442,3.8911,6.17206,3.8911,2.69121,0,5.56712-.86845,5.56712-3.30017,0-1.2328-.80259-2.10722-2.38276-2.60037-.93834-.2785-2.09031-.60293-3.30913-.94333-2.09927-.58697-4.27144-1.19886-5.60806-1.65904-3.31013-1.18588-5.20975-3.49483-5.20975-6.33477,0-5.26166,5.1229-7.61746,10.1969-7.61746,6.78697,0,10.29871,2.55644,10.73994,7.8131l.0449,.54207-5.2297-.00402-.07287-.41424c-.52607-3.02661-3.53474-3.47881-5.28362-3.47881-1.50834,0-5.0181,.26948-5.0181,2.77108,0,1.13696,.97127,1.97245,2.97074,2.55242,.59593,.16773,1.48437,.39536,2.50952,.66088,2.12925,.55102,4.78152,1.23877,6.11616,1.69999,3.32509,1.16888,5.00912,3.36597,5.00912,6.53235Zm24.9048,0c0,4.14968-3.44491,8.33725-11.13825,8.33725-6.80792,0-10.85872-2.94777-11.40277-8.29729l-.05688-.55005h5.30757l.07887,.39932c.64985,3.21628,3.71539,3.8911,6.17303,3.8911,2.69121,0,5.56514-.86845,5.56514-3.30017,0-1.2328-.80259-2.10722-2.38078-2.60037-.94035-.2785-2.09229-.60293-3.31211-.94333-2.09629-.58697-4.26843-1.19886-5.60407-1.65904-3.31111-1.18588-5.20975-3.49483-5.20975-6.33477,0-5.26166,5.12092-7.61746,10.19589-7.61746,6.78697,0,10.29773,2.55644,10.73796,7.8131l.04591,.54207-5.22873-.00402-.07287-.41424c-.52705-3.02661-3.53374-3.47881-5.28463-3.47881-1.50633,0-5.0171,.26948-5.0171,2.77108,0,1.13696,.97227,1.97245,2.96974,2.55242,.59693,.16773,1.48238,.39536,2.51153,.66088,2.12824,.55102,4.77954,1.23877,6.11616,1.69999,3.3201,1.16888,5.00613,3.36597,5.00613,6.53235Z"/><path class="cls-1" d="M193.23077,128.83891c-2.01072,0-3.67613-1.56406-3.67613-3.71683,0-2.15307,1.66541-3.71684,3.67613-3.71684s3.67642,1.56376,3.67642,3.71684c0,2.15277-1.6657,3.71683-3.67642,3.71683Zm0-6.80394c-1.66541,0-3.00599,1.27936-3.00599,3.08711s1.34058,3.08711,3.00599,3.08711c1.6657,0,3.00597-1.27936,3.00597-3.08711s-1.34027-3.08711-3.00597-3.08711Zm-.42645,3.77776v1.23895h-1.09659v-3.8996h1.82795c.87312,0,1.44192,.50758,1.44192,1.36079,0,.60922-.28471,1.01547-.75157,1.17802l.89331,1.36079h-1.21814l-.75155-1.23895h-.34533Zm.60922-1.74683h-.60922v.87342h.60922c.3251,0,.50787-.16256,.50787-.42645,0-.2642-.18277-.44696-.50787-.44696Z"/></g></svg>