<?xml version="1.0" encoding="UTF-8"?><svg xmlns="http://www.w3.org/2000/svg" viewBox="0 0 418.85 108.31"><defs><style>.d{fill:#fff;}</style></defs><g id="a"/><g id="b"><g id="c"><g><g><g><path class="d" d="M152.92,40.23c1.38,0,2.66,.37,3.83,1.1,.69-.22,1.35-.32,1.98-.32s1.4,.09,2.33,.26c.93,.17,1.6,.61,2.01,1.3,.41,.69,.59,1.27,.55,1.75-.09,.87-.24,1.49-.45,1.88,.39,1.04,.19,2.31-.58,3.83,1.04,2.51,1.02,6.25-.07,11.22-.26,1.21-.52,2.38-.78,3.5-.61,2.64-.91,4.5-.91,5.58,0,.69,.05,1.71,.16,3.05,.11,1.34,.2,2.7,.29,4.09,.09,1.38,.13,2.66,.13,3.83s-.12,1.91-.36,2.24c-.24,.32-.41,.82-.52,1.49-.11,.67-.25,1.33-.42,1.98-.17,.65-.41,1.2-.71,1.65-.3,.45-.68,.65-1.13,.58s-.74-.16-.84-.29c-.11-.13-.21-.28-.29-.45-.13-.43-.39-.71-.78-.84-.61-.17-.92-.57-.94-1.2-.02-.63,.06-1.08,.26-1.36,.19-.28,.29-.58,.29-.91s-.07-.66-.19-1.01c-.3-.69-.69-1.09-1.17-1.2-.48-.11-.87-.37-1.17-.78-.3-.41-.56-.88-.78-1.39-.52-1.25-.7-2.2-.55-2.85,.15-.65,.12-1.43-.1-2.34-.69-2.77-.74-4.86-.13-6.29,.22-.6,.24-1.12,.07-1.56-.26-.91-.32-1.69-.19-2.34,.26-1.3,.39-2.5,.39-3.6s-.28-1.65-.84-1.65c-.52,0-.87,1.38-1.04,4.15-.17,3.07-.44,4.89-.81,5.45-.37,.56-.68,1.03-.94,1.39-.26,.37-.5,.79-.71,1.26-.43,.95-.65,2-.65,3.15s-.03,1.83-.1,2.04c-.06,.22-.12,.45-.16,.71-.22,.78-.32,1.73-.32,2.85,0,1.56-.32,2.81-.97,3.76-.09,.13-.17,.4-.26,.81-.09,.41-.22,.83-.39,1.26-.43,1.04-1,1.55-1.69,1.52-.69-.02-1.22-.24-1.59-.65-.37-.41-.66-.9-.88-1.46-.22-.56-.39-1.12-.52-1.69-.13-.56-.35-1.1-.65-1.62-.43-.73-.32-2.25,.32-4.54,.26-.91,.37-1.65,.32-2.24-.04-.58-.35-1.05-.91-1.39-.26-.17-.53-1.11-.81-2.82-.28-1.71-.52-3.13-.71-4.28-.19-1.14-.38-2.19-.55-3.15-.48-2.2-.85-3.33-1.13-3.37-.28-.04-.45,.05-.52,.29-.06,.24-.08,.53-.03,.88,.04,.35,.1,.69,.16,1.04,.07,.35,.11,.67,.13,.97,.02,.3-.11,.88-.39,1.72-.28,.84-.31,1.81-.1,2.89,.22,1.08,.32,1.9,.32,2.46s-.06,1.18-.19,1.85-.16,1.26-.1,1.78c.06,.52,.12,.99,.16,1.43,.09,1.08-.15,1.79-.71,2.14-.56,.35-.83,.91-.81,1.69,.02,.78,.27,1.42,.75,1.91,.48,.5,.65,.96,.52,1.39s-.28,.78-.45,1.04c-.17,.26-.24,.48-.19,.65,.04,.17,.04,.39,0,.65-.09,1.04-.91,1.99-2.46,2.85-1.25,.69-2.29,.96-3.11,.81-.82-.15-1.43-.44-1.82-.88-.39-.43-.54-.92-.45-1.46,.09-.54,.1-1.04,.03-1.49-.07-.45-.11-.92-.13-1.39-.02-.48-.05-.95-.1-1.43-.04-1.3-.17-2.17-.39-2.63-.22-.45-.35-.92-.39-1.39-.04-.48-.05-.92-.03-1.33,.02-.41,.05-.79,.1-1.13,.04-.35-.01-.71-.16-1.1-.15-.39-.16-.89-.03-1.49,.13-.6,.15-1.19,.06-1.75-.09-.56-.08-1.07,.03-1.52,.11-.45,.2-.92,.29-1.39,.13-1.12-.11-1.88-.71-2.27-.69-.56-1.16-1.16-1.39-1.78-.24-.63-.34-1.44-.29-2.43,.04-.99,.04-1.8,0-2.43-.04-.63,.08-1.38,.36-2.27,.28-.89,.42-1.81,.42-2.76s-.03-1.77-.1-2.46c-.06-.69-.14-1.34-.23-1.95-.09-.6-.17-1.23-.26-1.88-.13-1.34-.07-2.46,.19-3.37,.35-.86,.79-1.59,1.33-2.17,.54-.58,1.42-.85,2.63-.81,2.33,.09,3.74-.02,4.22-.32,.99-.61,2.12-.63,3.37-.07,.35,.13,.65,.3,.91,.52,2.42,.61,3.78,1.58,4.09,2.92,.86,3.63,1.3,6.04,1.3,7.23s.03,1.89,.1,2.11c.06,.22,.13,.38,.19,.49,.07,.11,.1,.23,.1,.36s-.04,.48-.13,1.04c-.09,.56-.02,.99,.19,1.3,.22,.3,.46,.45,.75,.45s.55-.15,.81-.45c.3-.35,.51-1.03,.62-2.04,.11-1.02,.16-1.63,.16-1.85,0-.39,.07-.75,.23-1.07,.15-.32,.25-.68,.29-1.07,.04-.39,.11-.8,.19-1.23,.13-1.12,.41-1.9,.84-2.33,.43-.43,.89-.81,1.36-1.14,.48-.32,.78-.79,.91-1.39s.27-1.17,.42-1.69c.15-.52,.38-1.02,.68-1.49,.73-1.21,1.82-1.82,3.24-1.82Z"/><path class="d" d="M172.53,89.25c-.43,.13-.92,.1-1.46-.1-.54-.19-.92-.56-1.13-1.1-.22-.54-.36-1.17-.42-1.88-.06-.71-.08-1.48-.03-2.3,.04-.82,.07-1.62,.07-2.4,0-1.73-.28-2.83-.84-3.31-1.17-.86-1.64-3.07-1.43-6.61,.22-2.03,.45-3.65,.71-4.86,.43-1.99,.64-3.67,.62-5.06-.02-1.38,.02-2.46,.13-3.24,.11-.78,.24-1.43,.39-1.95,.15-.52,.33-1.06,.55-1.62,.22-.56,.41-1.49,.58-2.79,.43-3.24,.82-5.25,1.17-6.03,.48-1.08,1.05-2.19,1.72-3.34,.67-1.15,1.22-1.91,1.65-2.3,.99-.73,2.42-.8,4.28-.2,1.38,.48,2.67,.63,3.86,.45,1.19-.17,2.1-.25,2.72-.23,.63,.02,1.33,.26,2.11,.71,.78,.45,1.38,.99,1.82,1.62,.43,.63,.73,1.31,.91,2.04,.3,1.25,.32,2.84,.07,4.77-.26,1.92-.36,3.48-.29,4.67,.06,1.19,.32,2.31,.78,3.37s.76,1.9,.91,2.53c.15,.63,.28,1.26,.39,1.88,.11,.63,.19,1.3,.26,2.01,.06,.71,.19,1.52,.39,2.43s.3,1.63,.32,2.17c.02,.54,0,.98-.03,1.33-.04,.35-.1,.66-.16,.94-.07,.28-.04,.71,.07,1.3,.11,.58,.11,1.22,0,1.91-.11,.69-.23,1.36-.36,2.01-.48,1.99-.67,3.39-.58,4.22,.17,1.47,.17,2.52,0,3.15-.17,.63-.34,1.13-.49,1.52-.15,.39-.32,.93-.52,1.62-.19,.69-.6,1.32-1.2,1.88-.61,.56-1.18,.73-1.72,.52-.54-.22-.89-.53-1.04-.94-.15-.41-.28-.83-.39-1.26-.11-.43-.24-.82-.39-1.17-.15-.35-.42-.54-.81-.58-.69-.09-1.06-.49-1.1-1.2-.04-.71-.03-1.34,.03-1.88,.06-.54,.03-1.09-.1-1.65s-.35-1.1-.65-1.62c-.78-1.34-1.69-2.08-2.72-2.2-1.56-.22-2.64,.54-3.24,2.27-.13,.43-.23,1.01-.29,1.72-.06,.71-.24,1.35-.52,1.91-.28,.56-.58,1.04-.91,1.43-.32,.39-.63,.75-.91,1.07-.28,.32-.46,.72-.55,1.2-.35,1.86-1.08,2.92-2.2,3.18Zm5.77-27.17c-.87,2.33-.97,4.19-.32,5.58,.43,.78,.99,1.19,1.69,1.23,1.25,.13,2,.03,2.24-.29,.24-.32,.52-.67,.84-1.04,.32-.37,.44-.93,.36-1.69-.09-.76-.15-1.43-.19-2.01-.04-.58-.25-1.24-.62-1.98-.37-.73-.62-1.52-.75-2.37-.13-.84-.22-1.65-.26-2.43-.17-1.73-.56-2.59-1.17-2.59-.43,0-.7,.23-.81,.68-.11,.45-.18,1.05-.23,1.78-.04,2.25-.3,3.96-.78,5.12Z"/><path class="d" d="M216.65,88.67c-.13-.26-.15-.64-.06-1.13,.09-.5,.14-1.22,.16-2.17,.02-.95-.21-1.43-.68-1.43-.39,0-.72,.42-1.01,1.26-.28,.84-.66,1.38-1.13,1.62-.48,.24-.94,.41-1.39,.52-.45,.11-.91,.22-1.36,.32-.45,.11-.83,.31-1.13,.62-.3,.3-.78,.62-1.43,.94-.65,.32-1.41,.24-2.27-.26-.87-.5-1.45-.94-1.75-1.33-.3-.39-.53-.76-.68-1.1-.15-.35-.31-.65-.49-.91-.17-.26-.45-.43-.84-.52-.87-.22-1.45-.92-1.75-2.11-.3-1.19-.61-2.46-.91-3.83-.3-1.36-.51-2.56-.62-3.6-.11-1.04-.23-2.03-.36-2.98-.3-2.29-.71-3.66-1.23-4.12-.52-.45-.82-1.09-.91-1.91-.22-2.08-.32-3.56-.32-4.44s.25-1.84,.75-2.85c.5-1.01,.75-2.03,.75-3.05s-.08-1.79-.23-2.34c-.15-.54-.27-.97-.36-1.3-.09-.32-.13-.68-.13-1.07-.04-.69,.13-1.73,.52-3.11,.22-.73,.39-1.42,.52-2.04,.13-.63,.26-1.18,.39-1.65,.47-1.73,1.69-2.59,3.63-2.59h.91c1.17,0,2.2-.37,3.11-1.1,.43-.3,.91-.54,1.43-.71,.52-.17,.95-.16,1.3,.03,.35,.19,.82,.26,1.43,.19,.6-.06,1.24-.3,1.91-.71,.67-.41,1.46-.69,2.37-.84,.91-.15,1.86-.11,2.85,.13,.99,.24,1.69,.64,2.08,1.2s.7,.92,.94,1.07c.24,.15,.46,.29,.68,.42,.82,.61,1.32,1.9,1.49,3.89,.13,1.69-.09,3.29-.65,4.8-.09,.3-.24,.78-.45,1.43-.22,.65-.49,1.33-.81,2.04-.32,.71-.49,1.38-.49,2.01s-.03,1.22-.1,1.78c-.07,.56-.25,1.08-.55,1.56-.74,1.17-2.18,1.71-4.35,1.62-1.86,0-3.01-.3-3.44-.91-.22-.3-.34-.69-.36-1.17-.02-.47-.07-1.12-.13-1.94-.07-.82-.31-1.58-.75-2.27-.43-.69-1.02-.86-1.75-.52-.48,.26-.82,1.13-1.04,2.63-.22,1.49-.19,2.99,.07,4.51,.26,1.51,.38,2.43,.36,2.76-.02,.32-.08,.64-.16,.94-.56,2.03-.65,4.91-.26,8.63,.3,2.72,.97,4.19,2.01,4.41,.95,.17,1.73-.32,2.33-1.49,.52-1.08,.48-3.31-.13-6.68-.52-2.64-.09-4.02,1.3-4.15,.6-.09,1.37-.11,2.3-.07,.93,.04,1.75-.03,2.46-.23,.71-.19,1.47-.19,2.27,0,.8,.2,1.46,.57,1.98,1.14s.52,1.64,0,3.24c-1.04,3.2-1.23,5.99-.58,8.37,.09,.39,.22,.93,.39,1.62,.17,.69,.32,1.46,.45,2.3s.22,1.7,.26,2.56c.04,.87-.02,1.64-.19,2.34-.3,1.6-1.11,2.4-2.43,2.4s-2.24-.04-2.76-.13-.84-.26-.97-.52Z"/><path class="d" d="M232.75,41.14c2.16-.86,3.33-.95,3.5-.26,1.08-.26,1.88,.06,2.4,.97,.17,.3,.51,.93,1.01,1.88,.5,.95,1.04,1.97,1.62,3.05,.58,1.08,1.13,2.1,1.65,3.05,.52,.95,.86,1.59,1.04,1.91,.17,.32,.39,.51,.65,.55,.26,.04,.52-.02,.78-.19,.56-.43,.72-1.08,.49-1.95-.24-.86-.35-1.55-.32-2.04,.02-.5,.07-.96,.16-1.39,.26-1.21,.3-2.18,.13-2.92-.17-.73-.26-1.43-.26-2.07,0-1.3,1.06-1.95,3.18-1.95,.43,0,.93,.01,1.49,.03,.56,.02,1.4-.02,2.53-.13,1.12-.11,2.11,.19,2.95,.91,.84,.71,1.11,1.98,.81,3.79-.39,2.46-.56,4.12-.52,4.96,.04,.84,.07,1.63,.07,2.37,0,.78-.13,1.92-.39,3.44-.48,2.68-.61,4.58-.39,5.71,.17,.99,.26,1.73,.26,2.2v1.04c0,.13,.04,.41,.13,.84,.09,.43,.06,.88-.07,1.33s-.15,.94-.07,1.46c.09,.52-.02,1.11-.32,1.78-.3,.67-.44,1.41-.42,2.2,.02,.8-.03,1.52-.16,2.17s-.06,1.41,.19,2.27c.39,1.34,.06,3.7-.97,7.07-.17,.82-.44,1.35-.81,1.59-.37,.24-.64,.42-.81,.55-.17,.13-.3,.41-.39,.84-.22,.87-.67,1.25-1.36,1.17-.91-.13-1.64-1.04-2.2-2.72-.78-2.34-1.41-3.7-1.88-4.09-.48-.39-.83-.93-1.07-1.62-.24-.69-.44-1.41-.62-2.14-.35-1.82-.69-2.86-1.04-3.15-.35-.28-.63-.83-.84-1.65-.22-.82-.43-1.41-.65-1.75-.22-.35-.42-.73-.62-1.17-.19-.43-.4-.86-.62-1.3-.56-1.08-1.1-1.56-1.62-1.43-.3,.09-.51,.46-.62,1.14-.11,.67-.21,1.48-.29,2.43-.26,2.77-.69,4.76-1.3,5.97,.39,1.12,.68,2.15,.88,3.08,.19,.93,.15,2.03-.13,3.31-.28,1.28-.51,2.3-.68,3.08-.17,.78-.36,1.46-.55,2.04-.19,.58-.42,1.03-.68,1.33-.26,.3-.58,.42-.97,.36-.39-.06-.65-.18-.78-.36-.13-.17-.26-.35-.39-.52-.3-.56-.82-.97-1.56-1.23-.74-.26-1.25-.58-1.56-.97-.3-.39-.5-.84-.58-1.36-.09-.52-.14-1.08-.16-1.69-.02-.6-.17-1.26-.45-1.98-.28-.71-.42-1.31-.42-1.78s.04-.9,.13-1.26c.09-.37,.17-.73,.26-1.1,.09-.37,0-.94-.26-1.72-.52-1.6-.37-2.92,.45-3.96,.6-.86,.86-1.6,.78-2.2-.26-1.25-.76-2.08-1.49-2.46-.35-.22-.52-.48-.52-.78,0-.65-.1-1.14-.29-1.46-.19-.32-.21-.74-.03-1.26,.17-.52,.15-.95-.06-1.3,0-.04-.05-.49-.16-1.33-.11-.84-.22-1.92-.32-3.24-.11-1.32-.23-2.74-.36-4.28-.13-1.53-.22-3.02-.26-4.44-.17-3.28-.14-5.21,.1-5.77,.24-.56,.6-.97,1.1-1.23,.5-.26,1.03-.43,1.59-.52,1.21-.13,2.2-.04,2.98,.26Z"/><path class="d" d="M267.41,43.73c.47-.43,.89-.9,1.23-1.39,.35-.5,.8-.96,1.36-1.39,1.51-1.25,3.03-1.62,4.54-1.1,1.86,.69,3.57,1.13,5.12,1.3,1.56,.17,2.69,.56,3.4,1.17,.71,.61,1.33,1.26,1.85,1.95,1.25,1.64,2.01,3.44,2.27,5.38,.04,.74,.17,1.25,.39,1.56,.56,.95,.75,2.23,.55,3.83-.19,1.6-.26,2.71-.19,3.34,.06,.63,.17,1.09,.32,1.39,.15,.3,.29,.61,.42,.91,.35,.82,.52,1.64,.52,2.46,0,1.04-.35,2.07-1.04,3.11-.3,.39-.41,1.15-.32,2.27,.09,1.13,.15,2.25,.19,3.37,.04,2.81-.11,4.55-.45,5.22-.35,.67-.59,1.07-.75,1.2-.15,.13-.29,.24-.42,.32-.65,.3-1.22,1.2-1.72,2.69-.5,1.49-1.16,2.7-1.98,3.63-.82,.93-1.68,1.69-2.56,2.27-.89,.58-1.58,1.04-2.08,1.36-.5,.32-.85,.64-1.07,.94-.22,.3-.43,.61-.65,.91-.56,.69-1.28,1.04-2.14,1.04-1.47,0-2.55-.35-3.24-1.04-.3-.39-.63-.95-.97-1.69-.65-1.17-1.51-2.12-2.59-2.85-1.21-.82-1.95-2.05-2.2-3.7-.13-.56-.16-1.12-.1-1.69,.07-.56,.03-1.27-.1-2.14-.09-.86-.26-1.64-.52-2.34-.26-.69-.41-1.34-.45-1.95-.22-1.82-.82-2.79-1.82-2.92-.74-.09-1.17-1.19-1.3-3.31-.04-1.08,0-2.11,.13-3.08,.13-.97,.3-1.8,.52-2.5,.35-1.25,.45-2.71,.32-4.38-.13-1.66-.13-3.15,0-4.44,.22-2.42,.73-4.39,1.56-5.9,.39-.65,.96-1.3,1.72-1.95,.76-.65,1.5-1.27,2.24-1.88Zm4.12,18.55c.11,.61,.32,1.09,.65,1.46,.32,.37,.56,.94,.71,1.72,.15,.78,.2,1.63,.16,2.56-.04,.93-.07,1.82-.07,2.66s.04,1.6,.13,2.27c.09,.67,.22,1.29,.39,1.85,.48,1.34,1.15,2.01,2.01,2.01,1.34,0,2.27-2.59,2.79-7.78,.17-1.43,.26-3.25,.26-5.48s-.35-4.15-1.04-5.77c-.69-1.62-1.53-2.43-2.53-2.43s-1.82,1.06-2.59,3.18c-.69,1.9-.98,3.16-.88,3.76Z"/><path class="d" d="M313.63,78.65c.19,.32,.28,.71,.26,1.17-.02,.45-.06,.92-.13,1.39-.06,.48-.05,1.01,.03,1.59,.09,.58,.16,1.15,.23,1.69,.07,.54,.1,1.05,.1,1.52s-.14,.88-.42,1.2c-.28,.32-.7,.6-1.26,.81-.56,.22-1.19,.37-1.88,.45-1.6,.13-2.98-.11-4.15-.71-1.08-.56-2.11-.73-3.08-.52-.97,.22-1.73,.42-2.27,.62-.54,.19-1.17,.38-1.88,.55-.71,.17-1.42,.25-2.11,.23-.69-.02-1.28-.41-1.75-1.17-.48-.76-.74-1.63-.78-2.63-.04-.99,.11-2.01,.45-3.05,.35-1.04,.48-2.22,.39-3.53-.09-1.32-.17-2.44-.26-3.37-.09-.93-.09-1.74,0-2.43,.22-1.64,.02-2.79-.58-3.44-.48-.56-.71-1.22-.71-1.98s.02-1.37,.06-1.85c.04-.48,.19-.89,.45-1.23s.42-.64,.49-.88c.06-.24,.05-.66-.03-1.26-.35-2.46-.46-4.37-.36-5.71,.11-1.34,.09-2.5-.06-3.47-.15-.97-.18-1.77-.1-2.4,.09-.63,.04-1.16-.13-1.59-.17-.43-.23-.74-.16-.94,.06-.19,.05-.48-.03-.84-.09-.37-.17-.77-.26-1.2-.26-1.3-.34-2.18-.23-2.66,.11-.48,.32-1.03,.65-1.65,.32-.63,.72-1,1.2-1.13,.48-.13,.76-.24,.84-.32,.09-.09,.3-.19,.65-.32,.91-.26,1.58-.28,2.01-.06,.43,.22,.82,.33,1.17,.36,.35,.02,.7,.02,1.07,0s.72-.08,1.07-.16l.78-.13c.91-.26,1.6-.22,2.08,.13,.3,.3,.52,.54,.65,.71,.13,.17,.15,.43,.07,.78-.09,.35-.04,.63,.13,.84,.17,.22,.24,.53,.19,.94-.04,.41-.05,.71-.03,.91,.02,.2,.05,.4,.1,.62,.09,.43,.04,.95-.13,1.56-.17,.61-.28,1.01-.32,1.2-.04,.19-.06,.38-.06,.55,0,.56-.08,1.09-.23,1.59-.15,.5-.24,.91-.26,1.23-.02,.32-.03,.7-.03,1.13v1.43c0,.52-.03,1.17-.1,1.95-.06,.78-.13,1.7-.19,2.76-.07,1.06-.12,2.13-.16,3.21-.17,2.85-.39,4.67-.65,5.45-.69,.39-.8,1.3-.32,2.72l.45,1.36c.43,1.3,.65,2.57,.65,3.83s-.11,2.46-.32,3.63c1.25,.69,2.14,1.06,2.66,1.1,1.25,.17,2.39,0,3.4-.52,1.02-.52,1.75-.73,2.2-.65,.45,.09,.78,.29,.97,.62Z"/><path class="d" d="M331.39,52.61c-1.47,.39-1.75,2.9-.84,7.52,.3,1.25,.46,2.3,.49,3.15,.02,.84-.1,1.76-.36,2.76-.26,.99-.39,1.79-.39,2.4s-.09,1.32-.26,2.14c.04,.91,.03,1.83-.03,2.76-.06,.93-.12,1.83-.16,2.69-.13,2.12-.15,3.37-.06,3.76,.09,.39,.23,.64,.42,.74,.19,.11,.42,.21,.68,.29,.6,.22,.97,.5,1.1,.84s.18,.83,.16,1.46c-.02,.63-.1,1.29-.23,1.98-.39,1.64-.93,2.7-1.62,3.18-.39,.26-.79,.35-1.2,.26-.41-.09-.85-.17-1.33-.26-1.47-.26-2.72-.13-3.76,.39-2.55,1.38-4.52,1.38-5.9,0-.56-.56-.91-1.43-1.04-2.59-.17-2.12-.05-3.48,.36-4.09,.41-.61,.76-.98,1.04-1.14,.28-.15,.53-.29,.75-.42,.48-.22,.71-.58,.71-1.1,0-.39,.05-.81,.16-1.26,.11-.45,.2-.94,.29-1.46,.22-1.25,.11-2.29-.32-3.11-.48-.95-.68-1.73-.62-2.33,.06-.61,.12-1.14,.16-1.62l.26-1.56c.09-1.25,.06-2.32-.07-3.21-.13-.89-.23-1.82-.29-2.79-.06-.97-.09-1.89-.06-2.76,.02-.86,.03-1.69,.03-2.46,0-1.82-.18-2.9-.55-3.24-.37-.35-.7-.53-1.01-.55-.3-.02-.61-.03-.91-.03-.82,.09-1.34-.04-1.56-.39-.48-.48-.71-1.08-.71-1.82s.14-1.3,.42-1.69c.28-.39,.46-.83,.55-1.33,.09-.5,.13-1.03,.13-1.59,.09-1.3,.04-2.15-.13-2.56-.17-.41-.29-.78-.36-1.1-.06-.32-.1-.64-.1-.94,0-1.25,.89-1.9,2.66-1.95,1.08-.04,2.18-.03,3.31,.03,1.12,.07,2.01,.03,2.66-.1,2.25-.43,4.05-.61,5.41-.52,1.36,.09,2.24,.2,2.63,.32,1.08,.43,1.66,1.62,1.75,3.57,.04,.91,.06,1.86,.06,2.85s.04,2.01,.13,3.05c.17,2.16-.65,3.44-2.46,3.83Z"/><path class="d" d="M342.76,89.25c-.43,.13-.92,.1-1.46-.1-.54-.19-.92-.56-1.13-1.1-.22-.54-.36-1.17-.42-1.88-.06-.71-.08-1.48-.03-2.3,.04-.82,.07-1.62,.07-2.4,0-1.73-.28-2.83-.84-3.31-1.17-.86-1.64-3.07-1.43-6.61,.22-2.03,.45-3.65,.71-4.86,.43-1.99,.64-3.67,.62-5.06-.02-1.38,.02-2.46,.13-3.24,.11-.78,.24-1.43,.39-1.95,.15-.52,.33-1.06,.55-1.62,.22-.56,.41-1.49,.58-2.79,.43-3.24,.82-5.25,1.17-6.03,.48-1.08,1.05-2.19,1.72-3.34,.67-1.15,1.22-1.91,1.65-2.3,.99-.73,2.42-.8,4.28-.2,1.38,.48,2.67,.63,3.86,.45,1.19-.17,2.1-.25,2.72-.23,.63,.02,1.33,.26,2.11,.71,.78,.45,1.38,.99,1.82,1.62,.43,.63,.73,1.31,.91,2.04,.3,1.25,.32,2.84,.07,4.77-.26,1.92-.36,3.48-.29,4.67,.06,1.19,.32,2.31,.78,3.37s.76,1.9,.91,2.53c.15,.63,.28,1.26,.39,1.88,.11,.63,.19,1.3,.26,2.01,.06,.71,.19,1.52,.39,2.43s.3,1.63,.32,2.17c.02,.54,0,.98-.03,1.33-.04,.35-.1,.66-.16,.94-.07,.28-.04,.71,.07,1.3,.11,.58,.11,1.22,0,1.91-.11,.69-.23,1.36-.36,2.01-.48,1.99-.67,3.39-.58,4.22,.17,1.47,.17,2.52,0,3.15-.17,.63-.34,1.13-.49,1.52-.15,.39-.32,.93-.52,1.62-.19,.69-.6,1.32-1.2,1.88-.61,.56-1.18,.73-1.72,.52-.54-.22-.89-.53-1.04-.94-.15-.41-.28-.83-.39-1.26-.11-.43-.24-.82-.39-1.17-.15-.35-.42-.54-.81-.58-.69-.09-1.06-.49-1.1-1.2-.04-.71-.03-1.34,.03-1.88,.06-.54,.03-1.09-.1-1.65s-.35-1.1-.65-1.62c-.78-1.34-1.69-2.08-2.72-2.2-1.56-.22-2.64,.54-3.24,2.27-.13,.43-.23,1.01-.29,1.72-.06,.71-.24,1.35-.52,1.91-.28,.56-.58,1.04-.91,1.43-.32,.39-.63,.75-.91,1.07-.28,.32-.46,.72-.55,1.2-.35,1.86-1.08,2.92-2.2,3.18Zm5.77-27.17c-.87,2.33-.97,4.19-.32,5.58,.43,.78,.99,1.19,1.69,1.23,1.25,.13,2,.03,2.24-.29,.24-.32,.52-.67,.84-1.04,.32-.37,.44-.93,.36-1.69-.09-.76-.15-1.43-.19-2.01-.04-.58-.25-1.24-.62-1.98-.37-.73-.62-1.52-.75-2.37-.13-.84-.22-1.65-.26-2.43-.17-1.73-.56-2.59-1.17-2.59-.43,0-.7,.23-.81,.68-.11,.45-.18,1.05-.23,1.78-.04,2.25-.3,3.96-.78,5.12Z"/></g><g><path class="d" d="M377.48,58.58c-.13-.91-.19-1.9-.19-2.98,0-1.86-.15-3.11-.45-3.76-.3-.65-.43-1.18-.39-1.59,.04-.41-.02-.77-.19-1.07-.13-.3-.18-.76-.16-1.36,.02-.6-.19-1.21-.65-1.82-.45-.6-.72-1.29-.81-2.04-.09-.76,.06-1.39,.45-1.91,.43-.48,.85-.73,1.26-.78,.41-.04,.77-.07,1.07-.1,.3-.02,.67-.16,1.1-.42,.43-.26,.89-.38,1.36-.36,.48,.02,.95,.05,1.43,.1,1.34,.04,2.34-.15,2.98-.58,1.47-.95,2.68-1.3,3.63-1.04,1.99,.61,2.55,3.01,1.69,7.2-.52,2.33-.77,5.74-.75,10.21,.02,4.47,0,7.45-.03,8.92-.04,1.47-.26,2.53-.65,3.18-.56,.86-.84,2.16-.84,3.89l.06,4.86c-.09,1.69-.32,3.29-.71,4.8-.39,1.51-1.21,2.7-2.46,3.57-.69,.48-1.44,1.25-2.24,2.33-.8,1.08-1.41,1.81-1.82,2.17-.41,.37-.91,.52-1.49,.45-.58-.06-.97-.21-1.17-.42-.19-.22-.38-.43-.55-.65-.43-.52-1.35-.69-2.76-.52-1.41,.17-2.54,.26-3.4,.26s-1.64-.43-2.33-1.3c-.48-.52-.78-1.01-.91-1.49-.22-.86-.53-1.51-.94-1.95-.41-.43-.7-.85-.88-1.26-.17-.41-.29-.81-.36-1.2-.07-.39-.13-.8-.19-1.23-.06-.43-.28-1.06-.65-1.88-.37-.82-.5-1.72-.39-2.69,.11-.97,.36-1.7,.75-2.17,.91-1.17,2.14-1.84,3.7-2.01,1.25-.82,2.23-1.02,2.92-.58,.26,.17,.51,.29,.75,.36,.24,.07,.44,.16,.62,.29,.3,.17,.41,.82,.32,1.95-.22,1.3-.25,2.26-.1,2.89,.15,.63,.42,1.09,.81,1.39,.82,.61,1.69,.63,2.59,.07,.22-.99,.65-1.92,1.3-2.79v-2.92c0-3.33-.07-5.27-.19-5.84s-.16-.97-.1-1.23c.06-.26,.16-.52,.29-.78,.56-1.51,.48-2.81-.26-3.89-.48-.65-.5-1.4-.07-2.27Z"/><path class="d" d="M395.01,44.12c1.04-1.25,2.29-2.03,3.76-2.34,.65-.17,1.3-.32,1.95-.45,.65-.13,1.32-.39,2.01-.78,1.3-.73,2.19-1.1,2.69-1.1s.89,.04,1.17,.13c.28,.09,.61,.15,.97,.2,.37,.04,.76,.06,1.17,.06s.88,.04,1.39,.13c1.64,.22,3.37,1.3,5.19,3.24,1.17,1.25,1.89,2.55,2.17,3.89,.28,1.34,.4,2.66,.36,3.96-.04,1.86,.09,3.24,.39,4.15,.3,.91,.5,1.6,.58,2.07,.09,.48,.03,1.14-.16,1.98-.19,.84-.51,1.44-.94,1.78-.43,.35-.91,.56-1.43,.65-.52,.09-1.02,.11-1.49,.07-.48-.04-.87-.07-1.17-.07s-.51,.08-.62,.23c-.11,.15-.23,.31-.36,.49-.3,.3-.89,.32-1.75,.06-.87-.26-1.58-.81-2.14-1.65-.56-.84-.63-1.93-.2-3.28,.13-.43,.26-.83,.39-1.2,.13-.37,.15-.68,.06-.94-.17-.61-.58-.93-1.23-.97-.65-.04-1.21,.13-1.69,.52-.65,.61-1.07,1.35-1.26,2.24-.19,.89-.26,1.52-.19,1.91,.06,.39,.1,.8,.1,1.23s.02,.89,.06,1.36c.17,1.13,.44,1.88,.81,2.27,.37,.39,.68,.61,.94,.65,.26,.04,.51,.05,.74,.03,.24-.02,.49-.03,.75-.03s.63,.11,1.1,.32c.48,.22,.96,.43,1.46,.65,.5,.22,.94,.56,1.33,1.04,.39,.48,.72,.78,1.01,.91,.28,.13,.53,.25,.75,.36,.21,.11,.42,.21,.62,.29s.36,.3,.49,.65c.56,1.51,.69,3.26,.39,5.25-.09,.74-.16,1.32-.23,1.75-.07,.43-.12,.81-.16,1.13s-.09,.61-.13,.84c-.04,.24-.06,.6-.06,1.07,0,1.77-.29,3.13-.88,4.09-.58,.95-1.18,1.6-1.78,1.95-.61,.35-.99,.61-1.17,.78-.17,.17-.31,.39-.42,.65s-.27,.54-.49,.84c-.52,.74-1.27,1.25-2.27,1.56-1.13,.35-2.32,.51-3.6,.49-1.28-.02-2.26-.1-2.95-.23-.69-.13-1.33-.45-1.91-.97s-1.06-1.09-1.43-1.72c-.37-.63-.66-.97-.88-1.04-.22-.07-.45-.1-.71-.1h-.78c-.69,0-1.16-.2-1.39-.62-.24-.41-.32-.8-.26-1.17,.06-.37,.07-.9,.03-1.59,0-.69,.01-1.34,.03-1.95,.02-.6,.27-1.12,.75-1.56,1.04-.82,1.95-1.25,2.72-1.3s1.3-.2,1.56-.45,.46-.5,.62-.71c.15-.22,.37-.35,.65-.39,.28-.04,.57-.02,.88,.07,.73,.22,1.1,.65,1.1,1.3s.01,1.24,.03,1.78c.02,.54,.1,1.03,.23,1.46,.3,1.12,.86,1.64,1.69,1.56,.91-.09,1.41-.99,1.49-2.72v-2.79c0-2.03-.97-3.59-2.92-4.67-.78-.43-1.54-.84-2.27-1.23-.74-.39-1.43-.86-2.08-1.43-1.47-1.3-2.4-2.79-2.79-4.47-.39-1.69-.67-2.78-.84-3.28-.17-.5-.34-.83-.49-1.01-.15-.17-.31-.3-.49-.39-.17-.09-.41-.35-.71-.78-.48-.65-.58-1.4-.32-2.27s.48-1.59,.65-2.17c.17-.58,.26-1.22,.26-1.91s-.03-1.37-.1-2.04c-.07-.67-.1-1.35-.1-2.04,.09-1.56,.67-2.98,1.75-4.28Z"/></g></g><g><path class="d" d="M62.7,0c1.86,.91,3.53,2.06,4.8,3.73,1.66,2.18,1.7,4.09,0,6.23-1.46,1.84-3.06,3.57-4.55,5.39-1.83,2.24-3.36,4.63-3.27,7.7,0,.18-.26,.41-.45,.56-1.2,.94-2.28,1.14-3.49-.18-.67-.73-1.73-1.14-2.66-1.58-.57-.27-.91-.54-.96-1.21-.24-3.76-.44-7.55,.8-11.17,1.51-4.39,4.16-7.86,8.75-9.46h1.01Z"/><path class="d" d="M78.29,24.61c5.11-3.39,10.46-4.38,16.12-2.65,8.51,2.6,14.04,8.37,17.1,16.64,1.65,4.48,2.56,9.11,2.94,13.85,.75,9.47-.1,18.79-2.96,27.88-2.89,9.18-8.81,15.37-18.13,18.13-.28,.08-.57,.14-.74,.18,.61-2.57,1.34-5.11,1.8-7.69,.91-5.05,1.03-10.15,.91-15.27-.05-1.98-.53-10.79-.64-10.86-.23-1.74-.41-3.49-.69-5.22-1.57-9.68-4.46-18.94-9.26-27.53-1.6-2.86-3.66-5.38-6.45-7.45Z"/><path class="d" d="M43.41,20.68c-1.45,.41-2.78,.72-4.08,1.16-9.06,3.02-14.78,9.32-17.81,18.24-1.73,5.1-2.56,10.37-2.76,15.72-.35,8.95-.09,17.88,1.95,26.66,1.21,5.2,3.14,10.12,6.11,14.6l-.11,.31c-1.8-.4-3.63-.68-5.38-1.22-6.91-2.14-11.74-6.81-15.09-13.03C1.47,74.31-.58,64.87,.14,54.85c.53-7.36,2.31-14.37,5.92-20.86,5.06-9.09,12.82-14.04,23.15-15.04,4.82-.47,9.5,.22,14.21,1.72Z"/><path class="d" d="M74.08,87.97c1.44-2.45,2.85-4.85,4.25-7.25,.49-.84,.99-1.68,1.48-2.52,.9-1.54,.9-1.51,2.62-1.22,3.05,.52,6.1,1,9.14,1.5,.23,.04,.46,.03,.79,.05,.54-2.05,1.08-4.08,1.62-6.11h.24c0,2.23,.02,4.44,0,6.66-.05,4.98-.44,9.92-1.47,14.81-1.43,6.77-5.46,11.08-12.01,13.07-6.75,2.05-13.39,1.92-19.78-1.32-2.31-1.17-2.16-1.22-1.89-3.79,.6-5.88,1.06-11.77,1.58-17.65,.03-.33,.05-.67,.08-1.17,4.48,1.67,8.89,3.3,13.36,4.96Z"/><path class="d" d="M47.47,55.77l-17.28-5.32,12.41-10.97,4.87,16.28Z"/><path class="d" d="M91.22,54.23c-7.78,1.08-15.3,2.12-23.11,3.21l7.72-19.83c5.15,5.57,10.18,11,15.39,16.62Z"/><path class="d" d="M31.72,66.04c1.05,.05,1.4,.44,1.6,1.42,.4,1.96,.96,3.89,1.47,5.9,2.81-.85,5.55-1.65,8.26-2.51,.66-.21,1.1-.1,1.62,.34,2.34,1.97,4.72,3.88,7.16,5.88,2.43-1.65,4.78-3.28,7.17-4.84,.64-.42,.87-.86,.87-1.63,.08-10.59,.02-21.18-.89-31.74-.32-3.7-1.02-7.38-1.56-11.06-.24-1.64-1.18-2.78-2.53-3.7-2.33-1.57-4.9-2.5-7.67-2.42-9.13,.28-16.38,4.16-21.37,11.86-4.06,6.27-5.32,13.42-5.88,20.72-.43,5.54-.26,11.08,.15,16.62,.37,5.08,1.13,10.08,2.66,14.94,1.89,6.02,4.66,11.55,9.42,15.83,6.63,5.96,14.16,7.55,22.63,4.41,1.81-.67,2.81-1.74,3-3.67,.44-4.48,.96-8.95,1.4-13.42,.16-1.69,.19-3.39,.29-5.33-1.86,1.29-3.55,2.37-5.13,3.59-.87,.68-1.47,.61-2.34,0-2.09-1.47-4.24-2.84-6.41-4.19-.54-.34-1.22-.57-1.86-.62-3.69-.27-7.38-.5-11.07-.68-.81-.04-1.17-.28-1.33-1.1-.56-2.8-1.19-5.58-1.85-8.36-.12-.5-.47-1.04-.87-1.37-2.03-1.66-4.1-3.27-6.17-4.87-.2-.15-.5-.18-.75-.26l.35-.41c3.21,.24,6.43,.52,9.64,.68Z"/><path class="d" d="M88.37,42.6c-1.67-4.59-3.59-9.06-6.58-12.97-4.72-6.19-10.95-8.11-18.4-6.36-1.95,.46-3.8,1.24-5.3,2.28,.43,2.13,.92,4.09,1.22,6.07,1.12,7.52,1.42,15.11,1.59,22.7,.12,5.41,.06,10.82,.11,16.23,0,.39,.22,.97,.52,1.13,3.33,1.82,6.69,3.57,10.12,5.38,2.42-2.56,4.8-5.02,7.11-7.55,.57-.62,1.01-.65,1.72-.32,2.2,1.01,4.43,1.93,6.63,2.93,.61,.28,.98,.28,1.45-.28,1.49-1.73,3.07-3.39,4.56-5.12,.28-.33,.47-.89,.44-1.32-.52-7.87-2.49-15.41-5.18-22.79Z"/><path d="M31.07,47.02c.45,0,2.52-.31,5.78-1.01-.46,.38-4.33,3.21-4.72,3.6-.81,.81-.8,2.14,.02,2.97,.4,.4,.92,.63,1.48,.64,.58,.02,1.09-.2,1.49-.59,.33-.32,1.57-1.94,3.39-4.76,0,.29-.8,5.28-.8,5.83,0,1.15,.95,2.08,2.13,2.08s2.13-.93,2.13-2.08c0-.55-.41-3.4-.96-5.88,.17-.06,3.13,4.33,3.51,4.71,.8,.81,2.12,.82,2.94,.01,.4-.39,.62-.91,.63-1.46,0-.56-.2-1.08-.59-1.48-.38-.39-2.74-2.2-4.84-3.59,.93,.09,5.4,.99,5.86,1h.04c1.13,0,2.05-.93,2.08-2.08,.01-.56-.19-1.1-.57-1.51-.38-.41-.9-.65-1.46-.66h-.02c-.59,0-3.4,.41-5.85,.9-.04-.12,4.4-2.98,4.79-3.35,.4-.39,.62-.91,.62-1.48,0-.56-.22-1.09-.61-1.49-.42-.44-.98-.66-1.54-.66-.52,0-1.03,.19-1.43,.57-.39,.38-2.05,2.63-3.44,4.73,.11-1.04,.81-5.22,.82-5.76,0-.56-.21-1.09-.61-1.48-.4-.39-.92-.61-1.49-.62h-.03c-1.16,0-2.11,.91-2.12,2.05,0,.55,.44,3.33,.95,5.8-.24-.29-3.04-4.36-3.42-4.75h0c-.4-.41-.93-.61-1.47-.61s-1.08,.21-1.5,.62c-.4,.39-.63,.92-.65,1.48-.01,.56,.19,1.1,.58,1.49,.38,.39,2.6,2,4.71,3.38-.42,.02-5.25-.79-5.79-.8h-.01c-.55,0-1.07,.22-1.47,.62-.39,.4-.61,.93-.61,1.49,0,1.17,.92,2.13,2.06,2.14Zm8.14-2.13c0-.34,.28-.62,.62-.62s.62,.28,.62,.62-.28,.62-.62,.62-.62-.28-.62-.62Zm-4.93,6.87c-.16,.16-.37,.24-.6,.24h-.02c-.24,0-.47-.1-.65-.28-.36-.36-.37-.92-.03-1.26,.18-.18,1.34-.98,3.99-2.68-1.71,2.64-2.53,3.8-2.7,3.98Zm5.57,2.79c-.51,0-.92-.39-.92-.87,0-.25,.25-1.65,.92-4.72,.67,3.07,.92,4.47,.92,4.72,0,.48-.41,.87-.92,.87Zm7.05-3.5c0,.24-.1,.46-.27,.63-.18,.17-.4,.26-.63,.26s-.45-.09-.62-.26c-.18-.18-.98-1.34-2.66-3.97,2.6,1.72,3.75,2.54,3.93,2.72,.16,.17,.25,.39,.25,.62Zm1.68-7.09c.23,0,.44,.1,.6,.27,.16,.18,.25,.41,.25,.66-.01,.5-.4,.9-.87,.9h-.02c-.25,0-1.64-.28-4.7-1.01,3.09-.61,4.48-.83,4.74-.82Zm-3.17-5.85c.34-.33,.91-.31,1.26,.06,.17,.18,.27,.41,.27,.65,0,.23-.09,.45-.25,.61h0c-.18,.17-1.36,.97-4.03,2.62,1.74-2.62,2.58-3.77,2.76-3.94Zm-5.59-2.79h.01c.25,0,.48,.1,.65,.27,.17,.17,.26,.38,.25,.61,0,.25-.27,1.64-.98,4.71-.63-3.08-.86-4.48-.85-4.73,0-.47,.42-.86,.92-.86Zm-7.01,3.4c0-.24,.11-.47,.28-.64,.36-.35,.93-.36,1.26-.02,.18,.18,.98,1.35,2.65,4.01-2.63-1.73-3.78-2.55-3.96-2.73-.16-.16-.24-.38-.24-.62Zm-2.33,5.51c.16-.17,.37-.27,.61-.26,.25,0,1.65,.26,4.71,.95-3.08,.65-4.48,.89-4.73,.89-.48,0-.86-.42-.86-.92,0-.25,.1-.48,.27-.65Z"/><path d="M67.69,51.29c.45,0,2.52-.31,5.78-1.01-.46,.38-4.33,3.21-4.72,3.6-.81,.81-.8,2.14,.02,2.97,.4,.4,.92,.63,1.48,.64,.58,.02,1.09-.2,1.49-.59,.33-.32,1.57-1.94,3.39-4.76,0,.29-.8,5.28-.8,5.83,0,1.15,.95,2.08,2.13,2.08s2.13-.93,2.13-2.08c0-.55-.41-3.4-.96-5.88,.17-.06,3.13,4.33,3.51,4.71,.8,.81,2.12,.82,2.94,.01,.4-.39,.62-.91,.63-1.46,0-.56-.2-1.08-.59-1.48-.38-.39-2.74-2.2-4.84-3.59,.93,.09,5.4,.99,5.86,1h.04c1.13,0,2.05-.93,2.08-2.08,.01-.56-.19-1.1-.57-1.51-.38-.41-.9-.65-1.46-.66h-.02c-.59,0-3.4,.41-5.85,.9-.04-.12,4.4-2.98,4.79-3.35,.4-.39,.62-.91,.62-1.48,0-.56-.22-1.09-.61-1.49-.42-.44-.98-.66-1.54-.66-.52,0-1.03,.19-1.43,.57-.39,.38-2.05,2.63-3.44,4.73,.11-1.04,.81-5.22,.82-5.76,0-.56-.21-1.09-.61-1.48-.4-.39-.92-.61-1.49-.62h-.03c-1.16,0-2.11,.91-2.12,2.05,0,.55,.44,3.33,.95,5.8-.24-.29-3.04-4.36-3.42-4.75h0c-.4-.41-.93-.61-1.47-.61s-1.08,.21-1.5,.62c-.4,.39-.63,.92-.65,1.48-.01,.56,.19,1.1,.58,1.49,.38,.39,2.6,2,4.71,3.38-.42,.02-5.25-.79-5.79-.8h-.01c-.55,0-1.07,.22-1.47,.62-.39,.4-.61,.93-.61,1.49,0,1.17,.92,2.13,2.06,2.14Zm8.14-2.13c0-.34,.28-.62,.62-.62s.62,.28,.62,.62-.28,.62-.62,.62-.62-.28-.62-.62Zm-4.93,6.87c-.16,.16-.37,.24-.6,.24h-.02c-.24,0-.47-.1-.65-.28-.36-.36-.37-.92-.03-1.26,.18-.18,1.34-.98,3.99-2.68-1.71,2.64-2.53,3.8-2.7,3.98Zm5.57,2.79c-.51,0-.92-.39-.92-.87,0-.25,.25-1.65,.92-4.72,.67,3.07,.92,4.47,.92,4.72,0,.48-.41,.87-.92,.87Zm7.05-3.5c0,.24-.1,.46-.27,.63-.18,.17-.4,.26-.63,.26s-.45-.09-.62-.26c-.18-.18-.98-1.34-2.66-3.97,2.6,1.72,3.75,2.54,3.93,2.72,.16,.17,.25,.39,.25,.62Zm1.68-7.09c.23,0,.44,.1,.6,.27,.16,.18,.25,.41,.25,.66-.01,.5-.4,.9-.87,.9h-.02c-.25,0-1.64-.28-4.7-1.01,3.09-.61,4.48-.83,4.74-.82Zm-3.17-5.85c.34-.33,.91-.31,1.26,.06,.17,.18,.27,.41,.27,.65,0,.23-.09,.45-.25,.61h0c-.18,.17-1.36,.97-4.03,2.62,1.74-2.62,2.58-3.77,2.76-3.94Zm-5.59-2.79h.01c.25,0,.48,.1,.65,.27,.17,.17,.26,.38,.25,.61,0,.25-.27,1.64-.98,4.71-.63-3.08-.86-4.48-.85-4.73,0-.47,.42-.86,.92-.86Zm-7.01,3.4c0-.24,.11-.47,.28-.64,.36-.35,.93-.36,1.26-.02,.18,.18,.98,1.35,2.65,4.01-2.63-1.73-3.78-2.55-3.96-2.73-.16-.16-.24-.38-.24-.62Zm-2.33,5.51c.16-.17,.37-.27,.61-.26,.25,0,1.65,.26,4.71,.95-3.08,.65-4.48,.89-4.73,.89-.48,0-.86-.42-.86-.92,0-.25,.1-.48,.27-.65Z"/></g></g></g></g></svg>