<svg xmlns="http://www.w3.org/2000/svg" viewBox="0 0 1428.21 218.1"><defs><style>.cls-1{fill:#7e8065;}</style></defs><g id="Layer_2" data-name="Layer 2"><g id="Layer_1-2" data-name="Layer 1"><path class="cls-1" d="M94.28,13V55.27H86.84V13H75.52V6h30.05v7Z"/><path class="cls-1" d="M126.17,25.29h21.24V6h7.43V55.27h-7.43v-23H126.17v23h-7.44V6h7.44Z"/><path class="cls-1" d="M200.35,13H180.61V24.85h19.17v7H180.61V48.29h19.74v7H173.18V6h27.17Z"/><path class="cls-1" d="M234,116.57A36.79,36.79,0,0,0,228.42,97q-14.56-22.68-51-22.68H75.5v59.71H15.26L0,158.81H75.5v57.63H177.45q38.27,0,52-23.93A34.61,34.61,0,0,0,234,175.24q0-17.27-15-28.92Q234,134.26,234,116.57Zm-34.75,72a49,49,0,0,1-18.1,3.12H100.26V158.81h80.93a47.25,47.25,0,0,1,18.1,3.33q10.82,4.58,10.82,13.31Q210.11,184,199.29,188.56Zm.42-58.25a43.85,43.85,0,0,1-18.52,3.74H100.26v-35h80.93a45.93,45.93,0,0,1,18.52,3.54q10.39,4.8,10.4,13.74Q210.11,125.52,199.71,130.31Z"/><polygon class="cls-1" points="376.13 156.93 376.13 132.18 310.2 132.18 295 156.93 376.13 156.93"/><polygon class="cls-1" points="259.83 216.65 382.59 216.65 382.59 191.89 284.59 191.89 284.59 99.3 382.59 99.3 382.59 74.55 259.83 74.55 259.83 216.65"/><path class="cls-1" d="M509.29,78.71q-5.84-4.59-11.24-4.58-5,0-11.23,4.79a33.31,33.31,0,0,0-8.12,9.15L401.51,216.44h31.84l64.08-105.28,24.76,41H484.53l-15,24.55H537l23.93,39.74,31.83.21L517.4,88.07A32.66,32.66,0,0,0,509.29,78.71Z"/><path class="cls-1" d="M721.72,173.16,630.58,81.83q-7.27-7.29-14.14-7.28a9,9,0,0,0-7.7,3.64,14.06,14.06,0,0,0-2.7,8.63V216.65h24.54V118l91.14,91.54q8.52,8.53,15.39,8.53,9.36,0,9.36-13.73V136.05H721.72Z"/><path class="cls-1" d="M971.13,78.71q-5.82-4.59-11.23-4.58-5,0-11.24,4.79a33.1,33.1,0,0,0-8.11,9.15L863.36,216.44h31.83l64.08-105.28,24.76,41H946.38l-15,24.55h67.42l23.92,39.74,31.84.21L979.25,88.07A32.69,32.69,0,0,0,971.13,78.71Z"/><polygon class="cls-1" points="1022.31 99.3 1078.49 99.3 1078.49 216.65 1103.04 216.65 1103.04 99.3 1159 99.3 1159 74.55 1022.31 74.55 1022.31 99.3"/><rect class="cls-1" x="1176.48" y="74.55" width="24.76" height="142.1"/><path class="cls-1" d="M1399.5,116.68A28.73,28.73,0,0,0,1373.64,133h-52.72V74.55h-24.76V133h-68.79l-15.2,24.76h84v58.88h24.76V157.77h52.73a28.69,28.69,0,1,0,25.85-41.09Zm0,41a12.3,12.3,0,1,1,12.3-12.3A12.32,12.32,0,0,1,1399.5,157.69Z"/><path class="cls-1" d="M889,110.68Q889,87.12,872,73q-15.81-13.53-39.74-13.53h-5.45a51.81,51.81,0,0,1-3.69,24.76H836.2c8.16,0,15,2.38,20.59,7.1s8.33,11.07,8.33,19.15-2.8,14.47-8.33,19.32-12.43,7.29-20.59,7.29H769.61v24.57h62.61q23.92,0,39.74-13.33C883.36,138.76,889,126.17,889,110.68Z"/><path class="cls-1" d="M742,83.14c7.83,5.24,14.92,10.53,22.51,15,12.09,7.1,24.48,7.47,36.33-.77,12-8.33,18.86-27.61,14.89-41.71-1.4-4.88-4-9.06-8.78-11.24A92.07,92.07,0,0,0,795.38,40,69,69,0,0,1,761,18.43,123.91,123.91,0,0,0,748.47,5.67c-12.39-10.53-35.06-6.6-39.74,13.54-2.87,12.38.29,23.66,7.34,33.83,5.09,7.25,10.83,14.06,16.57,21.4-1.19,1.15-2.5,2.59-3.94,3.85-3.48,3.08-3.52,3-7.05.13a28.27,28.27,0,0,0-20.3-6.85,9.18,9.18,0,0,0-1.48.08c-.81.09-1.68.21-2.54.37a0,0,0,0,1,0,0A21.15,21.15,0,0,0,701.35,114c6,0,12-4,13.06-7.35,1.21-3.66-1.41-9.91-4.29-12.5a4.14,4.14,0,0,0-3.24-1.39v.08a6.17,6.17,0,0,1,.09,1,9.06,9.06,0,0,1-4.19,7.74,7.39,7.39,0,0,1-1.43.13,8.91,8.91,0,0,1-3.49-17.1h0a11.33,11.33,0,0,1,3.45-.7c8.77-.73,14.39,5.46,17.14,10.38.25.41.45.82.66,1.23a17.6,17.6,0,0,1,1.72,5.53c0,.21.08.46.12.7.17,1.31.49,4.92.49,4.92h0V132.9h9.91V106.62h0c-.07-.13-12.74-22.82-8.36-18,.49.6,10.36,15.69,12.56,18.06V132.9h10.88V106.62h0c-.08-.8-13.77-12.58-12.54-13.93C736.86,89.24,738.87,86,742,83.14Zm-2.67-64.38c3.65-3.74,7.63-3.45,10.21,1A58.41,58.41,0,0,0,765.2,37.45,49.9,49.9,0,0,0,783.4,46c5.71,1.4,7,3.86,4.88,9.23-3,7.46-7.83,9.59-15.33,6.68A64.39,64.39,0,0,1,764.34,58c-3.2-1.85-6.2-4.06-9.27-6.11a71.17,71.17,0,0,1-17.31-21.16C735.26,26.13,735.83,22.24,739.28,18.76Z"/></g></g></svg>