<?xml version="1.0" encoding="UTF-8"?>
<svg viewBox="0 0 301 84" version="1.1" xmlns="http://www.w3.org/2000/svg" xmlns:xlink="http://www.w3.org/1999/xlink">
    <!-- Generator: Sketch 49.3 (51167) - http://www.bohemiancoding.com/sketch -->
    <title>eb-gradient-black</title>
    <desc>Created with Sketch.</desc>
    <defs>
        <linearGradient x1="0%" y1="100%" x2="100%" y2="0%" id="linearGradient-1">
            <stop stop-color="#65CBE0" offset="0%"></stop>
            <stop stop-color="#42BE9F" offset="100%"></stop>
        </linearGradient>
        <path d="M44.2643846,83.94 L39.7356154,83.94 C17.592498,82.7636185 0,64.4363256 0,42 C0,18.804 18.804,0 42,0 C53.139,0 63.822,4.425 71.698,12.302 C79.575,20.178 84,30.861 84,42 C84,64.4363256 66.407502,82.7636185 44.2643846,83.94 Z M61.75,44.17 C62.694,45.869 63.099,47.815 62.91,49.75 C62.351,54.737 58.108,58.492 53.09,58.44 L40.77,58.44 C40.654,58.437 40.552,58.365 40.512,58.257 C40.473,58.148 40.503,58.026 40.59,57.95 C42.068,56.623 43.268,55.015 44.12,53.22 C44.217,52.995 44.436,52.847 44.68,52.84 L53.34,52.84 C54.503,52.851 55.614,52.355 56.382,51.481 C57.15,50.607 57.5,49.442 57.34,48.29 C57.08,46.29 55.89,44.8 54,44.8 L48.1,44.8 C47.965,44.8 47.838,44.732 47.762,44.62 C47.687,44.508 47.67,44.366 47.72,44.24 L49.72,39.7 C49.84,39.4 50.14,39.2 51,39.2 L58.21,39.2 C60.264,39.229 62.026,37.74 62.34,35.71 C62.5,34.558 62.15,33.393 61.382,32.519 C60.614,31.645 59.503,31.149 58.34,31.16 L54.93,31.16 C49.3,31.16 47.06,36.22 44.76,42 C41.61,49.63 38.84,58.44 28.49,58.44 L25.92,58.44 C20.636,58.511 16.248,54.379 16,49.1 C15.885,45 18.382,41.278 22.22,39.83 C21.275,38.131 20.871,36.185 21.06,34.25 C21.619,29.263 25.862,25.508 30.88,25.56 L43.23,25.56 C43.346,25.562 43.448,25.635 43.488,25.743 C43.527,25.852 43.497,25.974 43.41,26.05 C41.932,27.377 40.732,28.985 39.88,30.78 C39.783,31.005 39.564,31.153 39.32,31.16 L30.66,31.16 C29.497,31.149 28.386,31.645 27.618,32.519 C26.85,33.393 26.5,34.558 26.66,35.71 C26.92,37.71 28.11,39.2 30,39.2 L35.9,39.2 C36.035,39.201 36.162,39.268 36.238,39.38 C36.314,39.492 36.33,39.634 36.28,39.76 L34.28,44.3 C34.16,44.6 33.86,44.8 33,44.8 L25.78,44.8 C23.726,44.77 21.964,46.26 21.65,48.29 C21.49,49.442 21.84,50.607 22.608,51.481 C23.376,52.355 24.487,52.851 25.65,52.84 L29.07,52.84 C34.7,52.84 36.94,47.78 39.24,42 C42.39,34.37 45.16,25.56 55.51,25.56 L58.08,25.56 C63.364,25.489 67.752,29.621 68,34.9 C68.11,39.008 65.599,42.732 61.75,44.17 Z M42,78.4 C62.094,78.378 78.378,62.094 78.4,42 C78.4,21.897 62.103,5.6 42,5.6 C21.897,5.6 5.6,21.897 5.6,42 C5.6,62.104 21.897,78.4 42,78.4 Z" id="path-2"></path>
    </defs>
    <g id="Page-1" stroke="none" stroke-width="1" fill="none" fill-rule="evenodd">
        <g id="eb-gradient-black">
            <path d="M106.63,44.22 L116.24,44.22 C116.364,44.226 116.484,44.179 116.572,44.092 C116.659,44.004 116.706,43.884 116.7,43.76 C116.731,42.386 116.184,41.062 115.191,40.111 C114.198,39.16 112.852,38.67 111.48,38.76 C110.101,38.674 108.748,39.163 107.742,40.11 C106.736,41.057 106.167,42.378 106.17,43.76 C106.164,43.884 106.211,44.004 106.298,44.092 C106.386,44.179 106.506,44.226 106.63,44.22 Z M111.44,54.43 C113.84,54.43 115.65,53.23 116.2,51.52 C116.304,51.027 116.758,50.688 117.26,50.73 L119.62,50.73 C119.86,50.706 120.097,50.801 120.254,50.984 C120.412,51.168 120.47,51.416 120.41,51.65 C119.86,55.65 116.25,58.58 111.41,58.58 C106.407,58.71 102.222,54.81 102,49.81 C101.861,47.655 101.861,45.494 102,43.34 C102.217,38.312 106.44,34.396 111.47,34.56 C117.06,34.56 120.71,38.03 120.71,43.8 L120.71,47 C120.705,47.506 120.296,47.915 119.79,47.92 L106.54,47.92 C106.417,47.914 106.296,47.961 106.208,48.049 C106.121,48.136 106.074,48.256 106.08,48.38 C106.07,52.58 108.25,54.43 111.44,54.43 Z" id="Fill-1" fill="#0A0B09"></path>
            <path d="M139.3,50.59 C139.292,50.361 139.385,50.142 139.555,49.989 C139.725,49.837 139.954,49.768 140.18,49.8 L142.58,49.8 C143.086,49.806 143.495,50.214 143.5,50.72 C143.5,55.2 139.76,58.58 134.58,58.58 C129.03,58.58 125.71,54.65 125.34,49.8 C125.202,47.645 125.202,45.484 125.34,43.33 C125.71,38.48 129.04,34.55 134.58,34.55 C139.76,34.55 143.5,37.92 143.5,42.41 C143.528,42.639 143.458,42.87 143.308,43.045 C143.158,43.22 142.941,43.323 142.71,43.33 L140.21,43.33 C139.994,43.355 139.777,43.29 139.61,43.15 C139.444,43.01 139.342,42.807 139.33,42.59 C139.33,40.42 137.43,38.71 134.57,38.71 C133.281,38.637 132.016,39.085 131.06,39.954 C130.105,40.823 129.539,42.04 129.49,43.33 C129.351,45.484 129.351,47.645 129.49,49.8 C129.539,51.091 130.105,52.308 131.06,53.176 C132.016,54.045 133.281,54.493 134.57,54.42 C137.41,54.43 139.3,52.769 139.3,50.59" id="Fill-2" fill="#0A0B09"></path>
            <path d="M149.74,58.13 C149.234,58.125 148.825,57.716 148.82,57.21 L148.82,26.38 C148.825,25.874 149.234,25.465 149.74,25.46 L152.05,25.46 C152.556,25.465 152.965,25.874 152.97,26.38 L152.97,34.75 C152.97,35.302 153.418,35.75 153.97,35.75 C154.89,35.75 156.1,34.59 158.22,34.59 C163.058,34.59 166.983,38.502 167,43.34 L167,57.2 C166.994,57.706 166.586,58.114 166.08,58.12 L163.77,58.12 C163.264,58.114 162.855,57.706 162.85,57.2 L162.85,43.34 C162.752,40.704 160.546,38.641 157.91,38.72 C155.04,38.72 152.96,40.72 152.96,43.11 L152.96,57.2 C152.955,57.706 152.546,58.114 152.04,58.12 L149.74,58.13" id="Fill-3" fill="#0A0B09"></path>
            <path d="M185.84,49.81 C185.979,47.655 185.979,45.494 185.84,43.34 C185.459,40.698 183.194,38.737 180.525,38.737 C177.855,38.737 175.591,40.698 175.21,43.34 C175.072,45.494 175.072,47.655 175.21,49.81 C175.591,52.452 177.855,54.413 180.525,54.413 C183.194,54.413 185.459,52.452 185.84,49.81 Z M190,43.34 C190.139,45.494 190.139,47.655 190,49.81 C189.639,54.776 185.505,58.621 180.525,58.621 C175.546,58.621 171.411,54.776 171.05,49.81 C170.911,47.655 170.911,45.494 171.05,43.34 C171.411,38.374 175.546,34.529 180.525,34.529 C185.505,34.529 189.639,38.374 190,43.34 Z" id="Fill-4" fill="#0A0B09"></path>
            <path d="M196.56,58 C196.421,58.43 196.011,58.712 195.56,58.69 L194.56,58.69 C194.256,58.683 193.979,58.517 193.827,58.253 C193.676,57.989 193.673,57.666 193.82,57.4 L207.09,26 C207.177,25.587 207.548,25.296 207.97,25.31 L208.97,25.31 C209.269,25.328 209.539,25.496 209.688,25.755 C209.837,26.015 209.845,26.332 209.71,26.6 L196.56,58" id="Fill-5" fill="#0A0B09"></path>
            <path d="M228.92,49.81 C229.059,47.655 229.059,45.494 228.92,43.34 C228.539,40.698 226.274,38.737 223.605,38.737 C220.936,38.737 218.671,40.698 218.29,43.34 C218.15,45.494 218.15,47.655 218.29,49.81 C218.671,52.452 220.936,54.413 223.605,54.413 C226.274,54.413 228.539,52.452 228.92,49.81 Z M218.92,57.07 C218.448,57.147 218.029,57.415 217.76,57.81 C217.6,58.005 217.362,58.122 217.11,58.13 L215.54,58.13 C215.03,58.13 214.615,57.72 214.61,57.21 L214.61,26.38 C214.615,25.87 215.03,25.46 215.54,25.46 L217.85,25.46 C218.355,25.465 218.765,25.874 218.77,26.38 L218.77,34.56 C218.77,35.44 219.09,35.72 219.77,35.72 C220.69,35.72 221.94,34.56 224.07,34.56 C228.92,34.56 232.48,38.49 232.85,43.34 C232.989,45.494 232.989,47.655 232.85,49.81 C232.48,54.66 228.92,58.59 224.07,58.59 C220.68,58.59 220.26,57.07 218.92,57.07 Z" id="Fill-6" fill="#0A0B09"></path>
            <path d="M249.44,29.38 C249.442,29.577 249.365,29.767 249.227,29.906 C249.087,30.045 248.897,30.123 248.7,30.12 L245.56,30.12 C245.363,30.123 245.173,30.045 245.034,29.906 C244.895,29.767 244.817,29.577 244.82,29.38 L244.82,26.19 C244.83,25.786 245.155,25.46 245.56,25.45 L248.7,25.45 C249.104,25.46 249.43,25.786 249.44,26.19 L249.44,29.38 Z M239,38.95 C238.494,38.945 238.085,38.536 238.08,38.03 L238.08,35.94 C238.077,35.693 238.173,35.456 238.346,35.279 C238.518,35.103 238.753,35.002 239,35 L248.38,35 C248.89,35 249.305,35.41 249.31,35.92 L249.31,53.74 C249.305,53.863 249.351,53.984 249.438,54.071 C249.526,54.159 249.646,54.206 249.77,54.2 L255.64,54.2 C256.146,54.205 256.555,54.614 256.56,55.12 L256.56,57.2 C256.555,57.706 256.146,58.114 255.64,58.12 L238.54,58.12 C238.034,58.114 237.625,57.706 237.62,57.2 L237.62,55.12 C237.625,54.614 238.034,54.205 238.54,54.2 L244.59,54.2 C244.714,54.206 244.834,54.159 244.922,54.071 C245.009,53.984 245.056,53.863 245.05,53.74 L245.05,39.41 C245.056,39.286 245.009,39.166 244.922,39.079 C244.834,38.991 244.714,38.944 244.59,38.95 L239,38.95 Z" id="Fill-7" fill="#0A0B09"></path>
            <path d="M270,34.56 C272.341,34.519 274.598,35.431 276.254,37.086 C277.909,38.742 278.821,40.999 278.78,43.34 L278.78,57.2 C278.774,57.706 278.366,58.114 277.86,58.12 L275.55,58.12 C275.044,58.114 274.636,57.706 274.63,57.2 L274.63,43.34 C274.63,40.66 272.41,38.72 269.55,38.72 C266.69,38.72 264.47,40.43 264.47,43.11 L264.47,57.2 C264.465,57.71 264.05,58.12 263.54,58.12 L261.2,58.12 C260.694,58.114 260.285,57.706 260.28,57.2 L260.28,35.94 C260.285,35.434 260.694,35.025 261.2,35.02 L263.2,35.02 C263.452,35.03 263.688,35.146 263.85,35.34 C264.119,35.735 264.538,36.002 265.01,36.08 C266.38,36.08 266.75,34.56 270,34.56" id="Fill-8" fill="#0A0B09"></path>
            <path d="M297.2,49.81 C297.339,47.655 297.339,45.494 297.2,43.34 C296.819,40.698 294.555,38.737 291.885,38.737 C289.216,38.737 286.951,40.698 286.57,43.34 C286.432,45.494 286.432,47.655 286.57,49.81 C286.951,52.452 289.216,54.413 291.885,54.413 C294.555,54.413 296.819,52.452 297.2,49.81 Z M282.64,49.81 C282.502,47.655 282.502,45.494 282.64,43.34 C283.01,38.49 286.57,34.56 291.42,34.56 C293.55,34.56 294.79,35.72 295.72,35.72 C296.41,35.72 296.72,35.44 296.72,34.56 L296.72,26.38 C296.726,25.874 297.134,25.465 297.64,25.46 L300,25.46 C300.506,25.465 300.915,25.874 300.92,26.38 L300.92,57.2 C300.915,57.706 300.506,58.114 300,58.12 L298.4,58.12 C298.147,58.111 297.911,57.995 297.75,57.8 C297.48,57.405 297.062,57.138 296.59,57.06 C295.25,57.06 294.83,58.58 291.41,58.58 C286.57,58.59 283,54.66 282.64,49.81 Z" id="Fill-9" fill="#0A0B09"></path>
            <mask id="mask-3" fill="white">
                <use xlink:href="#path-2"></use>
            </mask>
            <use id="Clip-11" fill="url(#linearGradient-1)" xlink:href="#path-2"></use>
        </g>
    </g>
</svg>