<svg width="205" height="56" viewBox="0 0 205 56" fill="none" xmlns="http://www.w3.org/2000/svg">
<path fill-rule="evenodd" clip-rule="evenodd" d="M75.8978 36.2866C77.5323 36.2866 78.765 35.4866 79.1396 34.3466C79.2105 34.0182 79.5198 33.7925 79.8615 33.8199H81.4688C81.6325 33.804 81.7939 33.8673 81.901 33.9894C82.0082 34.1116 82.0477 34.2773 82.0069 34.4333C81.6323 37.0999 79.1737 39.0533 75.8773 39.0533C72.4701 39.1401 69.6196 36.5396 69.4685 33.2066C69.3738 31.7703 69.3738 30.3295 69.4685 28.8933C69.616 25.5415 72.4927 22.9308 75.9182 23.0399C79.7253 23.0399 82.2112 25.3533 82.2112 29.1999V31.3333C82.2075 31.6705 81.9291 31.943 81.5846 31.9466H72.5605C72.4763 31.9427 72.3943 31.9738 72.3347 32.0322C72.2751 32.0906 72.2433 32.1708 72.2473 32.2533C72.2404 35.0533 73.7252 36.2866 75.8978 36.2866ZM72.6218 29.4799H79.1668C79.2511 29.4838 79.3331 29.4527 79.3927 29.3943C79.4523 29.336 79.4841 29.2557 79.4801 29.1733C79.5013 28.2571 79.1283 27.3744 78.4522 26.7405C77.7761 26.1066 76.8592 25.7798 75.925 25.8399C74.9859 25.7828 74.0644 26.1086 73.3794 26.74C72.6944 27.3715 72.3067 28.2522 72.3086 29.1733C72.3046 29.2557 72.3364 29.336 72.396 29.3943C72.4556 29.4527 72.5376 29.4838 72.6218 29.4799Z" fill="#203136"/>
<path fill-rule="evenodd" clip-rule="evenodd" d="M94.8722 33.7265C94.8665 33.5744 94.9302 33.4276 95.0459 33.3259C95.1617 33.2242 95.3176 33.178 95.4715 33.1999H97.1061C97.4506 33.2035 97.729 33.476 97.7326 33.8132C97.7326 36.7999 95.1855 39.0532 91.6576 39.0532C87.8777 39.0532 85.6165 36.4332 85.3645 33.1999C85.2704 31.7636 85.2704 30.3228 85.3645 28.8865C85.6165 25.6532 87.8845 23.0332 91.6576 23.0332C95.1855 23.0332 97.7326 25.2799 97.7326 28.2732C97.7519 28.4259 97.7045 28.5795 97.6021 28.6962C97.4997 28.813 97.3517 28.8821 97.1946 28.8865H95.492C95.3447 28.9033 95.1969 28.8599 95.0835 28.7665C94.9701 28.6731 94.901 28.5381 94.8926 28.3932C94.8926 26.9465 93.5986 25.8065 91.6508 25.8065C90.7726 25.7576 89.9112 26.0564 89.2604 26.6357C88.6097 27.215 88.2243 28.0261 88.191 28.8865C88.0962 30.3228 88.0962 31.7636 88.191 33.1999C88.2243 34.0603 88.6097 34.8714 89.2604 35.4507C89.9112 36.03 90.7726 36.3288 91.6508 36.2799C93.585 36.2865 94.8722 35.1799 94.8722 33.7265Z" fill="#203136"/>
<path fill-rule="evenodd" clip-rule="evenodd" d="M101.983 38.7531C101.638 38.7495 101.36 38.477 101.356 38.1398V17.5865C101.36 17.2492 101.638 16.9768 101.983 16.9731H103.556C103.9 16.9768 104.179 17.2492 104.182 17.5865V23.1665C104.182 23.5347 104.487 23.8331 104.863 23.8331C105.49 23.8331 106.314 23.0598 107.758 23.0598C111.052 23.0598 113.726 25.6683 113.738 28.8931V38.1331C113.734 38.4704 113.456 38.7429 113.111 38.7465H111.538C111.193 38.7429 110.915 38.4704 110.911 38.1331V28.8931C110.845 27.136 109.342 25.7607 107.547 25.8131C105.592 25.8131 104.176 27.1465 104.176 28.7398V38.1331C104.172 38.4704 103.893 38.7429 103.549 38.7465L101.983 38.7531Z" fill="#203136"/>
<path fill-rule="evenodd" clip-rule="evenodd" d="M129.402 28.8932C129.496 30.3295 129.496 31.7702 129.402 33.2065C129.156 36.5175 126.34 39.0807 122.949 39.0807C119.558 39.0807 116.742 36.5175 116.496 33.2065C116.401 31.7703 116.401 30.3295 116.496 28.8932C116.742 25.5823 119.558 23.019 122.949 23.019C126.34 23.019 129.156 25.5823 129.402 28.8932ZM126.569 33.2065C126.663 31.7702 126.663 30.3295 126.569 28.8932C126.309 27.1317 124.767 25.8243 122.949 25.8243C121.131 25.8243 119.589 27.1317 119.329 28.8932C119.235 30.3295 119.235 31.7702 119.329 33.2065C119.589 34.9681 121.131 36.2755 122.949 36.2755C124.767 36.2755 126.309 34.9681 126.569 33.2065Z" fill="#203136"/>
<path fill-rule="evenodd" clip-rule="evenodd" d="M133.87 38.6667C133.775 38.9529 133.496 39.1414 133.188 39.1267H132.507C132.3 39.1216 132.111 39.0112 132.008 38.8355C131.905 38.6597 131.903 38.4441 132.003 38.2667L141.041 17.3334C141.1 17.058 141.353 16.8641 141.64 16.8734H142.322C142.525 16.8855 142.709 16.9971 142.81 17.1704C142.912 17.3436 142.918 17.5552 142.826 17.7334L133.87 38.6667Z" fill="#203136"/>
<path fill-rule="evenodd" clip-rule="evenodd" d="M149.098 38.0465C148.777 38.0984 148.492 38.2767 148.308 38.5398C148.199 38.6698 148.038 38.7475 147.866 38.7531H146.796C146.449 38.7532 146.167 38.4796 146.163 38.1398V17.5865C146.167 17.2467 146.449 16.9731 146.796 16.9731H148.37C148.714 16.9768 148.993 17.2492 148.996 17.5865V23.0398C148.996 23.6265 149.214 23.8131 149.677 23.8131C150.304 23.8131 151.155 23.0398 152.606 23.0398C155.909 23.0398 158.334 25.6598 158.586 28.8931C158.68 30.3294 158.68 31.7702 158.586 33.2065C158.334 36.4398 155.909 39.0598 152.606 39.0598C150.297 39.0598 150.011 38.0465 149.098 38.0465ZM155.909 33.2065C156.003 31.7702 156.003 30.3294 155.909 28.8931C155.65 27.1316 154.107 25.8242 152.289 25.8242C150.471 25.8242 148.929 27.1316 148.669 28.8931C148.575 30.3294 148.575 31.7702 148.669 33.2065C148.929 34.968 150.471 36.2754 152.289 36.2754C154.107 36.2754 155.65 34.968 155.909 33.2065Z" fill="#203136"/>
<path fill-rule="evenodd" clip-rule="evenodd" d="M162.774 25.9668C162.429 25.9632 162.151 25.6907 162.147 25.3535V23.9601C162.145 23.7957 162.21 23.6373 162.328 23.5198C162.445 23.4022 162.606 23.3352 162.774 23.3335H169.162C169.509 23.3334 169.792 23.607 169.796 23.9468V35.8268C169.792 35.9093 169.823 35.9895 169.883 36.0479C169.943 36.1062 170.025 36.1373 170.109 36.1335H174.107C174.451 36.1371 174.73 36.4096 174.733 36.7468V38.1335C174.73 38.4707 174.451 38.7432 174.107 38.7468H162.461C162.116 38.7432 161.838 38.4707 161.834 38.1335V36.7468C161.838 36.4096 162.116 36.1371 162.461 36.1335H166.581C166.665 36.1373 166.747 36.1062 166.807 36.0479C166.866 35.9895 166.898 35.9093 166.894 35.8268V26.2735C166.898 26.191 166.866 26.1108 166.807 26.0524C166.747 25.994 166.665 25.963 166.581 25.9668H162.774ZM169.884 19.5868C169.886 19.7182 169.834 19.8447 169.739 19.9376C169.644 20.0306 169.514 20.0819 169.38 20.0801H167.242C167.107 20.0819 166.978 20.0306 166.883 19.9376C166.788 19.8447 166.736 19.7182 166.738 19.5868V17.4601C166.745 17.1906 166.966 16.9738 167.242 16.9668H169.38C169.655 16.9738 169.877 17.1906 169.884 17.4601V19.5868Z" fill="#203136"/>
<path fill-rule="evenodd" clip-rule="evenodd" d="M183.887 23.0399C185.481 23.0126 187.019 23.6205 188.146 24.7242C189.274 25.8279 189.895 27.3327 189.867 28.8933V38.1333C189.863 38.4705 189.585 38.743 189.24 38.7466H187.667C187.322 38.743 187.044 38.4705 187.04 38.1333V28.8933C187.04 27.1066 185.528 25.8133 183.581 25.8133C181.633 25.8133 180.121 26.9533 180.121 28.7399V38.1333C180.117 38.4731 179.835 38.7466 179.487 38.7466H177.894C177.549 38.743 177.271 38.4705 177.267 38.1333V23.9599C177.271 23.6227 177.549 23.3502 177.894 23.3466H179.256C179.428 23.3531 179.589 23.4306 179.698 23.5599C179.882 23.8231 180.167 24.0013 180.489 24.0533C181.422 24.0533 181.674 23.0399 183.887 23.0399Z" fill="#203136"/>
<path fill-rule="evenodd" clip-rule="evenodd" d="M192.496 33.2065C192.402 31.7702 192.402 30.3294 192.496 28.8931C192.748 25.6598 195.172 23.0398 198.476 23.0398C199.926 23.0398 200.771 23.8131 201.404 23.8131C201.874 23.8131 202.085 23.6265 202.085 23.0398V17.5865C202.089 17.2492 202.367 16.9768 202.712 16.9731H204.319C204.664 16.9768 204.942 17.2492 204.946 17.5865V38.1331C204.942 38.4704 204.664 38.7429 204.319 38.7465H203.229C203.057 38.7409 202.896 38.6632 202.787 38.5331C202.603 38.27 202.318 38.0918 201.997 38.0398C201.084 38.0398 200.798 39.0531 198.469 39.0531C195.172 39.0598 192.741 36.4398 192.496 33.2065ZM202.412 33.2065C202.507 31.7702 202.507 30.3294 202.412 28.8931C202.153 27.1316 200.611 25.8242 198.792 25.8242C196.974 25.8242 195.432 27.1316 195.172 28.8931C195.078 30.3294 195.078 31.7702 195.172 33.2065C195.432 34.968 196.974 36.2754 198.792 36.2754C200.611 36.2754 202.153 34.968 202.412 33.2065Z" fill="#203136"/>
<path fill-rule="evenodd" clip-rule="evenodd" d="M28.6046 0C12.8067 0 0 12.536 0 28C0 43.464 12.8067 56 28.6046 56C44.4026 56 57.2093 43.464 57.2093 28C57.2093 20.5739 54.1956 13.452 48.8312 8.20101C43.4668 2.94999 36.1911 0 28.6046 0ZM28.6046 52.2667C14.9131 52.2667 3.81395 41.4021 3.81395 28C3.81395 14.5979 14.9131 3.73333 28.6046 3.73333C42.2962 3.73333 53.3953 14.5979 53.3953 28C53.3803 41.396 42.2899 52.252 28.6046 52.2667ZM42.0556 29.4467C42.6988 30.5793 42.9744 31.8769 42.8457 33.1667C42.4649 36.4914 39.5752 38.9945 36.1576 38.96H27.7669C27.6883 38.9586 27.6186 38.91 27.5914 38.8377C27.5643 38.7654 27.5853 38.6843 27.6444 38.6333C28.6512 37.7484 29.4684 36.6766 30.0485 35.48C30.1146 35.3302 30.2633 35.2314 30.4299 35.2267H36.3279C37.1203 35.234 37.8766 34.9033 38.3998 34.3208C38.923 33.7383 39.1611 32.9616 39.0522 32.1933C38.8751 30.86 38.0646 29.8667 36.7774 29.8667H32.7591C32.667 29.8663 32.5809 29.8215 32.5291 29.7468C32.4774 29.6722 32.4666 29.5773 32.5003 29.4933L33.8625 26.4667C33.9442 26.2667 34.1485 26.1333 34.7342 26.1333H39.6447C41.0438 26.1527 42.2437 25.1602 42.4575 23.8067C42.5665 23.0384 42.3283 22.2617 41.8051 21.6792C41.282 21.0967 40.5256 20.766 39.7332 20.7733H37.4108C33.5764 20.7733 32.0508 24.1467 30.4844 28C28.339 33.0867 26.4525 38.96 19.4035 38.96H17.6532C14.0544 39.007 11.0656 36.2525 10.897 32.7333C10.8188 30 12.5196 27.5187 15.1332 26.5533C14.49 25.4207 14.2145 24.1231 14.3432 22.8333C14.7239 19.5086 17.6136 17.0055 21.0312 17.04H29.4424C29.521 17.0414 29.5907 17.09 29.6179 17.1623C29.645 17.2346 29.624 17.3157 29.5649 17.3667C28.5581 18.2516 27.7409 19.3234 27.1608 20.52C27.0947 20.6698 26.946 20.7686 26.7794 20.7733H20.8814C20.089 20.766 19.3327 21.0967 18.8095 21.6792C18.2863 22.2617 18.0482 23.0384 18.1571 23.8067C18.3342 25.14 19.1447 26.1333 20.4319 26.1333H24.4502C24.5423 26.1337 24.6284 26.1785 24.6802 26.2532C24.7319 26.3278 24.7427 26.4227 24.709 26.5067L23.3468 29.5333C23.2651 29.7333 23.0608 29.8667 22.4751 29.8667H17.5578C16.1587 29.8473 14.9588 30.8398 14.745 32.1933C14.636 32.9616 14.8742 33.7383 15.3974 34.3208C15.9205 34.9033 16.6769 35.234 17.4693 35.2267H19.7985C23.6329 35.2267 25.1585 31.8533 26.7249 28C28.8703 22.9133 30.7568 17.04 37.8058 17.04H39.5561C43.1549 16.993 46.1437 19.7475 46.3123 23.2667C46.3874 26.0051 44.6773 28.488 42.0556 29.4467Z" fill="#203136"/>
</svg>
