<svg xmlns="http://www.w3.org/2000/svg" viewBox="0 0 666.72 254.38"><defs><style>.cls-1{fill:#00a3ad;}.cls-2{fill:#63676b;}</style></defs><g id="Layer_2" data-name="Layer 2"><g id="Layer_1-2" data-name="Layer 1"><polygon class="cls-1" points="85.85 231.75 89.15 212.41 0 212.41 6.13 178.43 25.96 156.27 18.86 77.52 60.83 1.58 159.4 0.17 143.89 161 152.84 244.95 97.17 254.38 85.85 231.75"/><path class="cls-1" d="M618.39,227.53h13.82c0,5.6,2,6.19,9,6.19,6.77,0,9-.43,9-5s-.8-4.62-7.56-5l-3.17-.21c-13.31-.94-21.12-.86-21.12-16.34s8.71-16.48,22.82-16.48c11.81,0,21.88.22,21.88,15.12V208H649.33c0-5.54-2.3-5.54-8.08-5.54-7.76,0-8.42,1.59-8.42,4.61,0,4.31,2.08,4.47,5.9,4.74l6,.43c16,1.15,19.94,3.17,19.94,15.55,0,8.93.36,17.7-23.39,17.7-13.75,0-22.89-.29-22.89-18Z"/><polygon class="cls-1" points="568.65 245.1 568.65 191.13 607.59 191.13 607.59 202.94 583.05 202.94 583.05 212.8 606.09 212.8 606.09 222.8 583.05 222.8 583.05 233.31 608.1 233.31 608.1 245.12 568.65 245.1"/><polygon class="cls-1" points="542.32 245.1 542.32 191.13 556.71 191.13 556.71 245.11 542.32 245.1"/><polygon class="cls-1" points="516.29 245.1 517.73 203.73 517.22 203.73 503.54 245.1 491.09 245.1 477.27 203.73 476.84 203.73 478.27 245.1 463.88 245.1 463.88 191.13 486.69 191.13 496.99 225.03 497.5 225.03 507.29 191.13 530.68 191.13 530.68 245.11 516.29 245.1"/><polygon class="cls-1" points="412.42 245.1 412.42 191.13 451.36 191.13 451.36 202.94 426.79 202.94 426.79 212.8 449.82 212.8 449.82 222.8 426.81 222.8 426.81 233.31 451.86 233.31 451.86 245.12 412.42 245.1"/><path class="cls-1" d="M380.22,191.12H352.87v54h29.29c15.06,0,19.8-7,19.8-21.74V212.06C402,196.72,395.27,191.12,380.22,191.12Zm6.92,32.24c0,5.69-1.94,9.22-7.27,9.22H367.28l0-29h12.57c5,0,7.27,1.44,7.27,8.42Z"/><path class="cls-1" d="M330.73,191.12H308.84l-16.19,54h15l2.67-9.28h19.34l2.8,9.28h14.68Zm-17.34,34.19L320,201.92h.14l6.68,23.39Z"/><path class="cls-1" d="M219.85,191.13H198l-16.2,54h15l2.66-9.29h19.37l2.81,9.29h14.68ZM202.5,225.32l6.56-23.4h.14l6.69,23.4Z"/><path class="cls-2" d="M219,164.86c-22.6,0-39.12-1.1-39.12-31.46V111.9c0-27.48,14.74-31.46,39.12-31.46,22.84,0,33.46,2.32,33.91,27.25v3.22H230v-3.22c-.78-7.42-6-8-13.52-8-12.63,0-13.85,3.88-13.85,15.71v13c0,12.41.55,17.18,13.85,17.18,9.19,0,13.63-.66,13.63-10.42v-2.44l22.84,0v2.44c0,9.08-.1,17.28-7.63,23.6-7.27,6-16.07,6.1-25.33,6.1Z"/><path class="cls-2" d="M590.35,133.51V112c0-27.48,15.08-31.59,39.45-31.59,21.49,0,36.79.12,36.79,26.49H644.1c-.43-8.42-7.63-8.31-14.29-8.31-15.95,0-16.41,4.88-16.61,18.28V130.4c0,14.73,5.09,16.29,16.61,16.29,11.3,0,14.29-2.55,14.29-14.06H628.8v-15.4h37.79v14.52c0,28-7.09,33.13-36.79,33.13-26.15,0-39.45-4.45-39.45-31.37Z"/><path class="cls-2" d="M304.26,80.44c-22.5,0-38.45,4.88-38.45,30.47v23.48h0c0,25.6,15.94,30.47,38.44,30.47s38.45-4.88,38.45-30.47V110.91C342.71,85.31,326.76,80.44,304.26,80.44Zm15.64,51.5c0,12.43-4.1,13.63-15.62,13.63s-15.3-1.22-15.63-13.63V113.22h0c.33-12.3,4.11-13.52,15.64-13.52s15.62,1.22,15.62,13.52Z"/><polygon class="cls-2" points="536.73 164.21 513.24 100.38 512.35 100.38 513.69 164.17 491.54 164.17 491.54 81.11 528.98 81.11 552.81 144.94 553.71 144.94 552.36 81.11 574.52 81.11 574.52 164.21 536.73 164.21"/><path class="cls-2" d="M399.78,81.11h-42.1v83.1h45.09c23.15,0,30.47-10.75,30.47-33.46v-17.4C433.24,89.76,422.94,81.11,399.78,81.11Zm10.66,49.63c0,8.75-3,14.18-11.21,14.18H379.84V100.39h19.39c7.76,0,11.21,2.21,11.21,13Z"/><polygon class="cls-2" points="450.21 164.19 450.21 81.11 472.37 81.11 472.37 164.21 450.21 164.19"/><path class="cls-1" d="M467.3,49a20.5,20.5,0,0,1-2.25-12.13h14.12v1.08a4.88,4.88,0,0,0,1.66,4.44c1.24,1,1.91,1.05,8.71,1.05,4.82,0,5.57-.08,6.81-1.13A4.94,4.94,0,0,0,497.92,38c0-3.81-1.16-4.69-7-5a109.36,109.36,0,0,1-16.44-1.61c-6.89-1.7-9.37-5.66-9.37-15.28,0-6.55,1.41-10.59,4.56-12.78C473.35.81,478,0,488.79,0,500.43,0,505.15,1.13,508,4.6a14.86,14.86,0,0,1,3,10.19l-.09,2.42H496.76v-1c0-4.28-1.49-5.25-7.8-5.25-7.22,0-9,1-9,5.25A4.59,4.59,0,0,0,481.24,20c.91.81,1.41.89,6.15,1.21,13.45,1,13.61,1,17.1,2,6,1.87,8,5.43,8,14.07,0,7.28-1.08,11-3.88,13.42-3.65,3.08-8.13,4.05-19.09,4.05-14.14,0-19.46-1.37-22.27-5.74Z"/><path class="cls-1" d="M414,49a20.5,20.5,0,0,1-2.23-12.13H425.9v1.08a4.9,4.9,0,0,0,1.65,4.44c1.25,1,1.92,1,8.72,1,4.82,0,5.57-.07,6.81-1.12A5,5,0,0,0,444.65,38c0-3.8-1.16-4.69-7-5a109.24,109.24,0,0,1-16.44-1.61c-6.89-1.7-9.38-5.66-9.38-15.28,0-6.55,1.41-10.59,4.56-12.78C420.09.81,424.74,0,435.53,0c11.64,0,16.35,1.13,19.18,4.6a14.86,14.86,0,0,1,3,10.19l-.08,2.42H443.5v-1C443.5,12,442,11,435.69,11c-7.22,0-9,1-9,5.25A4.56,4.56,0,0,0,428,20c.91.81,1.4.89,6.14,1.21,13.45,1,13.62,1,17.1,2,6.06,1.87,8,5.43,8,14.07,0,7.28-1.07,11-3.9,13.42-3.65,3.08-8.13,4.05-19.09,4.05-14.12,0-19.43-1.37-22.26-5.74Z"/><path class="cls-1" d="M335.72,49a20.42,20.42,0,0,1-2.24-12.13h14.11v1.08a4.86,4.86,0,0,0,1.66,4.44c1.25,1,1.91,1.05,8.71,1.05,4.82,0,5.57-.08,6.81-1.13A5,5,0,0,0,366.35,38c0-3.8-1.17-4.69-7-5a109.24,109.24,0,0,1-16.44-1.61c-6.9-1.7-9.38-5.66-9.38-15.28,0-6.55,1.41-10.59,4.57-12.78C341.78.81,346.43,0,357.22,0c11.64,0,16.38,1.13,19.18,4.6a14.91,14.91,0,0,1,3,10.19l-.09,2.45H365.18v-1c0-4.28-1.49-5.25-7.8-5.25-7.22,0-9,1-9,5.25A4.59,4.59,0,0,0,349.66,20c.92.81,1.41.89,6.15,1.21,13.45,1,13.61,1,17.09,2C379,25.07,381,28.63,381,37.27c0,7.28-1.08,11-3.9,13.42-3.66,3.08-8.14,4.05-19.1,4.05-14.11,0-19.42-1.37-22.24-5.74Z"/><path class="cls-1" d="M282.44,49a20.49,20.49,0,0,1-2.24-12.13h14.11v1.08A4.89,4.89,0,0,0,296,42.37c1.25,1,1.91,1.05,8.72,1.05,4.82,0,5.56-.08,6.8-1.13A5,5,0,0,0,313.07,38c0-3.81-1.16-4.69-7-5a109.24,109.24,0,0,1-16.44-1.61c-6.9-1.7-9.38-5.66-9.38-15.28,0-6.55,1.42-10.59,4.56-12.78C288.5.81,293.15,0,304,0c11.63,0,16.35,1.13,19.18,4.6a14.91,14.91,0,0,1,3,10.19L326,17.24H311.91v-1c0-4.28-1.49-5.25-7.8-5.25-7.22,0-9,1-9,5.25A4.6,4.6,0,0,0,296.39,20c.91.81,1.41.89,6.14,1.21,13.46,1,13.62,1,17.11,2,6.06,1.87,8.05,5.43,8.05,14.07,0,7.28-1.08,11-3.9,13.42-3.65,3.08-8.13,4.05-19.1,4.05-14.11,0-19.42-1.37-22.24-5.74Z"/><path class="cls-1" d="M207.7,54.31,201.8,37.5l-4.24-12.2c-1-3.15-2.31-7.27-4-12.28h-.49l.43,6.31c.66,11.31.83,14.3.83,18.82V54.31H179.73V.41h23.16l5.17,15.43c1.73,5.18,2.49,7.6,3.83,12,.57,2.19,1.16,4.37,1.82,6.47h.58l1.21-4.62c1.83-6.7,2.07-7.68,4.07-13.74l5-15.51h23.66V54.31H233.6V38.14c0-5.25.08-7.51.75-18.82l.33-6.31h-.5l-1.91,6.15-2,6.14-4.15,12.28L220.4,54.31Z"/><rect class="cls-1" x="651.85" y="0.41" width="14.87" height="53.9"/><rect class="cls-1" x="520.7" y="0.41" width="14.87" height="53.9"/><rect class="cls-1" x="388.85" y="0.41" width="14.87" height="53.9"/><rect class="cls-1" x="258.12" y="0.41" width="14.86" height="53.9"/><path class="cls-1" d="M637.16,2.83A19.65,19.65,0,0,0,625.2.4H597.39V54.31h14.88V40.49h8.88l2.41-.08c7.39-.16,7.39-.16,8.38-.25a14.2,14.2,0,0,0,8.62-4.2c2.66-3.15,3.66-7.19,3.66-15C644.22,10.59,642.33,5.74,637.16,2.83ZM621.53,28h-9.3V12.29h9.38a10.19,10.19,0,0,1,4.74.56c2,.89,2.66,2.75,2.66,7.35C629,27.16,628.17,28,621.53,28Z"/><path class="cls-1" d="M584.82,2.83a19.61,19.61,0,0,0-12-2.43H545.06V54.31h14.87V40.49h8.88l2.41-.08c7.39-.16,7.39-.16,8.38-.25a14.1,14.1,0,0,0,8.62-4.2c2.67-3.15,3.66-7.19,3.66-15C591.88,10.59,590,5.74,584.82,2.83ZM569.17,28h-9.3V12.29h9.38a10.19,10.19,0,0,1,4.74.56c2,.89,2.66,2.75,2.66,7.35C576.65,27.16,575.82,28,569.17,28Z"/><path class="cls-1" d="M288.21,224.71v1.62c-.08,9.32-1,12.15-4.79,15.31a17.36,17.36,0,0,1-7.53,3.41,67.72,67.72,0,0,1-10.13.48c-9.88,0-12.23-.24-15.55-1.78a15.2,15.2,0,0,1-8.67-11.26c-.57-2.67-.9-10.21-.9-19.2,0-9.4,1.3-13.78,5-17.42,4.37-4.22,8.51-5.19,21.31-5.19,8,0,10.61.33,13.77,1.78,4,1.87,6.08,5,6.81,10a65.86,65.86,0,0,1,.4,7.94H273.62c-.16-3.4-.24-4-.81-5-1-1.7-3.08-2.27-8.34-2.27s-7.3,1-8.18,3.73c-.65,1.86-.82,4.7-.82,16,0,8.5,1.62,10.29,9.48,10.29,7.13,0,9-1.38,9-6.89a13.73,13.73,0,0,0-.08-1.54Z"/></g></g></svg>